<ttFont>
    <TTGlyph name="A" xMin="13" yMin="0" xMax="1407" yMax="1456">
      <contour>
        <pt x="199" y="0" on="1"/>
        <pt x="13" y="0" on="1"/>
        <pt x="617" y="1456" on="1"/>
        <pt x="802" y="1456" on="1"/>
        <pt x="1407" y="0" on="1"/>
        <pt x="1216" y="0" on="1"/>
        <pt x="1053" y="397" on="1"/>
        <pt x="355" y="397" on="1"/>
      </contour>
      <contour>
        <pt x="410" y="545" on="1"/>
        <pt x="994" y="545" on="1"/>
        <pt x="760" y="1150" on="1"/>
        <pt x="752" y="1169" on="0"/>
        <pt x="734" y="1220" on="0"/>
        <pt x="726" y="1243" on="1"/>
        <pt x="716" y="1270" on="0"/>
        <pt x="707" y="1298" on="1"/>
        <pt x="697" y="1266" on="0"/>
        <pt x="687" y="1237" on="1"/>
        <pt x="679" y="1212" on="0"/>
        <pt x="660" y="1163" on="0"/>
        <pt x="655" y="1149" on="1"/>
      </contour>
    </TTGlyph>
    <TTGlyph name="AE" xMin="5" yMin="0" xMax="1901" yMax="1456">
      <contour>
        <pt x="944" y="1308" on="1"/>
        <pt x="506" y="546" on="1"/>
        <pt x="1054" y="546" on="1"/>
        <pt x="994" y="1308" on="1"/>
      </contour>
      <contour>
        <pt x="836" y="1456" on="1"/>
        <pt x="1875" y="1456" on="1"/>
        <pt x="1878" y="1308" on="1"/>
        <pt x="1159" y="1308" on="1"/>
        <pt x="1197" y="820" on="1"/>
        <pt x="1834" y="820" on="1"/>
        <pt x="1837" y="672" on="1"/>
        <pt x="1216" y="672" on="1"/>
        <pt x="1257" y="148" on="1"/>
        <pt x="1898" y="148" on="1"/>
        <pt x="1901" y="0" on="1"/>
        <pt x="1104" y="0" on="1"/>
        <pt x="1073" y="398" on="1"/>
        <pt x="427" y="398" on="1"/>
        <pt x="201" y="0" on="1"/>
        <pt x="5" y="0" on="1"/>
      </contour>
    </TTGlyph>
    <TTGlyph name="Aacute" xMin="13" yMin="0" xMax="1407" yMax="1922">
      <component glyphName="A" x="0" y="0" flags="0x1204"/>
      <component glyphName="acute" x="318" y="430" flags="0x1004"/>
    </TTGlyph>
    <TTGlyph name="Acircumflex" xMin="13" yMin="0" xMax="1407" yMax="1924">
      <component glyphName="A" x="0" y="0" flags="0x1204"/>
      <component glyphName="circumflex" x="370" y="430" flags="0x1004"/>
    </TTGlyph>
    <TTGlyph name="Adieresis" xMin="13" yMin="0" xMax="1407" yMax="1839">
      <component glyphName="A" x="0" y="0" flags="0x1204"/>
      <component glyphName="dieresis" x="342" y="430" flags="0x1004"/>
    </TTGlyph>
    <TTGlyph name="Agrave" xMin="13" yMin="0" xMax="1407" yMax="1922">
      <component glyphName="A" x="0" y="0" flags="0x1204"/>
      <component glyphName="grave" x="481" y="430" flags="0x1004"/>
    </TTGlyph>
    <TTGlyph name="Aring" xMin="13" yMin="0" xMax="1407" yMax="1960">
      <component glyphName="A" x="0" y="0" flags="0x1204"/>
      <component glyphName="ring" x="412" y="430" flags="0x1004"/>
    </TTGlyph>
    <TTGlyph name="Atilde" xMin="13" yMin="0" xMax="1407" yMax="1865">
      <component glyphName="A" x="0" y="0" flags="0x1204"/>
      <component glyphName="tilde" x="376" y="430" flags="0x1004"/>
    </TTGlyph>
    <TTGlyph name="B" xMin="202" yMin="0" xMax="1213" yMax="1456">
      <contour>
        <pt x="202" y="0" on="1"/>
        <pt x="202" y="1456" on="1"/>
        <pt x="492" y="1456" on="1"/>
        <pt x="573" y="1456" on="0"/>
        <pt x="723" y="1452" on="0"/>
        <pt x="792" y="1444" on="1"/>
        <pt x="868" y="1435" on="0"/>
        <pt x="997" y="1379" on="0"/>
        <pt x="1091" y="1292" on="0"/>
        <pt x="1144" y="1175" on="0"/>
        <pt x="1144" y="1105" on="1"/>
        <pt x="1144" y="1045" on="0"/>
        <pt x="1105" y="937" on="0"/>
        <pt x="1035" y="850" on="0"/>
        <pt x="937" y="786" on="0"/>
        <pt x="879" y="769" on="1"/>
        <pt x="881" y="769" on="0"/>
        <pt x="886" y="768" on="0"/>
        <pt x="888" y="768" on="1"/>
        <pt x="960" y="753" on="0"/>
        <pt x="1080" y="692" on="0"/>
        <pt x="1166" y="599" on="0"/>
        <pt x="1213" y="478" on="0"/>
        <pt x="1213" y="403" on="1"/>
        <pt x="1213" y="323" on="0"/>
        <pt x="1152" y="177" on="0"/>
        <pt x="1030" y="66" on="0"/>
        <pt x="849" y="0" on="0"/>
        <pt x="729" y="0" on="1"/>
      </contour>
      <contour>
        <pt x="374" y="828" on="1"/>
        <pt x="570" y="828" on="1"/>
        <pt x="643" y="828" on="0"/>
        <pt x="784" y="851" on="0"/>
        <pt x="895" y="907" on="0"/>
        <pt x="963" y="1003" on="0"/>
        <pt x="963" y="1077" on="1"/>
        <pt x="963" y="1150" on="0"/>
        <pt x="904" y="1241" on="0"/>
        <pt x="802" y="1291" on="0"/>
        <pt x="663" y="1308" on="0"/>
        <pt x="582" y="1308" on="1"/>
        <pt x="374" y="1308" on="1"/>
      </contour>
      <contour>
        <pt x="374" y="680" on="1"/>
        <pt x="374" y="148" on="1"/>
        <pt x="657" y="148" on="1"/>
        <pt x="836" y="148" on="0"/>
        <pt x="1031" y="274" on="0"/>
        <pt x="1031" y="406" on="1"/>
        <pt x="1031" y="485" on="0"/>
        <pt x="975" y="591" on="0"/>
        <pt x="865" y="654" on="0"/>
        <pt x="705" y="680" on="0"/>
        <pt x="600" y="680" on="1"/>
      </contour>
    </TTGlyph>
    <TTGlyph name="C" xMin="108" yMin="-23" xMax="1291" yMax="1483">
      <contour>
        <pt x="1190" y="1219" on="1"/>
        <pt x="1037" y="1334" on="0"/>
        <pt x="833" y="1334" on="1"/>
        <pt x="741" y="1334" on="0"/>
        <pt x="589" y="1285" on="0"/>
        <pt x="468" y="1198" on="0"/>
        <pt x="379" y="1080" on="0"/>
        <pt x="320" y="942" on="0"/>
        <pt x="291" y="789" on="0"/>
        <pt x="291" y="712" on="1"/>
        <pt x="291" y="594" on="0"/>
        <pt x="353" y="381" on="0"/>
        <pt x="481" y="220" on="0"/>
        <pt x="677" y="125" on="0"/>
        <pt x="811" y="125" on="1"/>
        <pt x="934" y="125" on="0"/>
        <pt x="1151" y="196" on="0"/>
        <pt x="1233" y="268" on="1"/>
        <pt x="1291" y="127" on="1"/>
        <pt x="1198" y="52" on="0"/>
        <pt x="944" y="-23" on="0"/>
        <pt x="785" y="-23" on="1"/>
        <pt x="620" y="-23" on="0"/>
        <pt x="368" y="93" on="0"/>
        <pt x="196" y="294" on="0"/>
        <pt x="108" y="561" on="0"/>
        <pt x="108" y="713" on="1"/>
        <pt x="108" y="816" on="0"/>
        <pt x="151" y="1010" on="0"/>
        <pt x="234" y="1181" on="0"/>
        <pt x="356" y="1324" on="0"/>
        <pt x="513" y="1426" on="0"/>
        <pt x="703" y="1483" on="0"/>
        <pt x="814" y="1483" on="1"/>
        <pt x="950" y="1483" on="0"/>
        <pt x="1164" y="1410" on="0"/>
        <pt x="1255" y="1329" on="1"/>
      </contour>
    </TTGlyph>
    <TTGlyph name="Ccedilla" xMin="108" yMin="-396" xMax="1291" yMax="1483">
      <component glyphName="C" x="0" y="0" flags="0x1204"/>
      <component glyphName="cedilla" x="439" y="0" flags="0x1004"/>
    </TTGlyph>
    <TTGlyph name="D" xMin="193" yMin="0" xMax="1430" yMax="1456">
      <contour>
        <pt x="193" y="1456" on="1"/>
        <pt x="508" y="1456" on="1"/>
        <pt x="638" y="1456" on="0"/>
        <pt x="876" y="1426" on="0"/>
        <pt x="1081" y="1358" on="0"/>
        <pt x="1248" y="1247" on="0"/>
        <pt x="1366" y="1084" on="0"/>
        <pt x="1430" y="865" on="0"/>
        <pt x="1430" y="724" on="1"/>
        <pt x="1430" y="558" on="0"/>
        <pt x="1319" y="291" on="0"/>
        <pt x="1108" y="102" on="0"/>
        <pt x="803" y="0" on="0"/>
        <pt x="610" y="0" on="1"/>
        <pt x="193" y="0" on="1"/>
      </contour>
      <contour>
        <pt x="365" y="148" on="1"/>
        <pt x="626" y="148" on="1"/>
        <pt x="785" y="148" on="0"/>
        <pt x="1019" y="233" on="0"/>
        <pt x="1173" y="385" on="0"/>
        <pt x="1248" y="596" on="0"/>
        <pt x="1248" y="721" on="1"/>
        <pt x="1248" y="885" on="0"/>
        <pt x="1156" y="1110" on="0"/>
        <pt x="975" y="1248" on="0"/>
        <pt x="706" y="1308" on="0"/>
        <pt x="529" y="1308" on="1"/>
        <pt x="365" y="1308" on="1"/>
      </contour>
    </TTGlyph>
    <TTGlyph name="E" xMin="205" yMin="0" xMax="1102" yMax="1456">
      <contour>
        <pt x="1102" y="0" on="1"/>
        <pt x="205" y="0" on="1"/>
        <pt x="205" y="1456" on="1"/>
        <pt x="1072" y="1456" on="1"/>
        <pt x="1072" y="1308" on="1"/>
        <pt x="377" y="1308" on="1"/>
        <pt x="377" y="820" on="1"/>
        <pt x="1034" y="820" on="1"/>
        <pt x="1034" y="672" on="1"/>
        <pt x="377" y="672" on="1"/>
        <pt x="377" y="148" on="1"/>
        <pt x="1102" y="148" on="1"/>
      </contour>
    </TTGlyph>
    <TTGlyph name="Eacute" xMin="205" yMin="0" xMax="1102" yMax="1922">
      <component glyphName="E" x="0" y="0" flags="0x1204"/>
      <component glyphName="acute" x="215" y="430" flags="0x1004"/>
    </TTGlyph>
    <TTGlyph name="Ecircumflex" xMin="205" yMin="0" xMax="1102" yMax="1924">
      <component glyphName="E" x="0" y="0" flags="0x1204"/>
      <component glyphName="circumflex" x="267" y="430" flags="0x1004"/>
    </TTGlyph>
    <TTGlyph name="Edieresis" xMin="205" yMin="0" xMax="1102" yMax="1839">
      <component glyphName="E" x="0" y="0" flags="0x1204"/>
      <component glyphName="dieresis" x="239" y="430" flags="0x1004"/>
    </TTGlyph>
    <TTGlyph name="Egrave" xMin="205" yMin="0" xMax="1102" yMax="1922">
      <component glyphName="E" x="0" y="0" flags="0x1204"/>
      <component glyphName="grave" x="377" y="430" flags="0x1004"/>
    </TTGlyph>
    <TTGlyph name="Eth" xMin="-1" yMin="0" xMax="1430" yMax="1456">
      <contour>
        <pt x="193" y="658" on="1"/>
        <pt x="0" y="658" on="1"/>
        <pt x="-1" y="795" on="1"/>
        <pt x="193" y="795" on="1"/>
        <pt x="193" y="1456" on="1"/>
        <pt x="508" y="1456" on="1"/>
        <pt x="638" y="1456" on="0"/>
        <pt x="876" y="1426" on="0"/>
        <pt x="1081" y="1358" on="0"/>
        <pt x="1248" y="1247" on="0"/>
        <pt x="1366" y="1084" on="0"/>
        <pt x="1430" y="865" on="0"/>
        <pt x="1430" y="724" on="1"/>
        <pt x="1430" y="558" on="0"/>
        <pt x="1319" y="291" on="0"/>
        <pt x="1108" y="102" on="0"/>
        <pt x="803" y="0" on="0"/>
        <pt x="610" y="0" on="1"/>
        <pt x="193" y="0" on="1"/>
      </contour>
      <contour>
        <pt x="365" y="658" on="1"/>
        <pt x="365" y="148" on="1"/>
        <pt x="626" y="148" on="1"/>
        <pt x="785" y="148" on="0"/>
        <pt x="1019" y="233" on="0"/>
        <pt x="1173" y="385" on="0"/>
        <pt x="1248" y="596" on="0"/>
        <pt x="1248" y="721" on="1"/>
        <pt x="1248" y="885" on="0"/>
        <pt x="1156" y="1110" on="0"/>
        <pt x="975" y="1248" on="0"/>
        <pt x="706" y="1308" on="0"/>
        <pt x="529" y="1308" on="1"/>
        <pt x="365" y="1308" on="1"/>
        <pt x="365" y="795" on="1"/>
        <pt x="570" y="795" on="1"/>
        <pt x="571" y="658" on="1"/>
      </contour>
    </TTGlyph>
    <TTGlyph name="Euro" xMin="75" yMin="-21" xMax="1106" yMax="1448">
      <contour>
        <pt x="98" y="654" on="1"/>
        <pt x="200" y="654" on="1"/>
        <pt x="198" y="678" on="0"/>
        <pt x="197" y="739" on="0"/>
        <pt x="199" y="784" on="1"/>
        <pt x="75" y="784" on="1"/>
        <pt x="97" y="922" on="1"/>
        <pt x="218" y="922" on="1"/>
        <pt x="239" y="1037" on="0"/>
        <pt x="332" y="1230" on="0"/>
        <pt x="474" y="1370" on="0"/>
        <pt x="664" y="1448" on="0"/>
        <pt x="783" y="1448" on="1"/>
        <pt x="883" y="1448" on="0"/>
        <pt x="1043" y="1390" on="0"/>
        <pt x="1106" y="1330" on="1"/>
        <pt x="1070" y="1141" on="1"/>
        <pt x="1016" y="1222" on="0"/>
        <pt x="864" y="1303" on="0"/>
        <pt x="776" y="1303" on="1"/>
        <pt x="695" y="1303" on="0"/>
        <pt x="569" y="1243" on="0"/>
        <pt x="475" y="1139" on="0"/>
        <pt x="412" y="1000" on="0"/>
        <pt x="395" y="922" on="1"/>
        <pt x="987" y="922" on="1"/>
        <pt x="967" y="784" on="1"/>
        <pt x="377" y="784" on="1"/>
        <pt x="374" y="750" on="0"/>
        <pt x="377" y="685" on="0"/>
        <pt x="378" y="656" on="1"/>
        <pt x="378" y="654" on="1"/>
        <pt x="953" y="654" on="1"/>
        <pt x="934" y="516" on="1"/>
        <pt x="392" y="516" on="1"/>
        <pt x="404" y="429" on="0"/>
        <pt x="458" y="286" on="0"/>
        <pt x="549" y="182" on="0"/>
        <pt x="679" y="125" on="0"/>
        <pt x="767" y="125" on="1"/>
        <pt x="842" y="125" on="0"/>
        <pt x="1001" y="187" on="0"/>
        <pt x="1084" y="253" on="1"/>
        <pt x="1083" y="75" on="1"/>
        <pt x="1008" y="24" on="0"/>
        <pt x="842" y="-21" on="0"/>
        <pt x="751" y="-21" on="1"/>
        <pt x="628" y="-21" on="0"/>
        <pt x="441" y="57" on="0"/>
        <pt x="308" y="198" on="0"/>
        <pt x="228" y="396" on="0"/>
        <pt x="213" y="516" on="1"/>
        <pt x="78" y="516" on="1"/>
      </contour>
    </TTGlyph>
    <TTGlyph name="F" xMin="197" yMin="0" xMax="1040" yMax="1456">
      <contour>
        <pt x="369" y="0" on="1"/>
        <pt x="197" y="0" on="1"/>
        <pt x="197" y="1456" on="1"/>
        <pt x="1040" y="1456" on="1"/>
        <pt x="1040" y="1308" on="1"/>
        <pt x="369" y="1308" on="1"/>
        <pt x="369" y="815" on="1"/>
        <pt x="1006" y="815" on="1"/>
        <pt x="1006" y="667" on="1"/>
        <pt x="369" y="667" on="1"/>
      </contour>
    </TTGlyph>
    <TTGlyph name="G" xMin="116" yMin="-23" xMax="1352" yMax="1483">
      <contour>
        <pt x="1258" y="1196" on="1"/>
        <pt x="1221" y="1232" on="0"/>
        <pt x="1130" y="1284" on="0"/>
        <pt x="1027" y="1318" on="0"/>
        <pt x="914" y="1334" on="0"/>
        <pt x="856" y="1334" on="1"/>
        <pt x="717" y="1334" on="0"/>
        <pt x="506" y="1230" on="0"/>
        <pt x="365" y="1057" on="0"/>
        <pt x="294" y="834" on="0"/>
        <pt x="294" y="714" on="1"/>
        <pt x="294" y="583" on="0"/>
        <pt x="364" y="366" on="0"/>
        <pt x="506" y="211" on="0"/>
        <pt x="719" y="125" on="0"/>
        <pt x="863" y="125" on="1"/>
        <pt x="948" y="125" on="0"/>
        <pt x="1108" y="153" on="0"/>
        <pt x="1180" y="182" on="1"/>
        <pt x="1180" y="608" on="1"/>
        <pt x="819" y="608" on="1"/>
        <pt x="819" y="757" on="1"/>
        <pt x="1352" y="757" on="1"/>
        <pt x="1352" y="81" on="1"/>
        <pt x="1231" y="24" on="0"/>
        <pt x="978" y="-23" on="0"/>
        <pt x="849" y="-23" on="1"/>
        <pt x="669" y="-23" on="0"/>
        <pt x="395" y="81" on="0"/>
        <pt x="210" y="271" on="0"/>
        <pt x="116" y="538" on="0"/>
        <pt x="116" y="701" on="1"/>
        <pt x="116" y="808" on="0"/>
        <pt x="161" y="1007" on="0"/>
        <pt x="248" y="1181" on="0"/>
        <pt x="376" y="1324" on="0"/>
        <pt x="541" y="1427" on="0"/>
        <pt x="742" y="1483" on="0"/>
        <pt x="860" y="1483" on="1"/>
        <pt x="932" y="1483" on="0"/>
        <pt x="1068" y="1461" on="0"/>
        <pt x="1188" y="1416" on="0"/>
        <pt x="1289" y="1347" on="0"/>
        <pt x="1327" y="1301" on="1"/>
      </contour>
    </TTGlyph>
    <TTGlyph name="H" xMin="202" yMin="0" xMax="1347" yMax="1456">
      <contour>
        <pt x="374" y="0" on="1"/>
        <pt x="202" y="0" on="1"/>
        <pt x="202" y="1456" on="1"/>
        <pt x="374" y="1456" on="1"/>
        <pt x="374" y="822" on="1"/>
        <pt x="1176" y="822" on="1"/>
        <pt x="1176" y="1456" on="1"/>
        <pt x="1347" y="1456" on="1"/>
        <pt x="1347" y="0" on="1"/>
        <pt x="1176" y="0" on="1"/>
        <pt x="1176" y="674" on="1"/>
        <pt x="374" y="674" on="1"/>
      </contour>
    </TTGlyph>
    <TTGlyph name="I" xMin="210" yMin="0" xMax="382" yMax="1456">
      <contour>
        <pt x="382" y="0" on="1"/>
        <pt x="210" y="0" on="1"/>
        <pt x="210" y="1456" on="1"/>
        <pt x="382" y="1456" on="1"/>
      </contour>
    </TTGlyph>
    <TTGlyph name="Iacute" xMin="78" yMin="0" xMax="516" yMax="1922">
      <component glyphName="I" x="0" y="0" flags="0x1204"/>
      <component glyphName="acute" x="-97" y="430" flags="0x1004"/>
    </TTGlyph>
    <TTGlyph name="Icircumflex" xMin="-10" yMin="0" xMax="604" yMax="1924">
      <component glyphName="I" x="0" y="0" flags="0x1204"/>
      <component glyphName="circumflex" x="-45" y="430" flags="0x1004"/>
    </TTGlyph>
    <TTGlyph name="Idieresis" xMin="49" yMin="0" xMax="545" yMax="1839">
      <component glyphName="I" x="0" y="0" flags="0x1204"/>
      <component glyphName="dieresis" x="-73" y="430" flags="0x1004"/>
    </TTGlyph>
    <TTGlyph name="Igrave" xMin="65" yMin="0" xMax="526" yMax="1922">
      <component glyphName="I" x="0" y="0" flags="0x1204"/>
      <component glyphName="grave" x="64" y="430" flags="0x1004"/>
    </TTGlyph>
    <TTGlyph name="J" xMin="71" yMin="-23" xMax="755" yMax="1456">
      <contour>
        <pt x="122" y="197" on="1"/>
        <pt x="166" y="163" on="0"/>
        <pt x="266" y="125" on="0"/>
        <pt x="326" y="125" on="1"/>
        <pt x="392" y="125" on="0"/>
        <pt x="489" y="180" on="0"/>
        <pt x="552" y="278" on="0"/>
        <pt x="583" y="410" on="0"/>
        <pt x="583" y="488" on="1"/>
        <pt x="583" y="1456" on="1"/>
        <pt x="755" y="1456" on="1"/>
        <pt x="755" y="499" on="1"/>
        <pt x="755" y="372" on="0"/>
        <pt x="695" y="177" on="0"/>
        <pt x="583" y="45" on="0"/>
        <pt x="423" y="-23" on="0"/>
        <pt x="321" y="-23" on="1"/>
        <pt x="243" y="-23" on="0"/>
        <pt x="120" y="32" on="0"/>
        <pt x="71" y="81" on="1"/>
      </contour>
    </TTGlyph>
    <TTGlyph name="K" xMin="210" yMin="0" xMax="1296" yMax="1456">
      <contour>
        <pt x="382" y="0" on="1"/>
        <pt x="210" y="0" on="1"/>
        <pt x="210" y="1456" on="1"/>
        <pt x="382" y="1456" on="1"/>
        <pt x="382" y="796" on="1"/>
        <pt x="470" y="887" on="1"/>
        <pt x="1026" y="1456" on="1"/>
        <pt x="1242" y="1456" on="1"/>
        <pt x="553" y="778" on="1"/>
        <pt x="1296" y="0" on="1"/>
        <pt x="1060" y="0" on="1"/>
        <pt x="466" y="634" on="1"/>
        <pt x="382" y="725" on="1"/>
      </contour>
    </TTGlyph>
    <TTGlyph name="L" xMin="202" yMin="0" xMax="1073" yMax="1456">
      <contour>
        <pt x="1073" y="0" on="1"/>
        <pt x="202" y="0" on="1"/>
        <pt x="202" y="1456" on="1"/>
        <pt x="374" y="1456" on="1"/>
        <pt x="374" y="148" on="1"/>
        <pt x="1071" y="148" on="1"/>
      </contour>
    </TTGlyph>
    <TTGlyph name="Lslash" xMin="-20" yMin="0" xMax="1073" yMax="1456">
      <contour>
        <pt x="1073" y="0" on="1"/>
        <pt x="202" y="0" on="1"/>
        <pt x="202" y="674" on="1"/>
        <pt x="43" y="592" on="1"/>
        <pt x="-20" y="713" on="1"/>
        <pt x="202" y="828" on="1"/>
        <pt x="202" y="1456" on="1"/>
        <pt x="374" y="1456" on="1"/>
        <pt x="374" y="918" on="1"/>
        <pt x="649" y="1061" on="1"/>
        <pt x="712" y="940" on="1"/>
        <pt x="374" y="764" on="1"/>
        <pt x="374" y="148" on="1"/>
        <pt x="1071" y="148" on="1"/>
      </contour>
    </TTGlyph>
    <TTGlyph name="M" xMin="200" yMin="0" xMax="1796" yMax="1456">
      <contour>
        <pt x="370" y="0" on="1"/>
        <pt x="200" y="0" on="1"/>
        <pt x="200" y="1456" on="1"/>
        <pt x="438" y="1456" on="1"/>
        <pt x="913" y="416" on="1"/>
        <pt x="997" y="212" on="1"/>
        <pt x="999" y="212" on="1"/>
        <pt x="1084" y="419" on="1"/>
        <pt x="1562" y="1456" on="1"/>
        <pt x="1796" y="1456" on="1"/>
        <pt x="1796" y="0" on="1"/>
        <pt x="1628" y="0" on="1"/>
        <pt x="1628" y="934" on="1"/>
        <pt x="1628" y="1251" on="1"/>
        <pt x="1577" y="1130" on="1"/>
        <pt x="1060" y="0" on="1"/>
        <pt x="934" y="0" on="1"/>
        <pt x="430" y="1108" on="1"/>
        <pt x="370" y="1268" on="1"/>
        <pt x="370" y="931" on="1"/>
      </contour>
    </TTGlyph>
    <TTGlyph name="N" xMin="193" yMin="0" xMax="1395" yMax="1456">
      <contour>
        <pt x="193" y="0" on="1"/>
        <pt x="193" y="1456" on="1"/>
        <pt x="399" y="1456" on="1"/>
        <pt x="1146" y="342" on="1"/>
        <pt x="1224" y="215" on="1"/>
        <pt x="1224" y="448" on="1"/>
        <pt x="1224" y="1456" on="1"/>
        <pt x="1395" y="1456" on="1"/>
        <pt x="1395" y="0" on="1"/>
        <pt x="1187" y="0" on="1"/>
        <pt x="437" y="1113" on="1"/>
        <pt x="365" y="1237" on="1"/>
        <pt x="365" y="1047" on="1"/>
        <pt x="365" y="0" on="1"/>
      </contour>
    </TTGlyph>
    <TTGlyph name="Ntilde" xMin="193" yMin="0" xMax="1395" yMax="1865">
      <component glyphName="N" x="0" y="0" flags="0x1204"/>
      <component glyphName="tilde" x="461" y="430" flags="0x1004"/>
    </TTGlyph>
    <TTGlyph name="O" xMin="114" yMin="-23" xMax="1544" yMax="1483">
      <contour>
        <pt x="1544" y="726" on="1"/>
        <pt x="1544" y="561" on="0"/>
        <pt x="1447" y="286" on="0"/>
        <pt x="1263" y="87" on="0"/>
        <pt x="997" y="-23" on="0"/>
        <pt x="829" y="-23" on="1"/>
        <pt x="662" y="-23" on="0"/>
        <pt x="397" y="83" on="0"/>
        <pt x="212" y="279" on="0"/>
        <pt x="114" y="557" on="0"/>
        <pt x="114" y="729" on="1"/>
        <pt x="114" y="893" on="0"/>
        <pt x="212" y="1169" on="0"/>
        <pt x="398" y="1370" on="0"/>
        <pt x="666" y="1483" on="0"/>
        <pt x="837" y="1483" on="1"/>
        <pt x="1000" y="1483" on="0"/>
        <pt x="1262" y="1375" on="0"/>
        <pt x="1446" y="1177" on="0"/>
        <pt x="1544" y="898" on="0"/>
      </contour>
      <contour>
        <pt x="298" y="725" on="1"/>
        <pt x="298" y="599" on="0"/>
        <pt x="365" y="380" on="0"/>
        <pt x="498" y="218" on="0"/>
        <pt x="696" y="125" on="0"/>
        <pt x="827" y="125" on="1"/>
        <pt x="959" y="125" on="0"/>
        <pt x="1158" y="218" on="0"/>
        <pt x="1290" y="381" on="0"/>
        <pt x="1356" y="604" on="0"/>
        <pt x="1356" y="734" on="1"/>
        <pt x="1356" y="861" on="0"/>
        <pt x="1291" y="1081" on="0"/>
        <pt x="1159" y="1243" on="0"/>
        <pt x="962" y="1335" on="0"/>
        <pt x="830" y="1335" on="1"/>
        <pt x="699" y="1335" on="0"/>
        <pt x="501" y="1235" on="0"/>
        <pt x="366" y="1067" on="0"/>
        <pt x="298" y="846" on="0"/>
      </contour>
    </TTGlyph>
    <TTGlyph name="OE" xMin="114" yMin="-23" xMax="1984" yMax="1483">
      <contour>
        <pt x="1984" y="0" on="1"/>
        <pt x="1151" y="0" on="1"/>
        <pt x="1151" y="105" on="1"/>
        <pt x="1081" y="43" on="0"/>
        <pt x="920" y="-23" on="0"/>
        <pt x="829" y="-23" on="1"/>
        <pt x="662" y="-23" on="0"/>
        <pt x="397" y="83" on="0"/>
        <pt x="212" y="279" on="0"/>
        <pt x="114" y="557" on="0"/>
        <pt x="114" y="729" on="1"/>
        <pt x="114" y="893" on="0"/>
        <pt x="212" y="1169" on="0"/>
        <pt x="398" y="1370" on="0"/>
        <pt x="666" y="1483" on="0"/>
        <pt x="837" y="1483" on="1"/>
        <pt x="925" y="1483" on="0"/>
        <pt x="1082" y="1430" on="0"/>
        <pt x="1151" y="1381" on="1"/>
        <pt x="1151" y="1456" on="1"/>
        <pt x="1954" y="1456" on="1"/>
        <pt x="1954" y="1308" on="1"/>
        <pt x="1323" y="1308" on="1"/>
        <pt x="1323" y="820" on="1"/>
        <pt x="1916" y="820" on="1"/>
        <pt x="1916" y="672" on="1"/>
        <pt x="1323" y="672" on="1"/>
        <pt x="1323" y="148" on="1"/>
        <pt x="1984" y="148" on="1"/>
      </contour>
      <contour>
        <pt x="827" y="125" on="1"/>
        <pt x="927" y="125" on="0"/>
        <pt x="1088" y="199" on="0"/>
        <pt x="1151" y="265" on="1"/>
        <pt x="1151" y="1219" on="1"/>
        <pt x="1089" y="1274" on="0"/>
        <pt x="930" y="1335" on="0"/>
        <pt x="830" y="1335" on="1"/>
        <pt x="699" y="1335" on="0"/>
        <pt x="501" y="1235" on="0"/>
        <pt x="366" y="1067" on="0"/>
        <pt x="298" y="846" on="0"/>
        <pt x="298" y="725" on="1"/>
        <pt x="298" y="599" on="0"/>
        <pt x="365" y="380" on="0"/>
        <pt x="498" y="218" on="0"/>
        <pt x="696" y="125" on="0"/>
      </contour>
    </TTGlyph>
    <TTGlyph name="Oacute" xMin="114" yMin="-23" xMax="1544" yMax="1922">
      <component glyphName="O" x="0" y="0" flags="0x1204"/>
      <component glyphName="acute" x="437" y="430" flags="0x1004"/>
    </TTGlyph>
    <TTGlyph name="Ocircumflex" xMin="114" yMin="-23" xMax="1544" yMax="1924">
      <component glyphName="O" x="0" y="0" flags="0x1204"/>
      <component glyphName="circumflex" x="489" y="430" flags="0x1004"/>
    </TTGlyph>
    <TTGlyph name="Odieresis" xMin="114" yMin="-23" xMax="1544" yMax="1839">
      <component glyphName="O" x="0" y="0" flags="0x1204"/>
      <component glyphName="dieresis" x="461" y="430" flags="0x1004"/>
    </TTGlyph>
    <TTGlyph name="Ograve" xMin="114" yMin="-23" xMax="1544" yMax="1922">
      <component glyphName="O" x="0" y="0" flags="0x1204"/>
      <component glyphName="grave" x="600" y="430" flags="0x1004"/>
    </TTGlyph>
    <TTGlyph name="Omega" xMin="93" yMin="0" xMax="1483" yMax="1449">
      <contour>
        <pt x="93" y="138" on="1"/>
        <pt x="435" y="137" on="1"/>
        <pt x="364" y="189" on="0"/>
        <pt x="246" y="324" on="0"/>
        <pt x="161" y="485" on="0"/>
        <pt x="114" y="672" on="0"/>
        <pt x="114" y="776" on="1"/>
        <pt x="114" y="930" on="0"/>
        <pt x="219" y="1178" on="0"/>
        <pt x="405" y="1354" on="0"/>
        <pt x="660" y="1449" on="0"/>
        <pt x="809" y="1449" on="1"/>
        <pt x="964" y="1449" on="0"/>
        <pt x="1213" y="1345" on="0"/>
        <pt x="1387" y="1164" on="0"/>
        <pt x="1481" y="916" on="0"/>
        <pt x="1481" y="772" on="1"/>
        <pt x="1481" y="665" on="0"/>
        <pt x="1426" y="478" on="0"/>
        <pt x="1336" y="318" on="0"/>
        <pt x="1218" y="187" on="0"/>
        <pt x="1155" y="137" on="1"/>
        <pt x="1483" y="138" on="1"/>
        <pt x="1474" y="0" on="1"/>
        <pt x="953" y="0" on="1"/>
        <pt x="949" y="121" on="1"/>
        <pt x="1025" y="172" on="0"/>
        <pt x="1155" y="307" on="0"/>
        <pt x="1250" y="468" on="0"/>
        <pt x="1303" y="653" on="0"/>
        <pt x="1303" y="754" on="1"/>
        <pt x="1303" y="865" on="0"/>
        <pt x="1240" y="1066" on="0"/>
        <pt x="1115" y="1219" on="0"/>
        <pt x="928" y="1309" on="0"/>
        <pt x="804" y="1309" on="1"/>
        <pt x="691" y="1309" on="0"/>
        <pt x="503" y="1229" on="0"/>
        <pt x="368" y="1084" on="0"/>
        <pt x="293" y="881" on="0"/>
        <pt x="293" y="759" on="1"/>
        <pt x="293" y="658" on="0"/>
        <pt x="344" y="471" on="0"/>
        <pt x="435" y="308" on="0"/>
        <pt x="564" y="172" on="0"/>
        <pt x="642" y="121" on="1"/>
        <pt x="645" y="0" on="1"/>
        <pt x="104" y="0" on="1"/>
      </contour>
    </TTGlyph>
    <TTGlyph name="Oslash" xMin="114" yMin="-117" xMax="1544" yMax="1549">
      <component glyphName="O" x="0" y="0" flags="0x1204"/>
      <component glyphName="slash" x="489" y="98" flags="0x1004"/>
    </TTGlyph>
    <TTGlyph name="Otilde" xMin="114" yMin="-23" xMax="1544" yMax="1865">
      <component glyphName="O" x="0" y="0" flags="0x1204"/>
      <component glyphName="tilde" x="495" y="430" flags="0x1004"/>
    </TTGlyph>
    <TTGlyph name="P" xMin="203" yMin="0" xMax="1200" yMax="1456">
      <contour>
        <pt x="375" y="0" on="1"/>
        <pt x="203" y="0" on="1"/>
        <pt x="203" y="1456" on="1"/>
        <pt x="544" y="1456" on="1"/>
        <pt x="629" y="1456" on="0"/>
        <pt x="792" y="1441" on="0"/>
        <pt x="938" y="1404" on="0"/>
        <pt x="1061" y="1341" on="0"/>
        <pt x="1150" y="1244" on="0"/>
        <pt x="1200" y="1110" on="0"/>
        <pt x="1200" y="1020" on="1"/>
        <pt x="1200" y="906" on="0"/>
        <pt x="1101" y="742" on="0"/>
        <pt x="934" y="637" on="0"/>
        <pt x="716" y="587" on="0"/>
        <pt x="597" y="587" on="1"/>
        <pt x="375" y="587" on="1"/>
      </contour>
      <contour>
        <pt x="375" y="1308" on="1"/>
        <pt x="375" y="736" on="1"/>
        <pt x="636" y="736" on="1"/>
        <pt x="718" y="736" on="0"/>
        <pt x="858" y="769" on="0"/>
        <pt x="959" y="838" on="0"/>
        <pt x="1016" y="944" on="0"/>
        <pt x="1016" y="1018" on="1"/>
        <pt x="1016" y="1105" on="0"/>
        <pt x="953" y="1218" on="0"/>
        <pt x="840" y="1283" on="0"/>
        <pt x="683" y="1308" on="0"/>
        <pt x="588" y="1308" on="1"/>
      </contour>
    </TTGlyph>
    <TTGlyph name="Q" xMin="119" yMin="-192" xMax="1601" yMax="1483">
      <contour>
        <pt x="298" y="724" on="1"/>
        <pt x="298" y="599" on="0"/>
        <pt x="365" y="381" on="0"/>
        <pt x="498" y="219" on="0"/>
        <pt x="696" y="125" on="0"/>
        <pt x="827" y="125" on="1"/>
        <pt x="959" y="125" on="0"/>
        <pt x="1157" y="218" on="0"/>
        <pt x="1289" y="381" on="0"/>
        <pt x="1355" y="604" on="0"/>
        <pt x="1355" y="734" on="1"/>
        <pt x="1355" y="861" on="0"/>
        <pt x="1290" y="1080" on="0"/>
        <pt x="1159" y="1242" on="0"/>
        <pt x="962" y="1334" on="0"/>
        <pt x="830" y="1334" on="1"/>
        <pt x="699" y="1334" on="0"/>
        <pt x="500" y="1234" on="0"/>
        <pt x="366" y="1066" on="0"/>
        <pt x="298" y="845" on="0"/>
      </contour>
      <contour>
        <pt x="1601" y="-182" on="1"/>
        <pt x="1559" y="-187" on="0"/>
        <pt x="1471" y="-192" on="0"/>
        <pt x="1433" y="-192" on="1"/>
        <pt x="1293" y="-192" on="0"/>
        <pt x="1103" y="-164" on="0"/>
        <pt x="969" y="-116" on="0"/>
        <pt x="874" y="-53" on="0"/>
        <pt x="829" y="-18" on="1"/>
        <pt x="668" y="-18" on="0"/>
        <pt x="406" y="90" on="0"/>
        <pt x="220" y="290" on="0"/>
        <pt x="119" y="573" on="0"/>
        <pt x="119" y="747" on="1"/>
        <pt x="119" y="909" on="0"/>
        <pt x="219" y="1180" on="0"/>
        <pt x="406" y="1375" on="0"/>
        <pt x="672" y="1483" on="0"/>
        <pt x="837" y="1483" on="1"/>
        <pt x="1000" y="1483" on="0"/>
        <pt x="1262" y="1375" on="0"/>
        <pt x="1445" y="1178" on="0"/>
        <pt x="1543" y="904" on="0"/>
        <pt x="1543" y="738" on="1"/>
        <pt x="1543" y="606" on="0"/>
        <pt x="1478" y="362" on="0"/>
        <pt x="1347" y="165" on="0"/>
        <pt x="1153" y="28" on="0"/>
        <pt x="1024" y="2" on="1"/>
        <pt x="1064" y="-14" on="0"/>
        <pt x="1172" y="-33" on="0"/>
        <pt x="1284" y="-42" on="0"/>
        <pt x="1391" y="-44" on="0"/>
        <pt x="1429" y="-44" on="1"/>
        <pt x="1466" y="-44" on="0"/>
        <pt x="1556" y="-35" on="0"/>
        <pt x="1598" y="-28" on="1"/>
      </contour>
    </TTGlyph>
    <TTGlyph name="R" xMin="205" yMin="0" xMax="1287" yMax="1456">
      <contour>
        <pt x="377" y="652" on="1"/>
        <pt x="377" y="0" on="1"/>
        <pt x="205" y="0" on="1"/>
        <pt x="205" y="1456" on="1"/>
        <pt x="561" y="1456" on="1"/>
        <pt x="620" y="1456" on="0"/>
        <pt x="761" y="1452" on="0"/>
        <pt x="903" y="1430" on="0"/>
        <pt x="1035" y="1383" on="0"/>
        <pt x="1138" y="1299" on="0"/>
        <pt x="1199" y="1168" on="0"/>
        <pt x="1199" y="1074" on="1"/>
        <pt x="1199" y="1005" on="0"/>
        <pt x="1155" y="889" on="0"/>
        <pt x="1073" y="797" on="0"/>
        <pt x="958" y="733" on="0"/>
        <pt x="888" y="715" on="1"/>
        <pt x="889" y="715" on="1"/>
        <pt x="950" y="695" on="0"/>
        <pt x="1029" y="617" on="0"/>
        <pt x="1093" y="494" on="0"/>
        <pt x="1155" y="325" on="0"/>
        <pt x="1200" y="214" on="1"/>
        <pt x="1287" y="0" on="1"/>
        <pt x="1099" y="0" on="1"/>
        <pt x="946" y="419" on="1"/>
        <pt x="921" y="487" on="0"/>
        <pt x="872" y="577" on="0"/>
        <pt x="805" y="630" on="0"/>
        <pt x="714" y="652" on="0"/>
        <pt x="647" y="652" on="1"/>
      </contour>
      <contour>
        <pt x="377" y="799" on="1"/>
        <pt x="643" y="799" on="1"/>
        <pt x="710" y="799" on="0"/>
        <pt x="844" y="823" on="0"/>
        <pt x="951" y="881" on="0"/>
        <pt x="1017" y="981" on="0"/>
        <pt x="1017" y="1058" on="1"/>
        <pt x="1017" y="1133" on="0"/>
        <pt x="962" y="1230" on="0"/>
        <pt x="864" y="1286" on="0"/>
        <pt x="732" y="1308" on="0"/>
        <pt x="654" y="1308" on="1"/>
        <pt x="377" y="1308" on="1"/>
      </contour>
    </TTGlyph>
    <TTGlyph name="S" xMin="137" yMin="-23" xMax="1134" yMax="1483">
      <contour>
        <pt x="215" y="271" on="1"/>
        <pt x="248" y="231" on="0"/>
        <pt x="337" y="176" on="0"/>
        <pt x="436" y="141" on="0"/>
        <pt x="541" y="125" on="0"/>
        <pt x="591" y="125" on="1"/>
        <pt x="670" y="125" on="0"/>
        <pt x="802" y="156" on="0"/>
        <pt x="897" y="217" on="0"/>
        <pt x="950" y="306" on="0"/>
        <pt x="950" y="365" on="1"/>
        <pt x="950" y="431" on="0"/>
        <pt x="880" y="524" on="0"/>
        <pt x="767" y="596" on="0"/>
        <pt x="621" y="653" on="0"/>
        <pt x="470" y="713" on="0"/>
        <pt x="324" y="782" on="0"/>
        <pt x="211" y="877" on="0"/>
        <pt x="141" y="1006" on="0"/>
        <pt x="141" y="1095" on="1"/>
        <pt x="141" y="1191" on="0"/>
        <pt x="231" y="1336" on="0"/>
        <pt x="379" y="1433" on="0"/>
        <pt x="567" y="1483" on="0"/>
        <pt x="666" y="1483" on="1"/>
        <pt x="723" y="1483" on="0"/>
        <pt x="843" y="1469" on="0"/>
        <pt x="954" y="1433" on="0"/>
        <pt x="1049" y="1374" on="0"/>
        <pt x="1081" y="1329" on="1"/>
        <pt x="998" y="1217" on="1"/>
        <pt x="968" y="1250" on="0"/>
        <pt x="891" y="1295" on="0"/>
        <pt x="804" y="1322" on="0"/>
        <pt x="712" y="1334" on="0"/>
        <pt x="667" y="1334" on="1"/>
        <pt x="606" y="1334" on="0"/>
        <pt x="484" y="1309" on="0"/>
        <pt x="386" y="1254" on="0"/>
        <pt x="324" y="1167" on="0"/>
        <pt x="324" y="1105" on="1"/>
        <pt x="324" y="1041" on="0"/>
        <pt x="394" y="948" on="0"/>
        <pt x="508" y="876" on="0"/>
        <pt x="653" y="816" on="0"/>
        <pt x="805" y="754" on="0"/>
        <pt x="950" y="682" on="0"/>
        <pt x="1064" y="584" on="0"/>
        <pt x="1134" y="453" on="0"/>
        <pt x="1134" y="364" on="1"/>
        <pt x="1134" y="293" on="0"/>
        <pt x="1088" y="180" on="0"/>
        <pt x="1008" y="94" on="0"/>
        <pt x="900" y="33" on="0"/>
        <pt x="775" y="-5" on="0"/>
        <pt x="639" y="-23" on="0"/>
        <pt x="572" y="-23" on="1"/>
        <pt x="499" y="-23" on="0"/>
        <pt x="367" y="3" on="0"/>
        <pt x="255" y="51" on="0"/>
        <pt x="166" y="119" on="0"/>
        <pt x="137" y="161" on="1"/>
      </contour>
    </TTGlyph>
    <TTGlyph name="Scaron" xMin="137" yMin="-23" xMax="1134" yMax="1923">
      <component glyphName="S" x="0" y="0" flags="0x1204"/>
      <component glyphName="caron" x="276" y="430" flags="0x1004"/>
    </TTGlyph>
    <TTGlyph name="T" xMin="32" yMin="0" xMax="1145" yMax="1456">
      <contour>
        <pt x="501" y="0" on="1"/>
        <pt x="501" y="1308" on="1"/>
        <pt x="32" y="1308" on="1"/>
        <pt x="32" y="1456" on="1"/>
        <pt x="1145" y="1456" on="1"/>
        <pt x="1145" y="1308" on="1"/>
        <pt x="673" y="1308" on="1"/>
        <pt x="673" y="0" on="1"/>
      </contour>
    </TTGlyph>
    <TTGlyph name="Thorn" xMin="203" yMin="0" xMax="1200" yMax="1456">
      <contour>
        <pt x="375" y="0" on="1"/>
        <pt x="203" y="0" on="1"/>
        <pt x="203" y="1456" on="1"/>
        <pt x="375" y="1456" on="1"/>
        <pt x="375" y="1312" on="1"/>
        <pt x="544" y="1312" on="1"/>
        <pt x="629" y="1312" on="0"/>
        <pt x="792" y="1297" on="0"/>
        <pt x="938" y="1260" on="0"/>
        <pt x="1061" y="1197" on="0"/>
        <pt x="1150" y="1100" on="0"/>
        <pt x="1200" y="966" on="0"/>
        <pt x="1200" y="876" on="1"/>
        <pt x="1200" y="762" on="0"/>
        <pt x="1101" y="598" on="0"/>
        <pt x="934" y="493" on="0"/>
        <pt x="716" y="443" on="0"/>
        <pt x="597" y="443" on="1"/>
        <pt x="375" y="443" on="1"/>
      </contour>
      <contour>
        <pt x="375" y="1164" on="1"/>
        <pt x="375" y="592" on="1"/>
        <pt x="636" y="592" on="1"/>
        <pt x="718" y="592" on="0"/>
        <pt x="858" y="625" on="0"/>
        <pt x="959" y="694" on="0"/>
        <pt x="1016" y="800" on="0"/>
        <pt x="1016" y="874" on="1"/>
        <pt x="1016" y="961" on="0"/>
        <pt x="953" y="1074" on="0"/>
        <pt x="840" y="1139" on="0"/>
        <pt x="683" y="1164" on="0"/>
        <pt x="588" y="1164" on="1"/>
      </contour>
    </TTGlyph>
    <TTGlyph name="U" xMin="191" yMin="-23" xMax="1337" yMax="1456">
      <contour>
        <pt x="191" y="1456" on="1"/>
        <pt x="363" y="1456" on="1"/>
        <pt x="363" y="546" on="1"/>
        <pt x="363" y="342" on="0"/>
        <pt x="565" y="125" on="0"/>
        <pt x="763" y="125" on="1"/>
        <pt x="854" y="125" on="0"/>
        <pt x="1003" y="182" on="0"/>
        <pt x="1108" y="289" on="0"/>
        <pt x="1165" y="443" on="0"/>
        <pt x="1165" y="539" on="1"/>
        <pt x="1165" y="1456" on="1"/>
        <pt x="1337" y="1456" on="1"/>
        <pt x="1336" y="551" on="1"/>
        <pt x="1335" y="416" on="0"/>
        <pt x="1262" y="202" on="0"/>
        <pt x="1117" y="55" on="0"/>
        <pt x="900" y="-23" on="0"/>
        <pt x="756" y="-23" on="1"/>
        <pt x="600" y="-23" on="0"/>
        <pt x="384" y="59" on="0"/>
        <pt x="250" y="208" on="0"/>
        <pt x="191" y="416" on="0"/>
        <pt x="191" y="541" on="1"/>
      </contour>
    </TTGlyph>
    <TTGlyph name="Uacute" xMin="191" yMin="-23" xMax="1337" yMax="1922">
      <component glyphName="U" x="0" y="0" flags="0x1204"/>
      <component glyphName="acute" x="372" y="430" flags="0x1004"/>
    </TTGlyph>
    <TTGlyph name="Ucircumflex" xMin="191" yMin="-23" xMax="1337" yMax="1924">
      <component glyphName="U" x="0" y="0" flags="0x1204"/>
      <component glyphName="circumflex" x="424" y="430" flags="0x1004"/>
    </TTGlyph>
    <TTGlyph name="Udieresis" xMin="191" yMin="-23" xMax="1337" yMax="1839">
      <component glyphName="U" x="0" y="0" flags="0x1204"/>
      <component glyphName="dieresis" x="396" y="430" flags="0x1004"/>
    </TTGlyph>
    <TTGlyph name="Ugrave" xMin="191" yMin="-23" xMax="1337" yMax="1922">
      <component glyphName="U" x="0" y="0" flags="0x1204"/>
      <component glyphName="grave" x="534" y="430" flags="0x1004"/>
    </TTGlyph>
    <TTGlyph name="V" xMin="9" yMin="0" xMax="1324" yMax="1456">
      <contour>
        <pt x="201" y="1456" on="1"/>
        <pt x="624" y="307" on="1"/>
        <pt x="670" y="166" on="1"/>
        <pt x="718" y="308" on="1"/>
        <pt x="1145" y="1456" on="1"/>
        <pt x="1324" y="1456" on="1"/>
        <pt x="759" y="0" on="1"/>
        <pt x="570" y="0" on="1"/>
        <pt x="9" y="1456" on="1"/>
      </contour>
    </TTGlyph>
    <TTGlyph name="W" xMin="21" yMin="0" xMax="2080" yMax="1456">
      <contour>
        <pt x="1115" y="1026" on="1"/>
        <pt x="1052" y="1247" on="1"/>
        <pt x="983" y="1026" on="1"/>
        <pt x="657" y="0" on="1"/>
        <pt x="444" y="0" on="1"/>
        <pt x="21" y="1456" on="1"/>
        <pt x="207" y="1456" on="1"/>
        <pt x="517" y="349" on="1"/>
        <pt x="555" y="189" on="1"/>
        <pt x="599" y="334" on="1"/>
        <pt x="967" y="1456" on="1"/>
        <pt x="1148" y="1456" on="1"/>
        <pt x="1507" y="345" on="1"/>
        <pt x="1553" y="190" on="1"/>
        <pt x="1589" y="332" on="1"/>
        <pt x="1900" y="1456" on="1"/>
        <pt x="2080" y="1456" on="1"/>
        <pt x="1657" y="0" on="1"/>
        <pt x="1445" y="0" on="1"/>
      </contour>
    </TTGlyph>
    <TTGlyph name="X" xMin="11" yMin="0" xMax="1285" yMax="1456">
      <contour>
        <pt x="584" y="537" on="1"/>
        <pt x="215" y="0" on="1"/>
        <pt x="11" y="0" on="1"/>
        <pt x="548" y="741" on="1"/>
        <pt x="47" y="1456" on="1"/>
        <pt x="263" y="1456" on="1"/>
        <pt x="592" y="959" on="1"/>
        <pt x="662" y="854" on="1"/>
        <pt x="734" y="959" on="1"/>
        <pt x="1079" y="1456" on="1"/>
        <pt x="1275" y="1456" on="1"/>
        <pt x="764" y="742" on="1"/>
        <pt x="1285" y="0" on="1"/>
        <pt x="1072" y="0" on="1"/>
        <pt x="710" y="538" on="1"/>
        <pt x="646" y="630" on="1"/>
      </contour>
    </TTGlyph>
    <TTGlyph name="Y" xMin="10" yMin="0" xMax="1258" yMax="1456">
      <contour>
        <pt x="543" y="0" on="1"/>
        <pt x="543" y="582" on="1"/>
        <pt x="10" y="1456" on="1"/>
        <pt x="201" y="1456" on="1"/>
        <pt x="632" y="727" on="1"/>
        <pt x="1067" y="1456" on="1"/>
        <pt x="1258" y="1456" on="1"/>
        <pt x="715" y="585" on="1"/>
        <pt x="715" y="0" on="1"/>
      </contour>
    </TTGlyph>
    <TTGlyph name="Yacute" xMin="10" yMin="0" xMax="1258" yMax="1922">
      <component glyphName="Y" x="0" y="0" flags="0x1204"/>
      <component glyphName="acute" x="239" y="430" flags="0x1004"/>
    </TTGlyph>
    <TTGlyph name="Ydieresis" xMin="10" yMin="0" xMax="1258" yMax="1839">
      <component glyphName="Y" x="0" y="0" flags="0x1204"/>
      <component glyphName="dieresis" x="284" y="430" flags="0x1004"/>
    </TTGlyph>
    <TTGlyph name="Z" xMin="58" yMin="0" xMax="1154" yMax="1456">
      <contour>
        <pt x="1146" y="0" on="1"/>
        <pt x="58" y="0" on="1"/>
        <pt x="58" y="92" on="1"/>
        <pt x="922" y="1308" on="1"/>
        <pt x="90" y="1308" on="1"/>
        <pt x="90" y="1456" on="1"/>
        <pt x="1154" y="1456" on="1"/>
        <pt x="1154" y="1368" on="1"/>
        <pt x="286" y="148" on="1"/>
        <pt x="1146" y="148" on="1"/>
      </contour>
    </TTGlyph>
    <TTGlyph name="Zcaron" xMin="58" yMin="0" xMax="1154" yMax="1923">
      <component glyphName="Z" x="0" y="0" flags="0x1204"/>
      <component glyphName="caron" x="265" y="430" flags="0x1004"/>
    </TTGlyph>
    <TTGlyph name="a" xMin="89" yMin="-23" xMax="1112" yMax="1051">
      <contour>
        <pt x="582" y="1051" on="1"/>
        <pt x="645" y="1051" on="0"/>
        <pt x="749" y="1028" on="0"/>
        <pt x="837" y="986" on="0"/>
        <pt x="911" y="924" on="0"/>
        <pt x="943" y="885" on="1"/>
        <pt x="949" y="1026" on="1"/>
        <pt x="1112" y="1026" on="1"/>
        <pt x="1108" y="773" on="1"/>
        <pt x="1108" y="0" on="1"/>
        <pt x="943" y="0" on="1"/>
        <pt x="945" y="144" on="1"/>
        <pt x="921" y="112" on="0"/>
        <pt x="848" y="51" on="0"/>
        <pt x="756" y="5" on="0"/>
        <pt x="645" y="-23" on="0"/>
        <pt x="584" y="-23" on="1"/>
        <pt x="498" y="-23" on="0"/>
        <pt x="358" y="22" on="0"/>
        <pt x="248" y="101" on="0"/>
        <pt x="167" y="207" on="0"/>
        <pt x="115" y="329" on="0"/>
        <pt x="89" y="460" on="0"/>
        <pt x="89" y="524" on="1"/>
        <pt x="89" y="623" on="0"/>
        <pt x="150" y="813" on="0"/>
        <pt x="273" y="961" on="0"/>
        <pt x="458" y="1051" on="0"/>
      </contour>
      <contour>
        <pt x="601" y="109" on="1"/>
        <pt x="671" y="109" on="0"/>
        <pt x="794" y="166" on="0"/>
        <pt x="887" y="277" on="0"/>
        <pt x="942" y="442" on="0"/>
        <pt x="943" y="550" on="1"/>
        <pt x="943" y="631" on="0"/>
        <pt x="894" y="765" on="0"/>
        <pt x="804" y="863" on="0"/>
        <pt x="675" y="917" on="0"/>
        <pt x="595" y="917" on="1"/>
        <pt x="534" y="917" on="0"/>
        <pt x="436" y="884" on="0"/>
        <pt x="360" y="826" on="0"/>
        <pt x="304" y="748" on="0"/>
        <pt x="268" y="659" on="0"/>
        <pt x="251" y="563" on="0"/>
        <pt x="251" y="516" on="1"/>
        <pt x="251" y="470" on="0"/>
        <pt x="264" y="373" on="0"/>
        <pt x="294" y="283" on="0"/>
        <pt x="346" y="203" on="0"/>
        <pt x="423" y="144" on="0"/>
        <pt x="530" y="109" on="0"/>
      </contour>
    </TTGlyph>
    <TTGlyph name="aacute" xMin="89" yMin="-23" xMax="1112" yMax="1492">
      <component glyphName="a" x="0" y="0" flags="0x1204"/>
      <component glyphName="acute" x="228" y="0" flags="0x1004"/>
    </TTGlyph>
    <TTGlyph name="acircumflex" xMin="89" yMin="-23" xMax="1112" yMax="1494">
      <component glyphName="a" x="0" y="0" flags="0x1204"/>
      <component glyphName="circumflex" x="280" y="0" flags="0x1004"/>
    </TTGlyph>
    <TTGlyph name="acute" xMin="175" yMin="1172" xMax="613" yMax="1492">
      <contour>
        <pt x="401" y="1492" on="1"/>
        <pt x="613" y="1492" on="1"/>
        <pt x="305" y="1172" on="1"/>
        <pt x="175" y="1172" on="1"/>
      </contour>
    </TTGlyph>
    <TTGlyph name="adieresis" xMin="89" yMin="-23" xMax="1112" yMax="1409">
      <component glyphName="a" x="0" y="0" flags="0x1204"/>
      <component glyphName="dieresis" x="252" y="0" flags="0x1004"/>
    </TTGlyph>
    <TTGlyph name="ae" xMin="142" yMin="-26" xMax="1786" yMax="1052">
      <contour>
        <pt x="1786" y="117" on="1"/>
        <pt x="1617" y="-25" on="0"/>
        <pt x="1371" y="-23" on="1"/>
        <pt x="1216" y="-25" on="0"/>
        <pt x="1016" y="90" on="0"/>
        <pt x="949" y="206" on="1"/>
        <pt x="916" y="133" on="0"/>
        <pt x="825" y="50" on="0"/>
        <pt x="711" y="-1" on="0"/>
        <pt x="574" y="-24" on="0"/>
        <pt x="495" y="-26" on="1"/>
        <pt x="417" y="-26" on="0"/>
        <pt x="288" y="17" on="0"/>
        <pt x="194" y="98" on="0"/>
        <pt x="142" y="214" on="0"/>
        <pt x="142" y="287" on="1"/>
        <pt x="142" y="360" on="0"/>
        <pt x="195" y="472" on="0"/>
        <pt x="292" y="550" on="0"/>
        <pt x="428" y="595" on="0"/>
        <pt x="512" y="602" on="1"/>
        <pt x="599" y="610" on="0"/>
        <pt x="777" y="618" on="0"/>
        <pt x="869" y="620" on="1"/>
        <pt x="868" y="641" on="1"/>
        <pt x="861" y="696" on="0"/>
        <pt x="829" y="795" on="0"/>
        <pt x="767" y="870" on="0"/>
        <pt x="669" y="915" on="0"/>
        <pt x="596" y="915" on="1"/>
        <pt x="549" y="915" on="0"/>
        <pt x="460" y="899" on="0"/>
        <pt x="382" y="865" on="0"/>
        <pt x="317" y="808" on="0"/>
        <pt x="294" y="768" on="1"/>
        <pt x="197" y="862" on="1"/>
        <pt x="227" y="913" on="0"/>
        <pt x="311" y="985" on="0"/>
        <pt x="416" y="1031" on="0"/>
        <pt x="538" y="1052" on="0"/>
        <pt x="607" y="1052" on="1"/>
        <pt x="670" y="1050" on="0"/>
        <pt x="784" y="1024" on="0"/>
        <pt x="878" y="971" on="0"/>
        <pt x="947" y="892" on="0"/>
        <pt x="965" y="838" on="1"/>
        <pt x="996" y="895" on="0"/>
        <pt x="1079" y="976" on="0"/>
        <pt x="1178" y="1028" on="0"/>
        <pt x="1287" y="1052" on="0"/>
        <pt x="1343" y="1052" on="1"/>
        <pt x="1456" y="1052" on="0"/>
        <pt x="1622" y="971" on="0"/>
        <pt x="1732" y="831" on="0"/>
        <pt x="1785" y="646" on="0"/>
        <pt x="1785" y="543" on="1"/>
        <pt x="1785" y="536" on="0"/>
        <pt x="1784" y="505" on="0"/>
        <pt x="1782" y="489" on="1"/>
        <pt x="1034" y="489" on="1"/>
        <pt x="1034" y="468" on="1"/>
        <pt x="1034" y="387" on="0"/>
        <pt x="1071" y="268" on="0"/>
        <pt x="1150" y="166" on="0"/>
        <pt x="1295" y="110" on="0"/>
        <pt x="1376" y="109" on="1"/>
        <pt x="1494" y="110" on="0"/>
        <pt x="1657" y="188" on="0"/>
        <pt x="1732" y="254" on="1"/>
      </contour>
      <contour>
        <pt x="870" y="479" on="1"/>
        <pt x="832" y="479" on="0"/>
        <pt x="758" y="477" on="0"/>
        <pt x="720" y="477" on="1"/>
        <pt x="639" y="475" on="0"/>
        <pt x="489" y="462" on="0"/>
        <pt x="372" y="423" on="0"/>
        <pt x="302" y="351" on="0"/>
        <pt x="302" y="291" on="1"/>
        <pt x="302" y="243" on="0"/>
        <pt x="340" y="174" on="0"/>
        <pt x="404" y="131" on="0"/>
        <pt x="486" y="111" on="0"/>
        <pt x="531" y="111" on="1"/>
        <pt x="628" y="111" on="0"/>
        <pt x="759" y="171" on="0"/>
        <pt x="837" y="272" on="0"/>
        <pt x="870" y="404" on="0"/>
        <pt x="870" y="476" on="1"/>
      </contour>
      <contour>
        <pt x="1629" y="608" on="1"/>
        <pt x="1630" y="609" on="0"/>
        <pt x="1630" y="610" on="1"/>
        <pt x="1630" y="677" on="0"/>
        <pt x="1593" y="784" on="0"/>
        <pt x="1520" y="866" on="0"/>
        <pt x="1413" y="915" on="0"/>
        <pt x="1343" y="915" on="1"/>
        <pt x="1271" y="915" on="0"/>
        <pt x="1159" y="867" on="0"/>
        <pt x="1081" y="785" on="0"/>
        <pt x="1037" y="677" on="0"/>
        <pt x="1033" y="607" on="1"/>
      </contour>
    </TTGlyph>
    <TTGlyph name="agrave" xMin="89" yMin="-23" xMax="1112" yMax="1492">
      <component glyphName="a" x="0" y="0" flags="0x1204"/>
      <component glyphName="grave" x="390" y="0" flags="0x1004"/>
    </TTGlyph>
    <TTGlyph name="ampersand" xMin="115" yMin="-27" xMax="1618" yMax="1473">
      <contour>
        <pt x="115" y="402" on="1"/>
        <pt x="115" y="486" on="0"/>
        <pt x="180" y="618" on="0"/>
        <pt x="286" y="726" on="0"/>
        <pt x="422" y="814" on="0"/>
        <pt x="494" y="852" on="1"/>
        <pt x="479" y="867" on="1"/>
        <pt x="446" y="900" on="0"/>
        <pt x="381" y="968" on="0"/>
        <pt x="330" y="1043" on="0"/>
        <pt x="299" y="1130" on="0"/>
        <pt x="299" y="1182" on="1"/>
        <pt x="299" y="1254" on="0"/>
        <pt x="356" y="1363" on="0"/>
        <pt x="455" y="1436" on="0"/>
        <pt x="586" y="1473" on="0"/>
        <pt x="661" y="1473" on="1"/>
        <pt x="731" y="1473" on="0"/>
        <pt x="866" y="1439" on="0"/>
        <pt x="971" y="1368" on="0"/>
        <pt x="1036" y="1261" on="0"/>
        <pt x="1036" y="1188" on="1"/>
        <pt x="1036" y="1128" on="0"/>
        <pt x="985" y="1023" on="0"/>
        <pt x="900" y="932" on="0"/>
        <pt x="789" y="854" on="0"/>
        <pt x="729" y="822" on="1"/>
        <pt x="1139" y="409" on="1"/>
        <pt x="1173" y="461" on="0"/>
        <pt x="1229" y="589" on="0"/>
        <pt x="1269" y="726" on="0"/>
        <pt x="1291" y="868" on="0"/>
        <pt x="1291" y="935" on="1"/>
        <pt x="1291" y="973" on="0"/>
        <pt x="1285" y="1017" on="0"/>
        <pt x="1283" y="1032" on="1"/>
        <pt x="1456" y="1032" on="1"/>
        <pt x="1463" y="938" on="0"/>
        <pt x="1442" y="740" on="0"/>
        <pt x="1390" y="548" on="0"/>
        <pt x="1309" y="370" on="0"/>
        <pt x="1255" y="295" on="1"/>
        <pt x="1300" y="249" on="0"/>
        <pt x="1377" y="182" on="0"/>
        <pt x="1459" y="133" on="0"/>
        <pt x="1555" y="99" on="0"/>
        <pt x="1618" y="86" on="1"/>
        <pt x="1486" y="-12" on="1"/>
        <pt x="1439" y="-5" on="0"/>
        <pt x="1362" y="26" on="0"/>
        <pt x="1288" y="75" on="0"/>
        <pt x="1212" y="142" on="0"/>
        <pt x="1166" y="186" on="1"/>
        <pt x="1121" y="142" on="0"/>
        <pt x="1015" y="64" on="0"/>
        <pt x="890" y="6" on="0"/>
        <pt x="745" y="-27" on="0"/>
        <pt x="661" y="-27" on="1"/>
        <pt x="544" y="-27" on="0"/>
        <pt x="345" y="31" on="0"/>
        <pt x="198" y="141" on="0"/>
        <pt x="115" y="300" on="0"/>
      </contour>
      <contour>
        <pt x="1058" y="291" on="1"/>
        <pt x="1056" y="292" on="0"/>
        <pt x="1015" y="332" on="0"/>
        <pt x="949" y="398" on="0"/>
        <pt x="866" y="480" on="0"/>
        <pt x="823" y="523" on="1"/>
        <pt x="594" y="750" on="1"/>
        <pt x="537" y="721" on="0"/>
        <pt x="429" y="655" on="0"/>
        <pt x="345" y="573" on="0"/>
        <pt x="295" y="470" on="0"/>
        <pt x="295" y="406" on="1"/>
        <pt x="295" y="343" on="0"/>
        <pt x="349" y="237" on="0"/>
        <pt x="445" y="160" on="0"/>
        <pt x="578" y="116" on="0"/>
        <pt x="658" y="116" on="1"/>
        <pt x="726" y="116" on="0"/>
        <pt x="840" y="143" on="0"/>
        <pt x="937" y="190" on="0"/>
        <pt x="1020" y="254" on="0"/>
      </contour>
      <contour>
        <pt x="625" y="918" on="1"/>
        <pt x="670" y="942" on="0"/>
        <pt x="757" y="998" on="0"/>
        <pt x="824" y="1062" on="0"/>
        <pt x="865" y="1135" on="0"/>
        <pt x="865" y="1178" on="1"/>
        <pt x="865" y="1221" on="0"/>
        <pt x="830" y="1283" on="0"/>
        <pt x="774" y="1322" on="0"/>
        <pt x="704" y="1340" on="0"/>
        <pt x="669" y="1340" on="1"/>
        <pt x="628" y="1340" on="0"/>
        <pt x="557" y="1320" on="0"/>
        <pt x="503" y="1279" on="0"/>
        <pt x="472" y="1218" on="0"/>
        <pt x="472" y="1178" on="1"/>
        <pt x="472" y="1140" on="0"/>
        <pt x="494" y="1072" on="0"/>
        <pt x="535" y="1009" on="0"/>
        <pt x="591" y="949" on="0"/>
      </contour>
    </TTGlyph>
    <TTGlyph name="approxequal" xMin="152" yMin="261" xMax="1187" yMax="918">
      <contour>
        <pt x="1187" y="518" on="1"/>
        <pt x="1174" y="461" on="0"/>
        <pt x="1127" y="366" on="0"/>
        <pt x="1055" y="299" on="0"/>
        <pt x="959" y="262" on="0"/>
        <pt x="898" y="262" on="1"/>
        <pt x="838" y="262" on="0"/>
        <pt x="713" y="311" on="0"/>
        <pt x="631" y="359" on="1"/>
        <pt x="580" y="388" on="0"/>
        <pt x="491" y="426" on="0"/>
        <pt x="449" y="426" on="1"/>
        <pt x="376" y="426" on="0"/>
        <pt x="290" y="336" on="0"/>
        <pt x="268" y="261" on="1"/>
        <pt x="154" y="289" on="1"/>
        <pt x="183" y="409" on="0"/>
        <pt x="337" y="546" on="0"/>
        <pt x="452" y="546" on="1"/>
        <pt x="497" y="546" on="0"/>
        <pt x="582" y="521" on="0"/>
        <pt x="664" y="485" on="0"/>
        <pt x="740" y="441" on="0"/>
        <pt x="810" y="405" on="0"/>
        <pt x="875" y="380" on="0"/>
        <pt x="904" y="380" on="1"/>
        <pt x="967" y="380" on="0"/>
        <pt x="1048" y="467" on="0"/>
        <pt x="1077" y="546" on="1"/>
      </contour>
      <contour>
        <pt x="1185" y="890" on="1"/>
        <pt x="1173" y="832" on="0"/>
        <pt x="1125" y="738" on="0"/>
        <pt x="1053" y="671" on="0"/>
        <pt x="957" y="634" on="0"/>
        <pt x="896" y="634" on="1"/>
        <pt x="864" y="634" on="0"/>
        <pt x="803" y="646" on="0"/>
        <pt x="739" y="671" on="0"/>
        <pt x="668" y="707" on="0"/>
        <pt x="627" y="731" on="1"/>
        <pt x="576" y="760" on="0"/>
        <pt x="488" y="799" on="0"/>
        <pt x="446" y="799" on="1"/>
        <pt x="374" y="799" on="0"/>
        <pt x="289" y="709" on="0"/>
        <pt x="267" y="634" on="1"/>
        <pt x="152" y="661" on="1"/>
        <pt x="179" y="780" on="0"/>
        <pt x="334" y="917" on="0"/>
        <pt x="450" y="917" on="1"/>
        <pt x="514" y="917" on="0"/>
        <pt x="631" y="870" on="0"/>
        <pt x="700" y="830" on="1"/>
        <pt x="766" y="791" on="0"/>
        <pt x="863" y="752" on="0"/>
        <pt x="902" y="752" on="1"/>
        <pt x="965" y="752" on="0"/>
        <pt x="1047" y="837" on="0"/>
        <pt x="1075" y="918" on="1"/>
      </contour>
    </TTGlyph>
    <TTGlyph name="aring" xMin="89" yMin="-23" xMax="1112" yMax="1530">
      <component glyphName="a" x="0" y="0" flags="0x1204"/>
      <component glyphName="ring" x="322" y="0" flags="0x1004"/>
    </TTGlyph>
    <TTGlyph name="asciicircum" xMin="184" yMin="550" xMax="1255" yMax="1432">
      <contour>
        <pt x="184" y="550" on="1"/>
        <pt x="665" y="1432" on="1"/>
        <pt x="766" y="1432" on="1"/>
        <pt x="1255" y="550" on="1"/>
        <pt x="1100" y="550" on="1"/>
        <pt x="757" y="1175" on="1"/>
        <pt x="714" y="1260" on="1"/>
        <pt x="675" y="1176" on="1"/>
        <pt x="340" y="550" on="1"/>
      </contour>
    </TTGlyph>
    <TTGlyph name="asciitilde" xMin="189" yMin="385" xMax="1256" yMax="723">
      <contour>
        <pt x="491" y="705" on="1"/>
        <pt x="529" y="705" on="0"/>
        <pt x="614" y="681" on="0"/>
        <pt x="702" y="646" on="0"/>
        <pt x="788" y="604" on="0"/>
        <pt x="867" y="569" on="0"/>
        <pt x="933" y="545" on="0"/>
        <pt x="957" y="545" on="1"/>
        <pt x="990" y="545" on="0"/>
        <pt x="1046" y="575" on="0"/>
        <pt x="1091" y="625" on="0"/>
        <pt x="1123" y="689" on="0"/>
        <pt x="1131" y="723" on="1"/>
        <pt x="1256" y="684" on="1"/>
        <pt x="1242" y="624" on="0"/>
        <pt x="1190" y="524" on="0"/>
        <pt x="1114" y="451" on="0"/>
        <pt x="1015" y="410" on="0"/>
        <pt x="956" y="410" on="1"/>
        <pt x="926" y="410" on="0"/>
        <pt x="851" y="434" on="0"/>
        <pt x="770" y="470" on="0"/>
        <pt x="684" y="511" on="0"/>
        <pt x="602" y="547" on="0"/>
        <pt x="525" y="571" on="0"/>
        <pt x="494" y="571" on="1"/>
        <pt x="455" y="571" on="0"/>
        <pt x="393" y="539" on="0"/>
        <pt x="345" y="487" on="0"/>
        <pt x="312" y="420" on="0"/>
        <pt x="304" y="385" on="1"/>
        <pt x="189" y="440" on="1"/>
        <pt x="200" y="492" on="0"/>
        <pt x="250" y="587" on="0"/>
        <pt x="326" y="661" on="0"/>
        <pt x="428" y="705" on="0"/>
      </contour>
    </TTGlyph>
    <TTGlyph name="asterisk" xMin="175" yMin="737" xMax="880" yMax="1451">
      <contour>
        <pt x="581" y="1153" on="1"/>
        <pt x="816" y="1274" on="1"/>
        <pt x="880" y="1149" on="1"/>
        <pt x="617" y="1061" on="1"/>
        <pt x="818" y="810" on="1"/>
        <pt x="692" y="737" on="1"/>
        <pt x="534" y="1003" on="1"/>
        <pt x="381" y="745" on="1"/>
        <pt x="257" y="820" on="1"/>
        <pt x="448" y="1058" on="1"/>
        <pt x="175" y="1136" on="1"/>
        <pt x="196" y="1271" on="1"/>
        <pt x="480" y="1148" on="1"/>
        <pt x="470" y="1223" on="0"/>
        <pt x="449" y="1376" on="0"/>
        <pt x="439" y="1451" on="1"/>
        <pt x="588" y="1451" on="1"/>
      </contour>
    </TTGlyph>
    <TTGlyph name="at" xMin="130" yMin="-109" xMax="1760" yMax="1476">
      <contour>
        <pt x="1225" y="1107" on="1"/>
        <pt x="1371" y="1107" on="1"/>
        <pt x="1314" y="857" on="1"/>
        <pt x="1274" y="684" on="0"/>
        <pt x="1225" y="478" on="0"/>
        <pt x="1226" y="434" on="1"/>
        <pt x="1226" y="397" on="0"/>
        <pt x="1263" y="350" on="0"/>
        <pt x="1309" y="350" on="1"/>
        <pt x="1368" y="350" on="0"/>
        <pt x="1476" y="424" on="0"/>
        <pt x="1558" y="547" on="0"/>
        <pt x="1607" y="709" on="0"/>
        <pt x="1607" y="796" on="1"/>
        <pt x="1607" y="919" on="0"/>
        <pt x="1512" y="1125" on="0"/>
        <pt x="1343" y="1274" on="0"/>
        <pt x="1107" y="1357" on="0"/>
        <pt x="966" y="1357" on="1"/>
        <pt x="818" y="1357" on="0"/>
        <pt x="567" y="1250" on="0"/>
        <pt x="384" y="1065" on="0"/>
        <pt x="281" y="817" on="0"/>
        <pt x="281" y="677" on="1"/>
        <pt x="281" y="535" on="0"/>
        <pt x="380" y="292" on="0"/>
        <pt x="562" y="113" on="0"/>
        <pt x="816" y="12" on="0"/>
        <pt x="972" y="12" on="1"/>
        <pt x="1119" y="12" on="0"/>
        <pt x="1384" y="104" on="0"/>
        <pt x="1486" y="192" on="1"/>
        <pt x="1566" y="122" on="1"/>
        <pt x="1516" y="68" on="0"/>
        <pt x="1383" y="-17" on="0"/>
        <pt x="1229" y="-77" on="0"/>
        <pt x="1057" y="-109" on="0"/>
        <pt x="967" y="-109" on="1"/>
        <pt x="785" y="-109" on="0"/>
        <pt x="478" y="11" on="0"/>
        <pt x="255" y="222" on="0"/>
        <pt x="130" y="510" on="0"/>
        <pt x="130" y="679" on="1"/>
        <pt x="130" y="791" on="0"/>
        <pt x="189" y="997" on="0"/>
        <pt x="298" y="1174" on="0"/>
        <pt x="451" y="1318" on="0"/>
        <pt x="638" y="1420" on="0"/>
        <pt x="853" y="1476" on="0"/>
        <pt x="971" y="1476" on="1"/>
        <pt x="1081" y="1476" on="0"/>
        <pt x="1284" y="1430" on="0"/>
        <pt x="1459" y="1344" on="0"/>
        <pt x="1603" y="1222" on="0"/>
        <pt x="1704" y="1070" on="0"/>
        <pt x="1760" y="891" on="0"/>
        <pt x="1760" y="791" on="1"/>
        <pt x="1760" y="672" on="0"/>
        <pt x="1678" y="466" on="0"/>
        <pt x="1545" y="313" on="0"/>
        <pt x="1375" y="225" on="0"/>
        <pt x="1288" y="225" on="1"/>
        <pt x="1200" y="225" on="0"/>
        <pt x="1086" y="299" on="0"/>
        <pt x="1071" y="384" on="1"/>
        <pt x="1019" y="320" on="0"/>
        <pt x="886" y="257" on="0"/>
        <pt x="814" y="257" on="1"/>
        <pt x="754" y="257" on="0"/>
        <pt x="640" y="302" on="0"/>
        <pt x="552" y="391" on="0"/>
        <pt x="498" y="523" on="0"/>
        <pt x="498" y="610" on="1"/>
        <pt x="498" y="678" on="0"/>
        <pt x="535" y="810" on="0"/>
        <pt x="601" y="927" on="0"/>
        <pt x="691" y="1026" on="0"/>
        <pt x="798" y="1098" on="0"/>
        <pt x="916" y="1138" on="0"/>
        <pt x="978" y="1138" on="1"/>
        <pt x="1056" y="1138" on="0"/>
        <pt x="1177" y="1076" on="0"/>
        <pt x="1207" y="1022" on="1"/>
      </contour>
      <contour>
        <pt x="655" y="582" on="1"/>
        <pt x="655" y="538" on="0"/>
        <pt x="678" y="466" on="0"/>
        <pt x="723" y="414" on="0"/>
        <pt x="789" y="385" on="0"/>
        <pt x="831" y="385" on="1"/>
        <pt x="897" y="385" on="0"/>
        <pt x="1011" y="460" on="0"/>
        <pt x="1094" y="583" on="0"/>
        <pt x="1141" y="739" on="0"/>
        <pt x="1141" y="821" on="1"/>
        <pt x="1141" y="863" on="0"/>
        <pt x="1124" y="932" on="0"/>
        <pt x="1085" y="981" on="0"/>
        <pt x="1024" y="1007" on="0"/>
        <pt x="980" y="1007" on="1"/>
        <pt x="909" y="1007" on="0"/>
        <pt x="789" y="928" on="0"/>
        <pt x="703" y="804" on="0"/>
        <pt x="655" y="654" on="0"/>
      </contour>
    </TTGlyph>
    <TTGlyph name="atilde" xMin="89" yMin="-23" xMax="1112" yMax="1435">
      <component glyphName="a" x="0" y="0" flags="0x1204"/>
      <component glyphName="tilde" x="286" y="0" flags="0x1004"/>
    </TTGlyph>
    <TTGlyph name="b" xMin="150" yMin="-23" xMax="1136" yMax="1492">
      <contour>
        <pt x="318" y="0" on="1"/>
        <pt x="150" y="0" on="1"/>
        <pt x="151" y="68" on="0"/>
        <pt x="153" y="123" on="1"/>
        <pt x="154" y="147" on="0"/>
        <pt x="155" y="194" on="0"/>
        <pt x="156" y="234" on="0"/>
        <pt x="157" y="264" on="0"/>
        <pt x="157" y="270" on="1"/>
        <pt x="157" y="1492" on="1"/>
        <pt x="322" y="1492" on="1"/>
        <pt x="322" y="881" on="1"/>
        <pt x="385" y="968" on="0"/>
        <pt x="576" y="1051" on="0"/>
        <pt x="688" y="1051" on="1"/>
        <pt x="807" y="1051" on="0"/>
        <pt x="977" y="965" on="0"/>
        <pt x="1085" y="821" on="0"/>
        <pt x="1136" y="630" on="0"/>
        <pt x="1136" y="525" on="1"/>
        <pt x="1136" y="413" on="0"/>
        <pt x="1077" y="214" on="0"/>
        <pt x="960" y="64" on="0"/>
        <pt x="784" y="-23" on="0"/>
        <pt x="668" y="-23" on="1"/>
        <pt x="559" y="-23" on="0"/>
        <pt x="385" y="58" on="0"/>
        <pt x="322" y="137" on="1"/>
      </contour>
      <contour>
        <pt x="969" y="550" on="1"/>
        <pt x="969" y="626" on="0"/>
        <pt x="925" y="760" on="0"/>
        <pt x="842" y="859" on="0"/>
        <pt x="724" y="917" on="0"/>
        <pt x="650" y="917" on="1"/>
        <pt x="569" y="917" on="0"/>
        <pt x="446" y="852" on="0"/>
        <pt x="363" y="741" on="0"/>
        <pt x="322" y="595" on="0"/>
        <pt x="322" y="515" on="1"/>
        <pt x="322" y="428" on="0"/>
        <pt x="355" y="288" on="0"/>
        <pt x="432" y="189" on="0"/>
        <pt x="556" y="135" on="0"/>
        <pt x="647" y="135" on="1"/>
        <pt x="737" y="135" on="0"/>
        <pt x="861" y="206" on="0"/>
        <pt x="936" y="322" on="0"/>
        <pt x="969" y="471" on="0"/>
      </contour>
    </TTGlyph>
    <TTGlyph name="backslash" xMin="-70" yMin="-119" xMax="783" yMax="1451">
      <contour>
        <pt x="617" y="-119" on="1"/>
        <pt x="-70" y="1451" on="1"/>
        <pt x="98" y="1451" on="1"/>
        <pt x="783" y="-119" on="1"/>
      </contour>
    </TTGlyph>
    <TTGlyph name="bar" xMin="168" yMin="-491" xMax="325" yMax="1545">
      <contour>
        <pt x="168" y="-491" on="1"/>
        <pt x="168" y="1545" on="1"/>
        <pt x="325" y="1545" on="1"/>
        <pt x="325" y="-491" on="1"/>
      </contour>
    </TTGlyph>
    <TTGlyph name="braceleft" xMin="85" yMin="-259" xMax="566" yMax="1451">
      <contour>
        <pt x="566" y="-259" on="1"/>
        <pt x="496" y="-256" on="0"/>
        <pt x="378" y="-225" on="0"/>
        <pt x="291" y="-161" on="0"/>
        <pt x="243" y="-61" on="0"/>
        <pt x="243" y="11" on="1"/>
        <pt x="244" y="274" on="1"/>
        <pt x="244" y="320" on="0"/>
        <pt x="238" y="409" on="0"/>
        <pt x="208" y="480" on="0"/>
        <pt x="144" y="528" on="0"/>
        <pt x="86" y="534" on="1"/>
        <pt x="85" y="656" on="1"/>
        <pt x="129" y="660" on="0"/>
        <pt x="191" y="697" on="0"/>
        <pt x="229" y="757" on="0"/>
        <pt x="247" y="840" on="0"/>
        <pt x="247" y="890" on="1"/>
        <pt x="245" y="953" on="0"/>
        <pt x="245" y="1080" on="0"/>
        <pt x="243" y="1143" on="1"/>
        <pt x="243" y="1216" on="0"/>
        <pt x="277" y="1330" on="0"/>
        <pt x="353" y="1409" on="0"/>
        <pt x="477" y="1451" on="0"/>
        <pt x="566" y="1451" on="1"/>
        <pt x="566" y="1325" on="1"/>
        <pt x="527" y="1324" on="0"/>
        <pt x="468" y="1307" on="0"/>
        <pt x="429" y="1268" on="0"/>
        <pt x="409" y="1205" on="0"/>
        <pt x="409" y="1157" on="1"/>
        <pt x="408" y="868" on="1"/>
        <pt x="408" y="809" on="0"/>
        <pt x="380" y="718" on="0"/>
        <pt x="339" y="651" on="0"/>
        <pt x="290" y="607" on="0"/>
        <pt x="268" y="595" on="1"/>
        <pt x="311" y="575" on="0"/>
        <pt x="364" y="512" on="0"/>
        <pt x="394" y="437" on="0"/>
        <pt x="405" y="359" on="0"/>
        <pt x="405" y="325" on="1"/>
        <pt x="405" y="276" on="0"/>
        <pt x="403" y="158" on="0"/>
        <pt x="403" y="107" on="1"/>
        <pt x="403" y="37" on="0"/>
        <pt x="419" y="-56" on="0"/>
        <pt x="456" y="-111" on="0"/>
        <pt x="519" y="-133" on="0"/>
        <pt x="566" y="-133" on="1"/>
      </contour>
    </TTGlyph>
    <TTGlyph name="braceright" xMin="66" yMin="-259" xMax="547" yMax="1451">
      <contour>
        <pt x="66" y="-133" on="1"/>
        <pt x="113" y="-133" on="0"/>
        <pt x="176" y="-111" on="0"/>
        <pt x="213" y="-56" on="0"/>
        <pt x="229" y="37" on="0"/>
        <pt x="229" y="107" on="1"/>
        <pt x="229" y="158" on="0"/>
        <pt x="227" y="276" on="0"/>
        <pt x="227" y="325" on="1"/>
        <pt x="227" y="359" on="0"/>
        <pt x="238" y="437" on="0"/>
        <pt x="268" y="512" on="0"/>
        <pt x="321" y="575" on="0"/>
        <pt x="364" y="595" on="1"/>
        <pt x="342" y="607" on="0"/>
        <pt x="293" y="651" on="0"/>
        <pt x="252" y="718" on="0"/>
        <pt x="224" y="809" on="0"/>
        <pt x="224" y="868" on="1"/>
        <pt x="223" y="1157" on="1"/>
        <pt x="223" y="1205" on="0"/>
        <pt x="203" y="1268" on="0"/>
        <pt x="164" y="1307" on="0"/>
        <pt x="105" y="1324" on="0"/>
        <pt x="66" y="1325" on="1"/>
        <pt x="66" y="1451" on="1"/>
        <pt x="155" y="1451" on="0"/>
        <pt x="278" y="1409" on="0"/>
        <pt x="355" y="1330" on="0"/>
        <pt x="389" y="1216" on="0"/>
        <pt x="389" y="1143" on="1"/>
        <pt x="387" y="1080" on="0"/>
        <pt x="387" y="953" on="0"/>
        <pt x="385" y="890" on="1"/>
        <pt x="385" y="840" on="0"/>
        <pt x="403" y="757" on="0"/>
        <pt x="441" y="697" on="0"/>
        <pt x="503" y="660" on="0"/>
        <pt x="547" y="656" on="1"/>
        <pt x="546" y="534" on="1"/>
        <pt x="488" y="528" on="0"/>
        <pt x="424" y="480" on="0"/>
        <pt x="394" y="409" on="0"/>
        <pt x="388" y="320" on="0"/>
        <pt x="388" y="274" on="1"/>
        <pt x="389" y="11" on="1"/>
        <pt x="389" y="-61" on="0"/>
        <pt x="341" y="-161" on="0"/>
        <pt x="254" y="-225" on="0"/>
        <pt x="136" y="-256" on="0"/>
        <pt x="66" y="-259" on="1"/>
      </contour>
    </TTGlyph>
    <TTGlyph name="bracketleft" xMin="191" yMin="-259" xMax="548" yMax="1451">
      <contour>
        <pt x="548" y="-259" on="1"/>
        <pt x="191" y="-259" on="1"/>
        <pt x="191" y="1451" on="1"/>
        <pt x="547" y="1451" on="1"/>
        <pt x="547" y="1329" on="1"/>
        <pt x="354" y="1329" on="1"/>
        <pt x="354" y="-137" on="1"/>
        <pt x="548" y="-137" on="1"/>
      </contour>
    </TTGlyph>
    <TTGlyph name="bracketright" xMin="78" yMin="-259" xMax="442" yMax="1451">
      <contour>
        <pt x="78" y="1451" on="1"/>
        <pt x="442" y="1451" on="1"/>
        <pt x="442" y="-259" on="1"/>
        <pt x="87" y="-259" on="1"/>
        <pt x="87" y="-137" on="1"/>
        <pt x="278" y="-137" on="1"/>
        <pt x="278" y="1329" on="1"/>
        <pt x="88" y="1329" on="1"/>
      </contour>
    </TTGlyph>
    <TTGlyph name="breve" xMin="32" yMin="1218" xMax="596" yMax="1454">
      <contour>
        <pt x="596" y="1454" on="1"/>
        <pt x="591" y="1395" on="0"/>
        <pt x="547" y="1306" on="0"/>
        <pt x="474" y="1247" on="0"/>
        <pt x="375" y="1218" on="0"/>
        <pt x="316" y="1218" on="1"/>
        <pt x="191" y="1218" on="0"/>
        <pt x="42" y="1333" on="0"/>
        <pt x="32" y="1454" on="1"/>
        <pt x="119" y="1454" on="1"/>
        <pt x="125" y="1418" on="0"/>
        <pt x="161" y="1369" on="0"/>
        <pt x="213" y="1338" on="0"/>
        <pt x="276" y="1325" on="0"/>
        <pt x="309" y="1325" on="1"/>
        <pt x="342" y="1325" on="0"/>
        <pt x="407" y="1340" on="0"/>
        <pt x="462" y="1371" on="0"/>
        <pt x="502" y="1420" on="0"/>
        <pt x="510" y="1454" on="1"/>
      </contour>
    </TTGlyph>
    <TTGlyph name="brokenbar" xMin="168" yMin="-491" xMax="325" yMax="1545">
      <contour>
        <pt x="168" y="-491" on="1"/>
        <pt x="168" y="393" on="1"/>
        <pt x="325" y="393" on="1"/>
        <pt x="325" y="-491" on="1"/>
      </contour>
      <contour>
        <pt x="168" y="677" on="1"/>
        <pt x="168" y="1545" on="1"/>
        <pt x="325" y="1545" on="1"/>
        <pt x="325" y="677" on="1"/>
      </contour>
    </TTGlyph>
    <TTGlyph name="bullet" xMin="157" yMin="385" xMax="833" yMax="1010">
      <contour>
        <pt x="833" y="701" on="1"/>
        <pt x="833" y="636" on="0"/>
        <pt x="778" y="522" on="0"/>
        <pt x="685" y="435" on="0"/>
        <pt x="562" y="385" on="0"/>
        <pt x="493" y="385" on="1"/>
        <pt x="423" y="385" on="0"/>
        <pt x="300" y="434" on="0"/>
        <pt x="209" y="519" on="0"/>
        <pt x="157" y="631" on="0"/>
        <pt x="157" y="694" on="1"/>
        <pt x="157" y="758" on="0"/>
        <pt x="212" y="873" on="0"/>
        <pt x="306" y="960" on="0"/>
        <pt x="430" y="1010" on="0"/>
        <pt x="498" y="1010" on="1"/>
        <pt x="567" y="1010" on="0"/>
        <pt x="689" y="961" on="0"/>
        <pt x="780" y="877" on="0"/>
        <pt x="833" y="764" on="0"/>
      </contour>
    </TTGlyph>
    <TTGlyph name="c" xMin="92" yMin="-23" xMax="964" yMax="1051">
      <contour>
        <pt x="881" y="801" on="1"/>
        <pt x="833" y="861" on="0"/>
        <pt x="695" y="917" on="0"/>
        <pt x="617" y="917" on="1"/>
        <pt x="534" y="917" on="0"/>
        <pt x="404" y="853" on="0"/>
        <pt x="313" y="742" on="0"/>
        <pt x="265" y="593" on="0"/>
        <pt x="265" y="508" on="1"/>
        <pt x="265" y="424" on="0"/>
        <pt x="307" y="278" on="0"/>
        <pt x="393" y="170" on="0"/>
        <pt x="525" y="109" on="0"/>
        <pt x="615" y="109" on="1"/>
        <pt x="784" y="109" on="0"/>
        <pt x="918" y="225" on="1"/>
        <pt x="964" y="87" on="1"/>
        <pt x="891" y="29" on="0"/>
        <pt x="711" y="-23" on="0"/>
        <pt x="602" y="-23" on="1"/>
        <pt x="475" y="-23" on="0"/>
        <pt x="284" y="60" on="0"/>
        <pt x="156" y="203" on="0"/>
        <pt x="92" y="395" on="0"/>
        <pt x="92" y="503" on="1"/>
        <pt x="92" y="615" on="0"/>
        <pt x="160" y="815" on="0"/>
        <pt x="290" y="964" on="0"/>
        <pt x="480" y="1051" on="0"/>
        <pt x="602" y="1051" on="1"/>
        <pt x="723" y="1051" on="0"/>
        <pt x="905" y="975" on="0"/>
        <pt x="956" y="908" on="1"/>
      </contour>
    </TTGlyph>
    <TTGlyph name="caron" xMin="29" yMin="1170" xMax="662" yMax="1493">
      <contour>
        <pt x="662" y="1493" on="1"/>
        <pt x="424" y="1170" on="1"/>
        <pt x="268" y="1170" on="1"/>
        <pt x="29" y="1493" on="1"/>
        <pt x="176" y="1493" on="1"/>
        <pt x="340" y="1278" on="1"/>
        <pt x="508" y="1493" on="1"/>
      </contour>
    </TTGlyph>
    <TTGlyph name="ccedilla" xMin="92" yMin="-396" xMax="964" yMax="1051">
      <component glyphName="c" x="0" y="0" flags="0x1204"/>
      <component glyphName="cedilla" x="384" y="0" flags="0x1004"/>
    </TTGlyph>
    <TTGlyph name="cedilla" xMin="52" yMin="-396" xMax="468" yMax="17">
      <contour>
        <pt x="60" y="-289" on="1"/>
        <pt x="104" y="-300" on="0"/>
        <pt x="180" y="-313" on="0"/>
        <pt x="211" y="-313" on="1"/>
        <pt x="274" y="-313" on="0"/>
        <pt x="325" y="-273" on="0"/>
        <pt x="325" y="-241" on="1"/>
        <pt x="325" y="-200" on="0"/>
        <pt x="264" y="-168" on="0"/>
        <pt x="216" y="-168" on="1"/>
        <pt x="213" y="-168" on="0"/>
        <pt x="191" y="-170" on="0"/>
        <pt x="179" y="-171" on="1"/>
        <pt x="147" y="-173" on="1"/>
        <pt x="180" y="17" on="1"/>
        <pt x="277" y="17" on="1"/>
        <pt x="259" y="-90" on="1"/>
        <pt x="301" y="-91" on="0"/>
        <pt x="377" y="-108" on="0"/>
        <pt x="434" y="-144" on="0"/>
        <pt x="468" y="-199" on="0"/>
        <pt x="468" y="-239" on="1"/>
        <pt x="468" y="-279" on="0"/>
        <pt x="431" y="-338" on="0"/>
        <pt x="366" y="-377" on="0"/>
        <pt x="278" y="-396" on="0"/>
        <pt x="227" y="-396" on="1"/>
        <pt x="188" y="-396" on="0"/>
        <pt x="98" y="-383" on="0"/>
        <pt x="52" y="-374" on="1"/>
      </contour>
    </TTGlyph>
    <TTGlyph name="cent" xMin="170" yMin="-255" xMax="1042" yMax="1261">
      <contour>
        <pt x="959" y="801" on="1"/>
        <pt x="923" y="846" on="0"/>
        <pt x="824" y="900" on="0"/>
        <pt x="767" y="911" on="1"/>
        <pt x="717" y="109" on="1"/>
        <pt x="871" y="116" on="0"/>
        <pt x="996" y="225" on="1"/>
        <pt x="1042" y="87" on="1"/>
        <pt x="973" y="33" on="0"/>
        <pt x="809" y="-19" on="0"/>
        <pt x="709" y="-22" on="1"/>
        <pt x="695" y="-255" on="1"/>
        <pt x="566" y="-255" on="1"/>
        <pt x="580" y="-15" on="1"/>
        <pt x="478" y="0" on="0"/>
        <pt x="324" y="93" on="0"/>
        <pt x="222" y="231" on="0"/>
        <pt x="170" y="406" on="0"/>
        <pt x="170" y="503" on="1"/>
        <pt x="170" y="611" on="0"/>
        <pt x="233" y="805" on="0"/>
        <pt x="354" y="952" on="0"/>
        <pt x="532" y="1044" on="0"/>
        <pt x="646" y="1050" on="1"/>
        <pt x="659" y="1261" on="1"/>
        <pt x="789" y="1261" on="1"/>
        <pt x="775" y="1044" on="1"/>
        <pt x="862" y="1031" on="0"/>
        <pt x="993" y="961" on="0"/>
        <pt x="1034" y="908" on="1"/>
      </contour>
      <contour>
        <pt x="343" y="508" on="1"/>
        <pt x="343" y="437" on="0"/>
        <pt x="373" y="310" on="0"/>
        <pt x="433" y="209" on="0"/>
        <pt x="526" y="138" on="0"/>
        <pt x="589" y="122" on="1"/>
        <pt x="637" y="912" on="1"/>
        <pt x="568" y="901" on="0"/>
        <pt x="458" y="830" on="0"/>
        <pt x="383" y="722" on="0"/>
        <pt x="343" y="585" on="0"/>
      </contour>
    </TTGlyph>
    <TTGlyph name="circumflex" xMin="35" yMin="1170" xMax="649" yMax="1494">
      <contour>
        <pt x="35" y="1170" on="1"/>
        <pt x="263" y="1494" on="1"/>
        <pt x="420" y="1494" on="1"/>
        <pt x="649" y="1170" on="1"/>
        <pt x="517" y="1170" on="1"/>
        <pt x="339" y="1386" on="1"/>
        <pt x="161" y="1170" on="1"/>
      </contour>
    </TTGlyph>
    <TTGlyph name="colon" xMin="159" yMin="-11" xMax="376" yMax="1051">
      <contour>
        <pt x="376" y="841" on="1"/>
        <pt x="159" y="841" on="1"/>
        <pt x="159" y="1051" on="1"/>
        <pt x="376" y="1051" on="1"/>
      </contour>
      <contour>
        <pt x="376" y="-11" on="1"/>
        <pt x="159" y="-11" on="1"/>
        <pt x="159" y="199" on="1"/>
        <pt x="376" y="199" on="1"/>
      </contour>
    </TTGlyph>
    <TTGlyph name="comma" xMin="78" yMin="-256" xMax="372" yMax="207">
      <contour>
        <pt x="185" y="207" on="1"/>
        <pt x="372" y="207" on="1"/>
        <pt x="209" y="-256" on="1"/>
        <pt x="78" y="-256" on="1"/>
      </contour>
    </TTGlyph>
    <TTGlyph name="copyright" xMin="103" yMin="-32" xMax="1717" yMax="1483">
      <contour>
        <pt x="1249" y="339" on="1"/>
        <pt x="1120" y="249" on="0"/>
        <pt x="940" y="249" on="1"/>
        <pt x="835" y="249" on="0"/>
        <pt x="658" y="324" on="0"/>
        <pt x="531" y="454" on="0"/>
        <pt x="460" y="629" on="0"/>
        <pt x="460" y="729" on="1"/>
        <pt x="460" y="833" on="0"/>
        <pt x="530" y="1009" on="0"/>
        <pt x="659" y="1136" on="0"/>
        <pt x="840" y="1208" on="0"/>
        <pt x="951" y="1208" on="1"/>
        <pt x="1123" y="1208" on="0"/>
        <pt x="1245" y="1105" on="1"/>
        <pt x="1214" y="985" on="1"/>
        <pt x="1104" y="1080" on="0"/>
        <pt x="944" y="1080" on="1"/>
        <pt x="867" y="1080" on="0"/>
        <pt x="745" y="1026" on="0"/>
        <pt x="659" y="932" on="0"/>
        <pt x="613" y="805" on="0"/>
        <pt x="613" y="733" on="1"/>
        <pt x="613" y="659" on="0"/>
        <pt x="659" y="531" on="0"/>
        <pt x="749" y="435" on="0"/>
        <pt x="883" y="380" on="0"/>
        <pt x="972" y="380" on="1"/>
        <pt x="1038" y="380" on="0"/>
        <pt x="1159" y="418" on="0"/>
        <pt x="1210" y="460" on="1"/>
      </contour>
      <contour>
        <pt x="230" y="727" on="1"/>
        <pt x="230" y="636" on="0"/>
        <pt x="277" y="471" on="0"/>
        <pt x="365" y="328" on="0"/>
        <pt x="488" y="212" on="0"/>
        <pt x="640" y="130" on="0"/>
        <pt x="816" y="85" on="0"/>
        <pt x="913" y="85" on="1"/>
        <pt x="1057" y="85" on="0"/>
        <pt x="1304" y="184" on="0"/>
        <pt x="1486" y="356" on="0"/>
        <pt x="1590" y="589" on="0"/>
        <pt x="1590" y="724" on="1"/>
        <pt x="1590" y="815" on="0"/>
        <pt x="1543" y="980" on="0"/>
        <pt x="1455" y="1123" on="0"/>
        <pt x="1332" y="1239" on="0"/>
        <pt x="1181" y="1321" on="0"/>
        <pt x="1005" y="1366" on="0"/>
        <pt x="909" y="1366" on="1"/>
        <pt x="766" y="1366" on="0"/>
        <pt x="518" y="1268" on="0"/>
        <pt x="335" y="1096" on="0"/>
        <pt x="230" y="862" on="0"/>
      </contour>
      <contour>
        <pt x="914" y="-32" on="1"/>
        <pt x="802" y="-32" on="0"/>
        <pt x="594" y="23" on="0"/>
        <pt x="414" y="122" on="0"/>
        <pt x="266" y="261" on="0"/>
        <pt x="161" y="429" on="0"/>
        <pt x="103" y="622" on="0"/>
        <pt x="103" y="726" on="1"/>
        <pt x="103" y="830" on="0"/>
        <pt x="161" y="1022" on="0"/>
        <pt x="267" y="1190" on="0"/>
        <pt x="415" y="1329" on="0"/>
        <pt x="594" y="1428" on="0"/>
        <pt x="798" y="1483" on="0"/>
        <pt x="908" y="1483" on="1"/>
        <pt x="1020" y="1483" on="0"/>
        <pt x="1227" y="1428" on="0"/>
        <pt x="1406" y="1328" on="0"/>
        <pt x="1554" y="1189" on="0"/>
        <pt x="1659" y="1020" on="0"/>
        <pt x="1717" y="828" on="0"/>
        <pt x="1717" y="725" on="1"/>
        <pt x="1717" y="621" on="0"/>
        <pt x="1659" y="429" on="0"/>
        <pt x="1554" y="261" on="0"/>
        <pt x="1407" y="122" on="0"/>
        <pt x="1229" y="23" on="0"/>
        <pt x="1024" y="-32" on="0"/>
      </contour>
    </TTGlyph>
    <TTGlyph name="currency" xMin="190" yMin="40" xMax="941" yMax="1301">
      <contour>
        <pt x="587" y="1051" on="1"/>
        <pt x="648" y="1051" on="0"/>
        <pt x="711" y="1034" on="1"/>
        <pt x="825" y="1301" on="1"/>
        <pt x="866" y="1285" on="1"/>
        <pt x="751" y="1018" on="1"/>
        <pt x="849" y="972" on="0"/>
        <pt x="941" y="800" on="0"/>
        <pt x="941" y="688" on="1"/>
        <pt x="941" y="634" on="0"/>
        <pt x="918" y="531" on="0"/>
        <pt x="875" y="439" on="0"/>
        <pt x="810" y="363" on="0"/>
        <pt x="768" y="336" on="1"/>
        <pt x="906" y="56" on="1"/>
        <pt x="871" y="40" on="1"/>
        <pt x="734" y="316" on="1"/>
        <pt x="691" y="296" on="0"/>
        <pt x="599" y="274" on="0"/>
        <pt x="545" y="274" on="1"/>
        <pt x="479" y="274" on="0"/>
        <pt x="436" y="287" on="1"/>
        <pt x="329" y="40" on="1"/>
        <pt x="292" y="56" on="1"/>
        <pt x="397" y="301" on="1"/>
        <pt x="296" y="341" on="0"/>
        <pt x="190" y="519" on="0"/>
        <pt x="190" y="635" on="1"/>
        <pt x="190" y="695" on="0"/>
        <pt x="216" y="807" on="0"/>
        <pt x="266" y="904" on="0"/>
        <pt x="341" y="981" on="0"/>
        <pt x="391" y="1006" on="1"/>
        <pt x="252" y="1285" on="1"/>
        <pt x="293" y="1301" on="1"/>
        <pt x="430" y="1023" on="1"/>
        <pt x="496" y="1051" on="0"/>
      </contour>
      <contour>
        <pt x="847" y="660" on="1"/>
        <pt x="847" y="683" on="1"/>
        <pt x="847" y="744" on="0"/>
        <pt x="815" y="851" on="0"/>
        <pt x="749" y="932" on="0"/>
        <pt x="648" y="979" on="0"/>
        <pt x="578" y="979" on="1"/>
        <pt x="506" y="979" on="0"/>
        <pt x="396" y="922" on="0"/>
        <pt x="321" y="827" on="0"/>
        <pt x="283" y="705" on="0"/>
        <pt x="283" y="639" on="1"/>
        <pt x="283" y="579" on="0"/>
        <pt x="317" y="473" on="0"/>
        <pt x="385" y="392" on="0"/>
        <pt x="486" y="345" on="0"/>
        <pt x="554" y="345" on="1"/>
        <pt x="624" y="345" on="0"/>
        <pt x="730" y="397" on="0"/>
        <pt x="804" y="484" on="0"/>
        <pt x="844" y="598" on="0"/>
      </contour>
    </TTGlyph>
    <TTGlyph name="d" xMin="93" yMin="-23" xMax="1082" yMax="1492">
      <contour>
        <pt x="915" y="0" on="1"/>
        <pt x="911" y="147" on="1"/>
        <pt x="846" y="55" on="0"/>
        <pt x="675" y="-23" on="0"/>
        <pt x="557" y="-23" on="1"/>
        <pt x="438" y="-23" on="0"/>
        <pt x="263" y="60" on="0"/>
        <pt x="149" y="204" on="0"/>
        <pt x="93" y="397" on="0"/>
        <pt x="93" y="506" on="1"/>
        <pt x="93" y="614" on="0"/>
        <pt x="152" y="811" on="0"/>
        <pt x="271" y="962" on="0"/>
        <pt x="448" y="1051" on="0"/>
        <pt x="565" y="1051" on="1"/>
        <pt x="676" y="1051" on="0"/>
        <pt x="853" y="967" on="0"/>
        <pt x="911" y="888" on="1"/>
        <pt x="911" y="1492" on="1"/>
        <pt x="1076" y="1492" on="1"/>
        <pt x="1076" y="256" on="1"/>
        <pt x="1077" y="196" on="0"/>
        <pt x="1080" y="58" on="0"/>
        <pt x="1082" y="0" on="1"/>
      </contour>
      <contour>
        <pt x="583" y="109" on="1"/>
        <pt x="664" y="109" on="0"/>
        <pt x="787" y="172" on="0"/>
        <pt x="870" y="287" on="0"/>
        <pt x="912" y="449" on="0"/>
        <pt x="912" y="548" on="1"/>
        <pt x="912" y="631" on="0"/>
        <pt x="867" y="767" on="0"/>
        <pt x="783" y="864" on="0"/>
        <pt x="665" y="917" on="0"/>
        <pt x="592" y="917" on="1"/>
        <pt x="507" y="917" on="0"/>
        <pt x="384" y="851" on="0"/>
        <pt x="304" y="739" on="0"/>
        <pt x="266" y="590" on="0"/>
        <pt x="266" y="507" on="1"/>
        <pt x="266" y="429" on="0"/>
        <pt x="299" y="285" on="0"/>
        <pt x="374" y="175" on="0"/>
        <pt x="495" y="109" on="0"/>
      </contour>
    </TTGlyph>
    <TTGlyph name="dagger" xMin="107" yMin="113" xMax="919" yMax="1451">
      <contour>
        <pt x="433" y="934" on="1"/>
        <pt x="107" y="934" on="1"/>
        <pt x="107" y="1066" on="1"/>
        <pt x="433" y="1066" on="1"/>
        <pt x="433" y="1451" on="1"/>
        <pt x="575" y="1451" on="1"/>
        <pt x="575" y="1066" on="1"/>
        <pt x="919" y="1066" on="1"/>
        <pt x="919" y="934" on="1"/>
        <pt x="561" y="934" on="1"/>
        <pt x="561" y="113" on="1"/>
        <pt x="433" y="113" on="1"/>
      </contour>
    </TTGlyph>
    <TTGlyph name="daggerdbl" xMin="98" yMin="113" xMax="916" yMax="1451">
      <contour>
        <pt x="442" y="983" on="1"/>
        <pt x="104" y="983" on="1"/>
        <pt x="104" y="1115" on="1"/>
        <pt x="448" y="1115" on="1"/>
        <pt x="422" y="1451" on="1"/>
        <pt x="593" y="1451" on="1"/>
        <pt x="572" y="1115" on="1"/>
        <pt x="916" y="1115" on="1"/>
        <pt x="916" y="983" on="1"/>
        <pt x="565" y="983" on="1"/>
        <pt x="565" y="562" on="1"/>
        <pt x="909" y="562" on="1"/>
        <pt x="909" y="435" on="1"/>
        <pt x="565" y="435" on="1"/>
        <pt x="591" y="113" on="1"/>
        <pt x="420" y="113" on="1"/>
        <pt x="442" y="435" on="1"/>
        <pt x="98" y="435" on="1"/>
        <pt x="98" y="562" on="1"/>
        <pt x="442" y="562" on="1"/>
      </contour>
    </TTGlyph>
    <TTGlyph name="degree" xMin="95" yMin="855" xMax="733" yMax="1444">
      <contour>
        <pt x="414" y="1328" on="1"/>
        <pt x="375" y="1328" on="0"/>
        <pt x="304" y="1301" on="0"/>
        <pt x="251" y="1254" on="0"/>
        <pt x="220" y="1189" on="0"/>
        <pt x="220" y="1151" on="1"/>
        <pt x="220" y="1113" on="0"/>
        <pt x="250" y="1047" on="0"/>
        <pt x="303" y="999" on="0"/>
        <pt x="373" y="971" on="0"/>
        <pt x="414" y="971" on="1"/>
        <pt x="454" y="971" on="0"/>
        <pt x="525" y="999" on="0"/>
        <pt x="578" y="1047" on="0"/>
        <pt x="608" y="1113" on="0"/>
        <pt x="608" y="1151" on="1"/>
        <pt x="608" y="1189" on="0"/>
        <pt x="577" y="1254" on="0"/>
        <pt x="524" y="1301" on="0"/>
        <pt x="453" y="1328" on="0"/>
      </contour>
      <contour>
        <pt x="414" y="855" on="1"/>
        <pt x="349" y="855" on="0"/>
        <pt x="234" y="902" on="0"/>
        <pt x="146" y="982" on="0"/>
        <pt x="95" y="1089" on="0"/>
        <pt x="95" y="1150" on="1"/>
        <pt x="95" y="1211" on="0"/>
        <pt x="146" y="1318" on="0"/>
        <pt x="233" y="1398" on="0"/>
        <pt x="349" y="1444" on="0"/>
        <pt x="414" y="1444" on="1"/>
        <pt x="479" y="1444" on="0"/>
        <pt x="595" y="1398" on="0"/>
        <pt x="682" y="1318" on="0"/>
        <pt x="733" y="1211" on="0"/>
        <pt x="733" y="1150" on="1"/>
        <pt x="733" y="1089" on="0"/>
        <pt x="682" y="982" on="0"/>
        <pt x="594" y="902" on="0"/>
        <pt x="478" y="855" on="0"/>
      </contour>
    </TTGlyph>
    <TTGlyph name="dieresis" xMin="122" yMin="1246" xMax="618" yMax="1409">
      <contour>
        <pt x="285" y="1246" on="1"/>
        <pt x="122" y="1246" on="1"/>
        <pt x="122" y="1409" on="1"/>
        <pt x="286" y="1409" on="1"/>
      </contour>
      <contour>
        <pt x="618" y="1246" on="1"/>
        <pt x="454" y="1246" on="1"/>
        <pt x="454" y="1409" on="1"/>
        <pt x="618" y="1409" on="1"/>
      </contour>
    </TTGlyph>
    <TTGlyph name="divide" xMin="198" yMin="21" xMax="1246" yMax="1083">
      <contour>
        <pt x="200" y="485" on="1"/>
        <pt x="198" y="624" on="1"/>
        <pt x="1245" y="624" on="1"/>
        <pt x="1246" y="485" on="1"/>
      </contour>
      <contour>
        <pt x="836" y="873" on="1"/>
        <pt x="619" y="873" on="1"/>
        <pt x="619" y="1083" on="1"/>
        <pt x="836" y="1083" on="1"/>
      </contour>
      <contour>
        <pt x="836" y="21" on="1"/>
        <pt x="619" y="21" on="1"/>
        <pt x="619" y="231" on="1"/>
        <pt x="836" y="231" on="1"/>
      </contour>
    </TTGlyph>
    <TTGlyph name="dollar" xMin="137" yMin="-172" xMax="1080" yMax="1575">
      <contour>
        <pt x="534" y="1293" on="1"/>
        <pt x="487" y="1287" on="0"/>
        <pt x="411" y="1247" on="0"/>
        <pt x="356" y="1186" on="0"/>
        <pt x="326" y="1105" on="0"/>
        <pt x="326" y="1059" on="1"/>
        <pt x="326" y="1008" on="0"/>
        <pt x="357" y="933" on="0"/>
        <pt x="412" y="877" on="0"/>
        <pt x="487" y="835" on="0"/>
        <pt x="532" y="818" on="1"/>
      </contour>
      <contour>
        <pt x="251" y="223" on="1"/>
        <pt x="315" y="180" on="0"/>
        <pt x="460" y="130" on="0"/>
        <pt x="531" y="127" on="1"/>
        <pt x="534" y="648" on="1"/>
        <pt x="453" y="684" on="0"/>
        <pt x="309" y="755" on="0"/>
        <pt x="201" y="844" on="0"/>
        <pt x="137" y="963" on="0"/>
        <pt x="137" y="1047" on="1"/>
        <pt x="137" y="1126" on="0"/>
        <pt x="204" y="1263" on="0"/>
        <pt x="314" y="1367" on="0"/>
        <pt x="457" y="1431" on="0"/>
        <pt x="534" y="1437" on="1"/>
        <pt x="530" y="1575" on="1"/>
        <pt x="654" y="1575" on="1"/>
        <pt x="657" y="1439" on="1"/>
        <pt x="757" y="1437" on="0"/>
        <pt x="933" y="1380" on="0"/>
        <pt x="997" y="1326" on="1"/>
        <pt x="948" y="1198" on="1"/>
        <pt x="891" y="1249" on="0"/>
        <pt x="743" y="1296" on="0"/>
        <pt x="658" y="1299" on="1"/>
        <pt x="656" y="770" on="1"/>
        <pt x="761" y="729" on="0"/>
        <pt x="919" y="651" on="0"/>
        <pt x="1026" y="558" on="0"/>
        <pt x="1080" y="441" on="0"/>
        <pt x="1080" y="361" on="1"/>
        <pt x="1080" y="278" on="0"/>
        <pt x="1012" y="146" on="0"/>
        <pt x="896" y="52" on="0"/>
        <pt x="742" y="-4" on="0"/>
        <pt x="656" y="-11" on="1"/>
        <pt x="659" y="-172" on="1"/>
        <pt x="536" y="-172" on="1"/>
        <pt x="532" y="-16" on="1"/>
        <pt x="441" y="-14" on="0"/>
        <pt x="277" y="35" on="0"/>
        <pt x="202" y="89" on="1"/>
      </contour>
      <contour>
        <pt x="654" y="131" on="1"/>
        <pt x="704" y="138" on="0"/>
        <pt x="794" y="174" on="0"/>
        <pt x="861" y="231" on="0"/>
        <pt x="901" y="309" on="0"/>
        <pt x="901" y="358" on="1"/>
        <pt x="901" y="405" on="0"/>
        <pt x="865" y="477" on="0"/>
        <pt x="800" y="535" on="0"/>
        <pt x="711" y="583" on="0"/>
        <pt x="658" y="605" on="1"/>
      </contour>
    </TTGlyph>
    <TTGlyph name="dotaccent" xMin="184" yMin="1246" xMax="344" yMax="1409">
      <contour>
        <pt x="186" y="1246" on="1"/>
        <pt x="184" y="1409" on="1"/>
        <pt x="341" y="1409" on="1"/>
        <pt x="344" y="1246" on="1"/>
      </contour>
    </TTGlyph>
    <TTGlyph name="dotlessi" xMin="167" yMin="0" xMax="333" yMax="1026">
      <contour>
        <pt x="333" y="0" on="1"/>
        <pt x="168" y="0" on="1"/>
        <pt x="167" y="1026" on="1"/>
        <pt x="332" y="1026" on="1"/>
      </contour>
    </TTGlyph>
    <TTGlyph name="e" xMin="115" yMin="-23" xMax="1079" yMax="1051">
      <contour>
        <pt x="906" y="609" on="1"/>
        <pt x="905" y="623" on="1"/>
        <pt x="900" y="688" on="0"/>
        <pt x="859" y="796" on="0"/>
        <pt x="787" y="874" on="0"/>
        <pt x="684" y="917" on="0"/>
        <pt x="619" y="917" on="1"/>
        <pt x="549" y="917" on="0"/>
        <pt x="437" y="868" on="0"/>
        <pt x="356" y="784" on="0"/>
        <pt x="306" y="672" on="0"/>
        <pt x="297" y="609" on="1"/>
      </contour>
      <contour>
        <pt x="1039" y="115" on="1"/>
        <pt x="956" y="43" on="0"/>
        <pt x="754" y="-23" on="0"/>
        <pt x="626" y="-23" on="1"/>
        <pt x="505" y="-23" on="0"/>
        <pt x="315" y="56" on="0"/>
        <pt x="184" y="197" on="0"/>
        <pt x="115" y="393" on="0"/>
        <pt x="115" y="510" on="1"/>
        <pt x="115" y="621" on="0"/>
        <pt x="183" y="817" on="0"/>
        <pt x="313" y="965" on="0"/>
        <pt x="500" y="1051" on="0"/>
        <pt x="620" y="1051" on="1"/>
        <pt x="738" y="1051" on="0"/>
        <pt x="912" y="974" on="0"/>
        <pt x="1024" y="839" on="0"/>
        <pt x="1079" y="653" on="0"/>
        <pt x="1079" y="544" on="1"/>
        <pt x="1079" y="533" on="0"/>
        <pt x="1078" y="504" on="0"/>
        <pt x="1077" y="492" on="1"/>
        <pt x="290" y="492" on="1"/>
        <pt x="293" y="447" on="1"/>
        <pt x="299" y="372" on="0"/>
        <pt x="348" y="248" on="0"/>
        <pt x="434" y="158" on="0"/>
        <pt x="557" y="109" on="0"/>
        <pt x="636" y="109" on="1"/>
        <pt x="742" y="109" on="0"/>
        <pt x="918" y="183" on="0"/>
        <pt x="988" y="252" on="1"/>
      </contour>
    </TTGlyph>
    <TTGlyph name="eacute" xMin="115" yMin="-23" xMax="1079" yMax="1492">
      <component glyphName="e" x="0" y="0" flags="0x1204"/>
      <component glyphName="acute" x="192" y="0" flags="0x1004"/>
    </TTGlyph>
    <TTGlyph name="ecircumflex" xMin="115" yMin="-23" xMax="1079" yMax="1494">
      <component glyphName="e" x="0" y="0" flags="0x1204"/>
      <component glyphName="circumflex" x="244" y="0" flags="0x1004"/>
    </TTGlyph>
    <TTGlyph name="edieresis" xMin="115" yMin="-23" xMax="1079" yMax="1409">
      <component glyphName="e" x="0" y="0" flags="0x1204"/>
      <component glyphName="dieresis" x="216" y="0" flags="0x1004"/>
    </TTGlyph>
    <TTGlyph name="egrave" xMin="115" yMin="-23" xMax="1079" yMax="1492">
      <component glyphName="e" x="0" y="0" flags="0x1204"/>
      <component glyphName="grave" x="355" y="0" flags="0x1004"/>
    </TTGlyph>
    <TTGlyph name="eight" xMin="93" yMin="-23" xMax="1081" yMax="1453">
      <contour>
        <pt x="587" y="1453" on="1"/>
        <pt x="683" y="1453" on="0"/>
        <pt x="850" y="1404" on="0"/>
        <pt x="974" y="1311" on="0"/>
        <pt x="1046" y="1176" on="0"/>
        <pt x="1046" y="1091" on="1"/>
        <pt x="1046" y="964" on="0"/>
        <pt x="898" y="789" on="0"/>
        <pt x="765" y="747" on="1"/>
        <pt x="919" y="701" on="0"/>
        <pt x="1081" y="504" on="0"/>
        <pt x="1081" y="367" on="1"/>
        <pt x="1081" y="273" on="0"/>
        <pt x="1000" y="127" on="0"/>
        <pt x="863" y="28" on="0"/>
        <pt x="684" y="-23" on="0"/>
        <pt x="587" y="-23" on="1"/>
        <pt x="489" y="-23" on="0"/>
        <pt x="311" y="28" on="0"/>
        <pt x="174" y="127" on="0"/>
        <pt x="93" y="273" on="0"/>
        <pt x="93" y="367" on="1"/>
        <pt x="93" y="504" on="0"/>
        <pt x="255" y="701" on="0"/>
        <pt x="409" y="747" on="1"/>
        <pt x="276" y="789" on="0"/>
        <pt x="128" y="964" on="0"/>
        <pt x="128" y="1091" on="1"/>
        <pt x="128" y="1176" on="0"/>
        <pt x="200" y="1311" on="0"/>
        <pt x="324" y="1404" on="0"/>
        <pt x="491" y="1453" on="0"/>
      </contour>
      <contour>
        <pt x="587" y="119" on="1"/>
        <pt x="656" y="119" on="0"/>
        <pt x="773" y="153" on="0"/>
        <pt x="857" y="219" on="0"/>
        <pt x="904" y="316" on="0"/>
        <pt x="904" y="380" on="1"/>
        <pt x="904" y="440" on="0"/>
        <pt x="857" y="537" on="0"/>
        <pt x="773" y="610" on="0"/>
        <pt x="656" y="659" on="0"/>
        <pt x="587" y="673" on="1"/>
        <pt x="518" y="659" on="0"/>
        <pt x="401" y="610" on="0"/>
        <pt x="317" y="537" on="0"/>
        <pt x="270" y="440" on="0"/>
        <pt x="270" y="380" on="1"/>
        <pt x="270" y="316" on="0"/>
        <pt x="317" y="219" on="0"/>
        <pt x="401" y="153" on="0"/>
        <pt x="518" y="119" on="0"/>
      </contour>
      <contour>
        <pt x="587" y="1317" on="1"/>
        <pt x="529" y="1317" on="0"/>
        <pt x="425" y="1287" on="0"/>
        <pt x="346" y="1228" on="0"/>
        <pt x="300" y="1142" on="0"/>
        <pt x="300" y="1086" on="1"/>
        <pt x="300" y="977" on="0"/>
        <pt x="449" y="846" on="0"/>
        <pt x="587" y="820" on="1"/>
        <pt x="725" y="846" on="0"/>
        <pt x="874" y="977" on="0"/>
        <pt x="874" y="1086" on="1"/>
        <pt x="874" y="1142" on="0"/>
        <pt x="828" y="1228" on="0"/>
        <pt x="749" y="1287" on="0"/>
        <pt x="645" y="1317" on="0"/>
      </contour>
    </TTGlyph>
    <TTGlyph name="ellipsis" xMin="159" yMin="-11" xMax="1456" yMax="199">
      <contour>
        <pt x="376" y="-11" on="1"/>
        <pt x="159" y="-11" on="1"/>
        <pt x="159" y="199" on="1"/>
        <pt x="376" y="199" on="1"/>
      </contour>
      <contour>
        <pt x="916" y="-11" on="1"/>
        <pt x="699" y="-11" on="1"/>
        <pt x="699" y="199" on="1"/>
        <pt x="916" y="199" on="1"/>
      </contour>
      <contour>
        <pt x="1456" y="-11" on="1"/>
        <pt x="1239" y="-11" on="1"/>
        <pt x="1239" y="199" on="1"/>
        <pt x="1456" y="199" on="1"/>
      </contour>
    </TTGlyph>
    <TTGlyph name="emdash" xMin="-3" yMin="489" xMax="2160" yMax="626">
      <contour>
        <pt x="2160" y="489" on="1"/>
        <pt x="-3" y="489" on="1"/>
        <pt x="-3" y="626" on="1"/>
        <pt x="2160" y="626" on="1"/>
      </contour>
    </TTGlyph>
    <TTGlyph name="endash" xMin="-6" yMin="489" xMax="1084" yMax="626">
      <contour>
        <pt x="1084" y="489" on="1"/>
        <pt x="-6" y="489" on="1"/>
        <pt x="-6" y="626" on="1"/>
        <pt x="1084" y="626" on="1"/>
      </contour>
    </TTGlyph>
    <TTGlyph name="equal" xMin="197" yMin="283" xMax="1247" yMax="827">
      <contour>
        <pt x="1247" y="420" on="1"/>
        <pt x="1247" y="283" on="1"/>
        <pt x="198" y="283" on="1"/>
        <pt x="198" y="420" on="1"/>
      </contour>
      <contour>
        <pt x="1246" y="827" on="1"/>
        <pt x="1246" y="689" on="1"/>
        <pt x="197" y="689" on="1"/>
        <pt x="197" y="827" on="1"/>
      </contour>
    </TTGlyph>
    <TTGlyph name="eth" xMin="88" yMin="-23" xMax="1190" yMax="1490">
      <contour>
        <pt x="653" y="1490" on="1"/>
        <pt x="766" y="1446" on="0"/>
        <pt x="936" y="1280" on="0"/>
        <pt x="993" y="1163" on="1"/>
        <pt x="1190" y="1163" on="1"/>
        <pt x="1190" y="1026" on="1"/>
        <pt x="1045" y="1026" on="1"/>
        <pt x="1068" y="946" on="0"/>
        <pt x="1093" y="769" on="0"/>
        <pt x="1093" y="672" on="1"/>
        <pt x="1093" y="504" on="0"/>
        <pt x="1025" y="245" on="0"/>
        <pt x="894" y="68" on="0"/>
        <pt x="703" y="-23" on="0"/>
        <pt x="581" y="-23" on="1"/>
        <pt x="468" y="-23" on="0"/>
        <pt x="285" y="49" on="0"/>
        <pt x="157" y="175" on="0"/>
        <pt x="88" y="347" on="0"/>
        <pt x="88" y="446" on="1"/>
        <pt x="88" y="545" on="0"/>
        <pt x="152" y="711" on="0"/>
        <pt x="271" y="830" on="0"/>
        <pt x="440" y="897" on="0"/>
        <pt x="545" y="897" on="1"/>
        <pt x="670" y="897" on="0"/>
        <pt x="861" y="813" on="0"/>
        <pt x="918" y="723" on="1"/>
        <pt x="918" y="725" on="1"/>
        <pt x="918" y="897" on="0"/>
        <pt x="882" y="1026" on="1"/>
        <pt x="620" y="1026" on="1"/>
        <pt x="620" y="1163" on="1"/>
        <pt x="826" y="1163" on="1"/>
        <pt x="783" y="1241" on="0"/>
        <pt x="659" y="1359" on="0"/>
        <pt x="574" y="1406" on="1"/>
      </contour>
      <contour>
        <pt x="572" y="757" on="1"/>
        <pt x="493" y="757" on="0"/>
        <pt x="377" y="709" on="0"/>
        <pt x="301" y="624" on="0"/>
        <pt x="264" y="508" on="0"/>
        <pt x="264" y="441" on="1"/>
        <pt x="264" y="372" on="0"/>
        <pt x="308" y="254" on="0"/>
        <pt x="389" y="167" on="0"/>
        <pt x="503" y="118" on="0"/>
        <pt x="573" y="118" on="1"/>
        <pt x="660" y="118" on="0"/>
        <pt x="785" y="185" on="0"/>
        <pt x="865" y="294" on="0"/>
        <pt x="902" y="431" on="0"/>
        <pt x="902" y="501" on="1"/>
        <pt x="902" y="509" on="0"/>
        <pt x="902" y="529" on="0"/>
        <pt x="903" y="536" on="1"/>
        <pt x="886" y="585" on="0"/>
        <pt x="823" y="666" on="0"/>
        <pt x="737" y="725" on="0"/>
        <pt x="632" y="757" on="0"/>
      </contour>
    </TTGlyph>
    <TTGlyph name="exclam" xMin="260" yMin="-23" xMax="474" yMax="1451">
      <contour>
        <pt x="260" y="183" on="1"/>
        <pt x="474" y="183" on="1"/>
        <pt x="474" y="-23" on="1"/>
        <pt x="260" y="-23" on="1"/>
      </contour>
      <contour>
        <pt x="426" y="373" on="1"/>
        <pt x="311" y="373" on="1"/>
        <pt x="271" y="1451" on="1"/>
        <pt x="466" y="1451" on="1"/>
      </contour>
    </TTGlyph>
    <TTGlyph name="exclamdown" xMin="260" yMin="-384" xMax="474" yMax="1090">
      <contour>
        <pt x="260" y="1090" on="1"/>
        <pt x="474" y="1090" on="1"/>
        <pt x="474" y="884" on="1"/>
        <pt x="260" y="884" on="1"/>
      </contour>
      <contour>
        <pt x="466" y="-384" on="1"/>
        <pt x="271" y="-384" on="1"/>
        <pt x="311" y="694" on="1"/>
        <pt x="426" y="694" on="1"/>
      </contour>
    </TTGlyph>
    <TTGlyph name="f" xMin="45" yMin="0" xMax="683" yMax="1514">
      <contour>
        <pt x="411" y="0" on="1"/>
        <pt x="246" y="0" on="1"/>
        <pt x="246" y="919" on="1"/>
        <pt x="46" y="919" on="1"/>
        <pt x="45" y="1026" on="1"/>
        <pt x="246" y="1026" on="1"/>
        <pt x="248" y="1138" on="1"/>
        <pt x="249" y="1219" on="0"/>
        <pt x="279" y="1357" on="0"/>
        <pt x="347" y="1457" on="0"/>
        <pt x="460" y="1514" on="0"/>
        <pt x="545" y="1514" on="1"/>
        <pt x="566" y="1514" on="0"/>
        <pt x="600" y="1511" on="0"/>
        <pt x="631" y="1505" on="0"/>
        <pt x="663" y="1497" on="0"/>
        <pt x="681" y="1493" on="1"/>
        <pt x="683" y="1364" on="1"/>
        <pt x="663" y="1372" on="0"/>
        <pt x="602" y="1379" on="0"/>
        <pt x="573" y="1379" on="1"/>
        <pt x="522" y="1379" on="0"/>
        <pt x="459" y="1351" on="0"/>
        <pt x="425" y="1296" on="0"/>
        <pt x="412" y="1215" on="0"/>
        <pt x="412" y="1162" on="1"/>
        <pt x="411" y="1026" on="1"/>
        <pt x="658" y="1026" on="1"/>
        <pt x="659" y="919" on="1"/>
        <pt x="411" y="919" on="1"/>
      </contour>
    </TTGlyph>
    <TTGlyph name="fi" xMin="45" yMin="0" xMax="1034" yMax="1514">
      <contour>
        <pt x="411" y="0" on="1"/>
        <pt x="246" y="0" on="1"/>
        <pt x="246" y="919" on="1"/>
        <pt x="46" y="919" on="1"/>
        <pt x="45" y="1026" on="1"/>
        <pt x="246" y="1026" on="1"/>
        <pt x="248" y="1138" on="1"/>
        <pt x="249" y="1219" on="0"/>
        <pt x="279" y="1357" on="0"/>
        <pt x="347" y="1457" on="0"/>
        <pt x="460" y="1514" on="0"/>
        <pt x="545" y="1514" on="1"/>
        <pt x="566" y="1514" on="0"/>
        <pt x="600" y="1511" on="0"/>
        <pt x="631" y="1505" on="0"/>
        <pt x="663" y="1497" on="0"/>
        <pt x="681" y="1493" on="1"/>
        <pt x="683" y="1364" on="1"/>
        <pt x="663" y="1372" on="0"/>
        <pt x="602" y="1379" on="0"/>
        <pt x="573" y="1379" on="1"/>
        <pt x="522" y="1379" on="0"/>
        <pt x="459" y="1351" on="0"/>
        <pt x="425" y="1296" on="0"/>
        <pt x="412" y="1215" on="0"/>
        <pt x="412" y="1162" on="1"/>
        <pt x="411" y="1026" on="1"/>
        <pt x="1034" y="1026" on="1"/>
        <pt x="1034" y="0" on="1"/>
        <pt x="869" y="0" on="1"/>
        <pt x="869" y="919" on="1"/>
        <pt x="411" y="919" on="1"/>
      </contour>
      <contour>
        <pt x="1030" y="1462" on="1"/>
        <pt x="1030" y="1307" on="1"/>
        <pt x="877" y="1307" on="1"/>
        <pt x="877" y="1462" on="1"/>
      </contour>
    </TTGlyph>
    <TTGlyph name="five" xMin="147" yMin="-23" xMax="1068" yMax="1425">
      <contour>
        <pt x="228" y="289" on="1"/>
        <pt x="288" y="202" on="0"/>
        <pt x="452" y="119" on="0"/>
        <pt x="546" y="119" on="1"/>
        <pt x="629" y="119" on="0"/>
        <pt x="758" y="172" on="0"/>
        <pt x="846" y="263" on="0"/>
        <pt x="891" y="384" on="0"/>
        <pt x="891" y="452" on="1"/>
        <pt x="891" y="516" on="0"/>
        <pt x="852" y="627" on="0"/>
        <pt x="777" y="710" on="0"/>
        <pt x="665" y="758" on="0"/>
        <pt x="593" y="758" on="1"/>
        <pt x="523" y="758" on="0"/>
        <pt x="411" y="706" on="0"/>
        <pt x="379" y="658" on="1"/>
        <pt x="203" y="652" on="1"/>
        <pt x="203" y="1425" on="1"/>
        <pt x="994" y="1425" on="1"/>
        <pt x="994" y="1280" on="1"/>
        <pt x="366" y="1280" on="1"/>
        <pt x="352" y="839" on="1"/>
        <pt x="409" y="872" on="0"/>
        <pt x="530" y="905" on="0"/>
        <pt x="599" y="905" on="1"/>
        <pt x="708" y="905" on="0"/>
        <pt x="882" y="836" on="0"/>
        <pt x="1003" y="714" on="0"/>
        <pt x="1068" y="547" on="0"/>
        <pt x="1068" y="449" on="1"/>
        <pt x="1068" y="349" on="0"/>
        <pt x="996" y="177" on="0"/>
        <pt x="862" y="50" on="0"/>
        <pt x="669" y="-23" on="0"/>
        <pt x="548" y="-23" on="1"/>
        <pt x="488" y="-23" on="0"/>
        <pt x="372" y="0" on="0"/>
        <pt x="268" y="48" on="0"/>
        <pt x="180" y="122" on="0"/>
        <pt x="147" y="173" on="1"/>
      </contour>
    </TTGlyph>
    <TTGlyph name="fl" xMin="45" yMin="0" xMax="1035" yMax="1514">
      <component glyphName="f" x="0" y="0" flags="0x1004"/>
      <component glyphName="l" x="702" y="0" flags="0x1004"/>
    </TTGlyph>
    <TTGlyph name="florin" xMin="73" yMin="-332" xMax="1008" yMax="1436">
      <contour>
        <pt x="332" y="803" on="1"/>
        <pt x="342" y="943" on="1"/>
        <pt x="511" y="943" on="1"/>
        <pt x="517" y="999" on="0"/>
        <pt x="533" y="1116" on="0"/>
        <pt x="562" y="1225" on="0"/>
        <pt x="609" y="1322" on="0"/>
        <pt x="683" y="1394" on="0"/>
        <pt x="790" y="1436" on="0"/>
        <pt x="865" y="1436" on="1"/>
        <pt x="898" y="1436" on="0"/>
        <pt x="971" y="1426" on="0"/>
        <pt x="1008" y="1417" on="1"/>
        <pt x="1000" y="1272" on="1"/>
        <pt x="970" y="1284" on="0"/>
        <pt x="914" y="1294" on="0"/>
        <pt x="891" y="1294" on="1"/>
        <pt x="847" y="1294" on="0"/>
        <pt x="788" y="1273" on="0"/>
        <pt x="748" y="1234" on="0"/>
        <pt x="725" y="1176" on="0"/>
        <pt x="718" y="1139" on="1"/>
        <pt x="682" y="943" on="1"/>
        <pt x="882" y="943" on="1"/>
        <pt x="872" y="803" on="1"/>
        <pt x="659" y="803" on="1"/>
        <pt x="532" y="120" on="1"/>
        <pt x="515" y="31" on="0"/>
        <pt x="469" y="-133" on="0"/>
        <pt x="390" y="-258" on="0"/>
        <pt x="269" y="-332" on="0"/>
        <pt x="177" y="-332" on="1"/>
        <pt x="133" y="-332" on="0"/>
        <pt x="73" y="-316" on="1"/>
        <pt x="85" y="-178" on="1"/>
        <pt x="129" y="-194" on="0"/>
        <pt x="163" y="-194" on="1"/>
        <pt x="200" y="-194" on="0"/>
        <pt x="255" y="-162" on="0"/>
        <pt x="295" y="-107" on="0"/>
        <pt x="324" y="-34" on="0"/>
        <pt x="334" y="7" on="1"/>
        <pt x="358" y="103" on="0"/>
        <pt x="397" y="302" on="0"/>
        <pt x="433" y="503" on="0"/>
        <pt x="468" y="705" on="0"/>
        <pt x="487" y="803" on="1"/>
      </contour>
    </TTGlyph>
    <TTGlyph name="four" xMin="25" yMin="0" xMax="1112" yMax="1420">
      <contour>
        <pt x="726" y="0" on="1"/>
        <pt x="726" y="351" on="1"/>
        <pt x="25" y="351" on="1"/>
        <pt x="25" y="475" on="1"/>
        <pt x="690" y="1420" on="1"/>
        <pt x="898" y="1420" on="1"/>
        <pt x="898" y="483" on="1"/>
        <pt x="1112" y="483" on="1"/>
        <pt x="1112" y="351" on="1"/>
        <pt x="898" y="351" on="1"/>
        <pt x="898" y="0" on="1"/>
      </contour>
      <contour>
        <pt x="726" y="483" on="1"/>
        <pt x="726" y="1292" on="1"/>
        <pt x="638" y="1146" on="1"/>
        <pt x="196" y="483" on="1"/>
      </contour>
    </TTGlyph>
    <TTGlyph name="foursuperior" xMin="-22" yMin="615" xMax="597" yMax="1412">
      <contour>
        <pt x="356" y="615" on="1"/>
        <pt x="356" y="803" on="1"/>
        <pt x="-22" y="803" on="1"/>
        <pt x="-22" y="894" on="1"/>
        <pt x="344" y="1412" on="1"/>
        <pt x="478" y="1412" on="1"/>
        <pt x="478" y="910" on="1"/>
        <pt x="587" y="910" on="1"/>
        <pt x="597" y="803" on="1"/>
        <pt x="476" y="803" on="1"/>
        <pt x="476" y="615" on="1"/>
      </contour>
      <contour>
        <pt x="354" y="910" on="1"/>
        <pt x="354" y="1090" on="1"/>
        <pt x="357" y="1246" on="1"/>
        <pt x="117" y="910" on="1"/>
      </contour>
    </TTGlyph>
    <TTGlyph name="fraction" xMin="-337" yMin="0" xMax="717" yMax="1436">
      <contour>
        <pt x="717" y="1436" on="1"/>
        <pt x="-186" y="0" on="1"/>
        <pt x="-337" y="0" on="1"/>
        <pt x="568" y="1436" on="1"/>
      </contour>
    </TTGlyph>
    <TTGlyph name="g" xMin="91" yMin="-422" xMax="1083" yMax="1051">
      <contour>
        <pt x="201" y="-187" on="1"/>
        <pt x="280" y="-236" on="0"/>
        <pt x="454" y="-282" on="0"/>
        <pt x="538" y="-282" on="1"/>
        <pt x="626" y="-282" on="0"/>
        <pt x="765" y="-243" on="0"/>
        <pt x="861" y="-162" on="0"/>
        <pt x="912" y="-37" on="0"/>
        <pt x="912" y="49" on="1"/>
        <pt x="912" y="176" on="1"/>
        <pt x="852" y="88" on="0"/>
        <pt x="669" y="0" on="0"/>
        <pt x="560" y="0" on="1"/>
        <pt x="449" y="0" on="0"/>
        <pt x="275" y="74" on="0"/>
        <pt x="155" y="208" on="0"/>
        <pt x="91" y="396" on="0"/>
        <pt x="91" y="511" on="1"/>
        <pt x="91" y="620" on="0"/>
        <pt x="151" y="817" on="0"/>
        <pt x="271" y="964" on="0"/>
        <pt x="452" y="1051" on="0"/>
        <pt x="572" y="1051" on="1"/>
        <pt x="689" y="1051" on="0"/>
        <pt x="852" y="966" on="0"/>
        <pt x="912" y="885" on="1"/>
        <pt x="912" y="902" on="0"/>
        <pt x="914" y="951" on="0"/>
        <pt x="915" y="973" on="1"/>
        <pt x="916" y="999" on="0"/>
        <pt x="918" y="1026" on="1"/>
        <pt x="1083" y="1026" on="1"/>
        <pt x="1081" y="978" on="0"/>
        <pt x="1080" y="931" on="1"/>
        <pt x="1078" y="891" on="0"/>
        <pt x="1077" y="805" on="0"/>
        <pt x="1077" y="773" on="1"/>
        <pt x="1077" y="147" on="1"/>
        <pt x="1077" y="79" on="0"/>
        <pt x="1061" y="-58" on="0"/>
        <pt x="1019" y="-184" on="0"/>
        <pt x="945" y="-294" on="0"/>
        <pt x="828" y="-375" on="0"/>
        <pt x="662" y="-422" on="0"/>
        <pt x="550" y="-422" on="1"/>
        <pt x="450" y="-422" on="0"/>
        <pt x="265" y="-382" on="0"/>
        <pt x="182" y="-340" on="1"/>
      </contour>
      <contour>
        <pt x="912" y="550" on="1"/>
        <pt x="912" y="626" on="0"/>
        <pt x="868" y="760" on="0"/>
        <pt x="785" y="859" on="0"/>
        <pt x="667" y="917" on="0"/>
        <pt x="593" y="917" on="1"/>
        <pt x="512" y="917" on="0"/>
        <pt x="389" y="852" on="0"/>
        <pt x="306" y="741" on="0"/>
        <pt x="265" y="595" on="0"/>
        <pt x="265" y="515" on="1"/>
        <pt x="265" y="428" on="0"/>
        <pt x="298" y="288" on="0"/>
        <pt x="375" y="189" on="0"/>
        <pt x="499" y="135" on="0"/>
        <pt x="590" y="135" on="1"/>
        <pt x="680" y="135" on="0"/>
        <pt x="804" y="206" on="0"/>
        <pt x="879" y="322" on="0"/>
        <pt x="912" y="471" on="0"/>
      </contour>
    </TTGlyph>
    <TTGlyph name="germandbls" xMin="174" yMin="-23" xMax="1173" yMax="1511">
      <contour>
        <pt x="536" y="243" on="1"/>
        <pt x="595" y="174" on="0"/>
        <pt x="728" y="109" on="0"/>
        <pt x="788" y="109" on="1"/>
        <pt x="828" y="109" on="0"/>
        <pt x="900" y="137" on="0"/>
        <pt x="954" y="191" on="0"/>
        <pt x="986" y="271" on="0"/>
        <pt x="986" y="322" on="1"/>
        <pt x="986" y="398" on="0"/>
        <pt x="917" y="518" on="0"/>
        <pt x="807" y="617" on="0"/>
        <pt x="671" y="699" on="0"/>
        <pt x="605" y="737" on="1"/>
        <pt x="572" y="756" on="1"/>
        <pt x="588" y="892" on="1"/>
        <pt x="634" y="913" on="0"/>
        <pt x="719" y="973" on="0"/>
        <pt x="784" y="1050" on="0"/>
        <pt x="823" y="1140" on="0"/>
        <pt x="823" y="1191" on="1"/>
        <pt x="823" y="1236" on="0"/>
        <pt x="791" y="1306" on="0"/>
        <pt x="734" y="1356" on="0"/>
        <pt x="652" y="1382" on="0"/>
        <pt x="603" y="1382" on="1"/>
        <pt x="533" y="1382" on="0"/>
        <pt x="432" y="1327" on="0"/>
        <pt x="368" y="1234" on="0"/>
        <pt x="337" y="1108" on="0"/>
        <pt x="337" y="1038" on="1"/>
        <pt x="337" y="973" on="0"/>
        <pt x="338" y="805" on="0"/>
        <pt x="338" y="617" on="0"/>
        <pt x="340" y="420" on="0"/>
        <pt x="340" y="232" on="0"/>
        <pt x="341" y="64" on="0"/>
        <pt x="341" y="0" on="1"/>
        <pt x="176" y="0" on="1"/>
        <pt x="174" y="1071" on="1"/>
        <pt x="173" y="1171" on="0"/>
        <pt x="231" y="1333" on="0"/>
        <pt x="342" y="1448" on="0"/>
        <pt x="502" y="1511" on="0"/>
        <pt x="604" y="1511" on="1"/>
        <pt x="700" y="1511" on="0"/>
        <pt x="851" y="1461" on="0"/>
        <pt x="956" y="1374" on="0"/>
        <pt x="1011" y="1258" on="0"/>
        <pt x="1011" y="1192" on="1"/>
        <pt x="1011" y="1125" on="0"/>
        <pt x="947" y="1006" on="0"/>
        <pt x="855" y="909" on="0"/>
        <pt x="755" y="835" on="0"/>
        <pt x="719" y="813" on="1"/>
        <pt x="712" y="809" on="0"/>
        <pt x="712" y="806" on="1"/>
        <pt x="712" y="803" on="0"/>
        <pt x="719" y="800" on="1"/>
        <pt x="798" y="769" on="0"/>
        <pt x="959" y="692" on="0"/>
        <pt x="1090" y="584" on="0"/>
        <pt x="1173" y="440" on="0"/>
        <pt x="1173" y="341" on="1"/>
        <pt x="1173" y="258" on="0"/>
        <pt x="1109" y="124" on="0"/>
        <pt x="1002" y="29" on="0"/>
        <pt x="865" y="-23" on="0"/>
        <pt x="792" y="-23" on="1"/>
        <pt x="706" y="-23" on="0"/>
        <pt x="537" y="54" on="0"/>
        <pt x="471" y="138" on="1"/>
      </contour>
    </TTGlyph>
    <TTGlyph name="grave" xMin="1" yMin="1172" xMax="462" yMax="1492">
      <contour>
        <pt x="1" y="1492" on="1"/>
        <pt x="215" y="1492" on="1"/>
        <pt x="462" y="1172" on="1"/>
        <pt x="333" y="1172" on="1"/>
      </contour>
    </TTGlyph>
    <TTGlyph name="greater" xMin="215" yMin="58" xMax="1225" yMax="1078">
      <contour>
        <pt x="1004" y="555" on="1"/>
        <pt x="220" y="926" on="1"/>
        <pt x="220" y="1078" on="1"/>
        <pt x="1225" y="594" on="1"/>
        <pt x="1225" y="505" on="1"/>
        <pt x="215" y="58" on="1"/>
        <pt x="215" y="212" on="1"/>
      </contour>
    </TTGlyph>
    <TTGlyph name="greaterequal" xMin="161" yMin="9" xMax="1171" yMax="1221">
      <contour>
        <pt x="1171" y="9" on="1"/>
        <pt x="161" y="9" on="1"/>
        <pt x="161" y="131" on="1"/>
        <pt x="1171" y="131" on="1"/>
      </contour>
      <contour>
        <pt x="196" y="1221" on="1"/>
        <pt x="1152" y="748" on="1"/>
        <pt x="1152" y="668" on="1"/>
        <pt x="192" y="218" on="1"/>
        <pt x="192" y="359" on="1"/>
        <pt x="974" y="707" on="1"/>
        <pt x="196" y="1081" on="1"/>
      </contour>
    </TTGlyph>
    <TTGlyph name="guillemotleft" xMin="246" yMin="171" xMax="1049" yMax="914">
      <contour>
        <pt x="521" y="914" on="1"/>
        <pt x="681" y="914" on="1"/>
        <pt x="416" y="541" on="1"/>
        <pt x="672" y="171" on="1"/>
        <pt x="515" y="171" on="1"/>
        <pt x="246" y="541" on="1"/>
      </contour>
      <contour>
        <pt x="890" y="914" on="1"/>
        <pt x="1049" y="914" on="1"/>
        <pt x="786" y="541" on="1"/>
        <pt x="1042" y="171" on="1"/>
        <pt x="885" y="171" on="1"/>
        <pt x="616" y="541" on="1"/>
      </contour>
    </TTGlyph>
    <TTGlyph name="guillemotright" xMin="165" yMin="171" xMax="996" yMax="914">
      <contour>
        <pt x="720" y="171" on="1"/>
        <pt x="563" y="171" on="1"/>
        <pt x="824" y="542" on="1"/>
        <pt x="570" y="914" on="1"/>
        <pt x="726" y="914" on="1"/>
        <pt x="996" y="542" on="1"/>
      </contour>
      <contour>
        <pt x="325" y="171" on="1"/>
        <pt x="165" y="171" on="1"/>
        <pt x="430" y="542" on="1"/>
        <pt x="172" y="914" on="1"/>
        <pt x="330" y="914" on="1"/>
        <pt x="600" y="542" on="1"/>
      </contour>
    </TTGlyph>
    <TTGlyph name="guilsinglleft" xMin="105" yMin="171" xMax="538" yMax="914">
      <contour>
        <pt x="379" y="914" on="1"/>
        <pt x="538" y="914" on="1"/>
        <pt x="275" y="541" on="1"/>
        <pt x="530" y="171" on="1"/>
        <pt x="374" y="171" on="1"/>
        <pt x="105" y="541" on="1"/>
      </contour>
    </TTGlyph>
    <TTGlyph name="guilsinglright" xMin="103" yMin="171" xMax="537" yMax="914">
      <contour>
        <pt x="260" y="171" on="1"/>
        <pt x="103" y="171" on="1"/>
        <pt x="365" y="542" on="1"/>
        <pt x="111" y="914" on="1"/>
        <pt x="266" y="914" on="1"/>
        <pt x="537" y="542" on="1"/>
      </contour>
    </TTGlyph>
    <TTGlyph name="h" xMin="169" yMin="0" xMax="1054" yMax="1492">
      <contour>
        <pt x="334" y="1492" on="1"/>
        <pt x="334" y="890" on="1"/>
        <pt x="397" y="975" on="0"/>
        <pt x="565" y="1051" on="0"/>
        <pt x="679" y="1051" on="1"/>
        <pt x="791" y="1051" on="0"/>
        <pt x="936" y="978" on="0"/>
        <pt x="1021" y="860" on="0"/>
        <pt x="1054" y="712" on="0"/>
        <pt x="1054" y="636" on="1"/>
        <pt x="1054" y="0" on="1"/>
        <pt x="889" y="0" on="1"/>
        <pt x="889" y="626" on="1"/>
        <pt x="889" y="690" on="0"/>
        <pt x="864" y="797" on="0"/>
        <pt x="805" y="874" on="0"/>
        <pt x="706" y="917" on="0"/>
        <pt x="633" y="917" on="1"/>
        <pt x="562" y="917" on="0"/>
        <pt x="451" y="864" on="0"/>
        <pt x="375" y="773" on="0"/>
        <pt x="334" y="652" on="0"/>
        <pt x="334" y="585" on="1"/>
        <pt x="334" y="0" on="1"/>
        <pt x="169" y="0" on="1"/>
        <pt x="169" y="1492" on="1"/>
      </contour>
    </TTGlyph>
    <TTGlyph name="hungarumlaut" xMin="162" yMin="1174" xMax="825" yMax="1487">
      <contour>
        <pt x="429" y="1174" on="1"/>
        <pt x="649" y="1487" on="1"/>
        <pt x="825" y="1487" on="1"/>
        <pt x="549" y="1174" on="1"/>
      </contour>
      <contour>
        <pt x="162" y="1174" on="1"/>
        <pt x="379" y="1487" on="1"/>
        <pt x="555" y="1487" on="1"/>
        <pt x="280" y="1174" on="1"/>
      </contour>
    </TTGlyph>
    <TTGlyph name="hyphen" xMin="79" yMin="489" xMax="651" yMax="626">
      <contour>
        <pt x="80" y="489" on="1"/>
        <pt x="79" y="626" on="1"/>
        <pt x="650" y="626" on="1"/>
        <pt x="651" y="489" on="1"/>
      </contour>
    </TTGlyph>
    <TTGlyph name="i" xMin="167" yMin="0" xMax="332" yMax="1462">
      <contour>
        <pt x="328" y="1462" on="1"/>
        <pt x="328" y="1307" on="1"/>
        <pt x="175" y="1307" on="1"/>
        <pt x="175" y="1462" on="1"/>
      </contour>
      <contour>
        <pt x="167" y="1026" on="1"/>
        <pt x="332" y="1026" on="1"/>
        <pt x="332" y="0" on="1"/>
        <pt x="167" y="0" on="1"/>
      </contour>
    </TTGlyph>
    <TTGlyph name="iacute" xMin="34" yMin="0" xMax="472" yMax="1492">
      <component glyphName="dotlessi" x="0" y="0" flags="0x1204"/>
      <component glyphName="acute" x="-141" y="0" flags="0x1004"/>
    </TTGlyph>
    <TTGlyph name="icircumflex" xMin="-54" yMin="0" xMax="560" yMax="1494">
      <component glyphName="dotlessi" x="0" y="0" flags="0x1204"/>
      <component glyphName="circumflex" x="-89" y="0" flags="0x1004"/>
    </TTGlyph>
    <TTGlyph name="idieresis" xMin="5" yMin="0" xMax="501" yMax="1409">
      <component glyphName="dotlessi" x="0" y="0" flags="0x1204"/>
      <component glyphName="dieresis" x="-117" y="0" flags="0x1004"/>
    </TTGlyph>
    <TTGlyph name="igrave" xMin="21" yMin="0" xMax="482" yMax="1492">
      <component glyphName="dotlessi" x="0" y="0" flags="0x1204"/>
      <component glyphName="grave" x="20" y="0" flags="0x1004"/>
    </TTGlyph>
    <TTGlyph name="infinity" xMin="96" yMin="236" xMax="1621" yMax="944">
      <contour>
        <pt x="1482" y="618" on="1"/>
        <pt x="1482" y="661" on="0"/>
        <pt x="1449" y="737" on="0"/>
        <pt x="1390" y="795" on="0"/>
        <pt x="1307" y="829" on="0"/>
        <pt x="1258" y="829" on="1"/>
        <pt x="1208" y="829" on="0"/>
        <pt x="1117" y="789" on="0"/>
        <pt x="1034" y="723" on="0"/>
        <pt x="960" y="638" on="0"/>
        <pt x="929" y="592" on="1"/>
        <pt x="974" y="534" on="0"/>
        <pt x="1055" y="445" on="0"/>
        <pt x="1134" y="385" on="0"/>
        <pt x="1217" y="355" on="0"/>
        <pt x="1263" y="355" on="1"/>
        <pt x="1319" y="355" on="0"/>
        <pt x="1402" y="396" on="0"/>
        <pt x="1456" y="466" on="0"/>
        <pt x="1482" y="562" on="0"/>
      </contour>
      <contour>
        <pt x="226" y="592" on="1"/>
        <pt x="226" y="547" on="0"/>
        <pt x="260" y="461" on="0"/>
        <pt x="322" y="395" on="0"/>
        <pt x="409" y="355" on="0"/>
        <pt x="463" y="355" on="1"/>
        <pt x="511" y="355" on="0"/>
        <pt x="600" y="392" on="0"/>
        <pt x="682" y="455" on="0"/>
        <pt x="756" y="541" on="0"/>
        <pt x="791" y="589" on="1"/>
        <pt x="756" y="640" on="0"/>
        <pt x="681" y="727" on="0"/>
        <pt x="598" y="792" on="0"/>
        <pt x="505" y="829" on="0"/>
        <pt x="453" y="829" on="1"/>
        <pt x="399" y="829" on="0"/>
        <pt x="315" y="791" on="0"/>
        <pt x="257" y="726" on="0"/>
        <pt x="226" y="640" on="0"/>
      </contour>
      <contour>
        <pt x="1621" y="595" on="1"/>
        <pt x="1621" y="515" on="0"/>
        <pt x="1562" y="383" on="0"/>
        <pt x="1463" y="288" on="0"/>
        <pt x="1332" y="236" on="0"/>
        <pt x="1260" y="236" on="1"/>
        <pt x="1149" y="236" on="0"/>
        <pt x="959" y="362" on="0"/>
        <pt x="860" y="488" on="1"/>
        <pt x="817" y="433" on="0"/>
        <pt x="727" y="340" on="0"/>
        <pt x="628" y="273" on="0"/>
        <pt x="520" y="236" on="0"/>
        <pt x="460" y="236" on="1"/>
        <pt x="379" y="236" on="0"/>
        <pt x="245" y="296" on="0"/>
        <pt x="149" y="399" on="0"/>
        <pt x="96" y="536" on="0"/>
        <pt x="96" y="612" on="1"/>
        <pt x="96" y="681" on="0"/>
        <pt x="155" y="802" on="0"/>
        <pt x="254" y="892" on="0"/>
        <pt x="384" y="944" on="0"/>
        <pt x="455" y="944" on="1"/>
        <pt x="516" y="944" on="0"/>
        <pt x="626" y="908" on="0"/>
        <pt x="726" y="842" on="0"/>
        <pt x="818" y="749" on="0"/>
        <pt x="862" y="692" on="1"/>
        <pt x="904" y="747" on="0"/>
        <pt x="992" y="840" on="0"/>
        <pt x="1089" y="907" on="0"/>
        <pt x="1199" y="944" on="0"/>
        <pt x="1262" y="944" on="1"/>
        <pt x="1344" y="944" on="0"/>
        <pt x="1477" y="892" on="0"/>
        <pt x="1570" y="799" on="0"/>
        <pt x="1621" y="671" on="0"/>
      </contour>
    </TTGlyph>
    <TTGlyph name="integral" xMin="122" yMin="-399" xMax="830" yMax="1631">
      <contour>
        <pt x="393" y="1255" on="1"/>
        <pt x="393" y="1336" on="0"/>
        <pt x="423" y="1474" on="0"/>
        <pt x="492" y="1574" on="0"/>
        <pt x="607" y="1631" on="0"/>
        <pt x="692" y="1631" on="1"/>
        <pt x="713" y="1631" on="0"/>
        <pt x="747" y="1628" on="0"/>
        <pt x="778" y="1622" on="0"/>
        <pt x="810" y="1614" on="0"/>
        <pt x="828" y="1610" on="1"/>
        <pt x="830" y="1481" on="1"/>
        <pt x="810" y="1489" on="0"/>
        <pt x="749" y="1496" on="0"/>
        <pt x="720" y="1496" on="1"/>
        <pt x="669" y="1496" on="0"/>
        <pt x="605" y="1468" on="0"/>
        <pt x="570" y="1413" on="0"/>
        <pt x="557" y="1332" on="0"/>
        <pt x="557" y="1279" on="1"/>
        <pt x="557" y="-23" on="1"/>
        <pt x="557" y="-104" on="0"/>
        <pt x="528" y="-242" on="0"/>
        <pt x="459" y="-342" on="0"/>
        <pt x="345" y="-399" on="0"/>
        <pt x="260" y="-399" on="1"/>
        <pt x="239" y="-399" on="0"/>
        <pt x="205" y="-396" on="0"/>
        <pt x="174" y="-390" on="0"/>
        <pt x="142" y="-383" on="0"/>
        <pt x="124" y="-378" on="1"/>
        <pt x="122" y="-249" on="1"/>
        <pt x="142" y="-257" on="0"/>
        <pt x="203" y="-264" on="0"/>
        <pt x="232" y="-264" on="1"/>
        <pt x="283" y="-264" on="0"/>
        <pt x="346" y="-236" on="0"/>
        <pt x="381" y="-181" on="0"/>
        <pt x="393" y="-100" on="0"/>
        <pt x="393" y="-47" on="1"/>
      </contour>
    </TTGlyph>
    <TTGlyph name="j" xMin="-102" yMin="-429" xMax="340" yMax="1462">
      <contour>
        <pt x="327" y="1462" on="1"/>
        <pt x="327" y="1307" on="1"/>
        <pt x="174" y="1307" on="1"/>
        <pt x="174" y="1462" on="1"/>
      </contour>
      <contour>
        <pt x="-102" y="-273" on="1"/>
        <pt x="-75" y="-278" on="0"/>
        <pt x="-34" y="-283" on="0"/>
        <pt x="-18" y="-283" on="1"/>
        <pt x="79" y="-283" on="0"/>
        <pt x="175" y="-132" on="0"/>
        <pt x="175" y="31" on="1"/>
        <pt x="175" y="1026" on="1"/>
        <pt x="340" y="1026" on="1"/>
        <pt x="340" y="106" on="1"/>
        <pt x="341" y="50" on="0"/>
        <pt x="334" y="-73" on="0"/>
        <pt x="312" y="-192" on="0"/>
        <pt x="270" y="-300" on="0"/>
        <pt x="199" y="-381" on="0"/>
        <pt x="94" y="-429" on="0"/>
        <pt x="21" y="-429" on="1"/>
        <pt x="-37" y="-429" on="0"/>
        <pt x="-101" y="-416" on="1"/>
      </contour>
    </TTGlyph>
    <TTGlyph name="k" xMin="178" yMin="0" xMax="1072" yMax="1492">
      <contour>
        <pt x="343" y="1492" on="1"/>
        <pt x="343" y="587" on="1"/>
        <pt x="809" y="1026" on="1"/>
        <pt x="1034" y="1026" on="1"/>
        <pt x="504" y="542" on="1"/>
        <pt x="645" y="407" on="0"/>
        <pt x="931" y="135" on="0"/>
        <pt x="1072" y="0" on="1"/>
        <pt x="853" y="0" on="1"/>
        <pt x="343" y="501" on="1"/>
        <pt x="343" y="0" on="1"/>
        <pt x="178" y="0" on="1"/>
        <pt x="178" y="1492" on="1"/>
      </contour>
    </TTGlyph>
    <TTGlyph name="l" xMin="168" yMin="0" xMax="333" yMax="1492">
      <contour>
        <pt x="333" y="1492" on="1"/>
        <pt x="333" y="0" on="1"/>
        <pt x="168" y="0" on="1"/>
        <pt x="168" y="1492" on="1"/>
      </contour>
    </TTGlyph>
    <TTGlyph name="less" xMin="218" yMin="48" xMax="1227" yMax="1067">
      <contour>
        <pt x="438" y="552" on="1"/>
        <pt x="1222" y="200" on="1"/>
        <pt x="1223" y="48" on="1"/>
        <pt x="218" y="508" on="1"/>
        <pt x="219" y="595" on="1"/>
        <pt x="1226" y="1067" on="1"/>
        <pt x="1227" y="914" on="1"/>
      </contour>
    </TTGlyph>
    <TTGlyph name="lessequal" xMin="161" yMin="9" xMax="1175" yMax="1219">
      <contour>
        <pt x="1175" y="9" on="1"/>
        <pt x="161" y="9" on="1"/>
        <pt x="161" y="131" on="1"/>
        <pt x="1175" y="131" on="1"/>
      </contour>
      <contour>
        <pt x="1146" y="216" on="1"/>
        <pt x="197" y="666" on="1"/>
        <pt x="197" y="747" on="1"/>
        <pt x="1146" y="1219" on="1"/>
        <pt x="1146" y="1079" on="1"/>
        <pt x="370" y="709" on="1"/>
        <pt x="372" y="710" on="1"/>
        <pt x="1146" y="357" on="1"/>
      </contour>
    </TTGlyph>
    <TTGlyph name="logicalnot" xMin="200" yMin="238" xMax="1248" yMax="798">
      <contour>
        <pt x="1098" y="238" on="1"/>
        <pt x="1098" y="659" on="1"/>
        <pt x="200" y="659" on="1"/>
        <pt x="200" y="798" on="1"/>
        <pt x="1248" y="798" on="1"/>
        <pt x="1248" y="238" on="1"/>
      </contour>
    </TTGlyph>
    <TTGlyph name="lozenge" xMin="112" yMin="-45" xMax="1130" yMax="1470">
      <contour>
        <pt x="680" y="214" on="1"/>
        <pt x="979" y="711" on="1"/>
        <pt x="686" y="1213" on="1"/>
        <pt x="625" y="1324" on="1"/>
        <pt x="560" y="1207" on="1"/>
        <pt x="261" y="713" on="1"/>
        <pt x="552" y="211" on="1"/>
        <pt x="615" y="98" on="1"/>
      </contour>
      <contour>
        <pt x="1130" y="712" on="1"/>
        <pt x="668" y="-45" on="1"/>
        <pt x="562" y="-45" on="1"/>
        <pt x="112" y="711" on="1"/>
        <pt x="570" y="1470" on="1"/>
        <pt x="677" y="1470" on="1"/>
      </contour>
    </TTGlyph>
    <TTGlyph name="lslash" xMin="-34" yMin="0" xMax="551" yMax="1492">
      <contour>
        <pt x="333" y="1492" on="1"/>
        <pt x="333" y="903" on="1"/>
        <pt x="488" y="984" on="1"/>
        <pt x="551" y="863" on="1"/>
        <pt x="333" y="749" on="1"/>
        <pt x="333" y="0" on="1"/>
        <pt x="168" y="0" on="1"/>
        <pt x="168" y="664" on="1"/>
        <pt x="29" y="592" on="1"/>
        <pt x="-34" y="713" on="1"/>
        <pt x="168" y="818" on="1"/>
        <pt x="168" y="1492" on="1"/>
      </contour>
    </TTGlyph>
    <TTGlyph name="m" xMin="163" yMin="0" xMax="1733" yMax="1051">
      <contour>
        <pt x="330" y="1026" on="1"/>
        <pt x="334" y="888" on="1"/>
        <pt x="394" y="972" on="0"/>
        <pt x="559" y="1051" on="0"/>
        <pt x="665" y="1051" on="1"/>
        <pt x="723" y="1051" on="0"/>
        <pt x="826" y="1022" on="0"/>
        <pt x="911" y="970" on="0"/>
        <pt x="975" y="895" on="0"/>
        <pt x="994" y="849" on="1"/>
        <pt x="1052" y="954" on="0"/>
        <pt x="1234" y="1051" on="0"/>
        <pt x="1366" y="1051" on="1"/>
        <pt x="1475" y="1051" on="0"/>
        <pt x="1617" y="980" on="0"/>
        <pt x="1700" y="864" on="0"/>
        <pt x="1733" y="715" on="0"/>
        <pt x="1733" y="636" on="1"/>
        <pt x="1733" y="0" on="1"/>
        <pt x="1568" y="0" on="1"/>
        <pt x="1568" y="558" on="1"/>
        <pt x="1568" y="622" on="0"/>
        <pt x="1553" y="750" on="0"/>
        <pt x="1502" y="853" on="0"/>
        <pt x="1402" y="917" on="0"/>
        <pt x="1317" y="917" on="1"/>
        <pt x="1250" y="917" on="0"/>
        <pt x="1145" y="862" on="0"/>
        <pt x="1072" y="770" on="0"/>
        <pt x="1034" y="651" on="0"/>
        <pt x="1034" y="587" on="1"/>
        <pt x="1034" y="0" on="1"/>
        <pt x="869" y="0" on="1"/>
        <pt x="869" y="635" on="1"/>
        <pt x="869" y="693" on="0"/>
        <pt x="841" y="796" on="0"/>
        <pt x="780" y="872" on="0"/>
        <pt x="684" y="917" on="0"/>
        <pt x="616" y="917" on="1"/>
        <pt x="548" y="917" on="0"/>
        <pt x="443" y="864" on="0"/>
        <pt x="371" y="774" on="0"/>
        <pt x="334" y="654" on="0"/>
        <pt x="334" y="587" on="1"/>
        <pt x="334" y="0" on="1"/>
        <pt x="169" y="0" on="1"/>
        <pt x="169" y="761" on="1"/>
        <pt x="169" y="827" on="0"/>
        <pt x="166" y="963" on="0"/>
        <pt x="163" y="1026" on="1"/>
      </contour>
    </TTGlyph>
    <TTGlyph name="minus" xMin="198" yMin="496" xMax="1247" yMax="633">
      <contour>
        <pt x="1247" y="633" on="1"/>
        <pt x="1247" y="496" on="1"/>
        <pt x="198" y="496" on="1"/>
        <pt x="198" y="633" on="1"/>
      </contour>
    </TTGlyph>
    <TTGlyph name="mu" xMin="157" yMin="-202" xMax="1051" yMax="1026">
      <contour>
        <pt x="157" y="1026" on="1"/>
        <pt x="322" y="1026" on="1"/>
        <pt x="322" y="399" on="1"/>
        <pt x="322" y="256" on="0"/>
        <pt x="445" y="109" on="0"/>
        <pt x="578" y="109" on="1"/>
        <pt x="650" y="109" on="0"/>
        <pt x="761" y="161" on="0"/>
        <pt x="838" y="251" on="0"/>
        <pt x="878" y="370" on="0"/>
        <pt x="878" y="436" on="1"/>
        <pt x="878" y="1026" on="1"/>
        <pt x="1043" y="1026" on="1"/>
        <pt x="1043" y="246" on="1"/>
        <pt x="1043" y="180" on="0"/>
        <pt x="1046" y="63" on="0"/>
        <pt x="1051" y="0" on="1"/>
        <pt x="881" y="0" on="1"/>
        <pt x="878" y="135" on="1"/>
        <pt x="762" y="-23" on="0"/>
        <pt x="540" y="-23" on="1"/>
        <pt x="471" y="-23" on="0"/>
        <pt x="364" y="6" on="0"/>
        <pt x="322" y="31" on="1"/>
        <pt x="322" y="-202" on="1"/>
        <pt x="157" y="-202" on="1"/>
      </contour>
    </TTGlyph>
    <TTGlyph name="multiply" xMin="322" yMin="154" xMax="1122" yMax="954">
      <contour>
        <pt x="825" y="554" on="1"/>
        <pt x="1122" y="258" on="1"/>
        <pt x="1018" y="154" on="1"/>
        <pt x="722" y="450" on="1"/>
        <pt x="425" y="154" on="1"/>
        <pt x="322" y="257" on="1"/>
        <pt x="618" y="554" on="1"/>
        <pt x="322" y="851" on="1"/>
        <pt x="425" y="954" on="1"/>
        <pt x="722" y="657" on="1"/>
        <pt x="1018" y="954" on="1"/>
        <pt x="1122" y="850" on="1"/>
      </contour>
    </TTGlyph>
    <TTGlyph name="n" xMin="162" yMin="0" xMax="1053" yMax="1051">
      <contour>
        <pt x="333" y="0" on="1"/>
        <pt x="168" y="0" on="1"/>
        <pt x="168" y="779" on="1"/>
        <pt x="168" y="825" on="0"/>
        <pt x="166" y="914" on="0"/>
        <pt x="165" y="949" on="1"/>
        <pt x="163" y="989" on="0"/>
        <pt x="162" y="1026" on="1"/>
        <pt x="329" y="1026" on="1"/>
        <pt x="333" y="884" on="1"/>
        <pt x="393" y="969" on="0"/>
        <pt x="562" y="1051" on="0"/>
        <pt x="677" y="1051" on="1"/>
        <pt x="789" y="1051" on="0"/>
        <pt x="935" y="977" on="0"/>
        <pt x="1020" y="844" on="0"/>
        <pt x="1053" y="660" on="0"/>
        <pt x="1053" y="550" on="1"/>
        <pt x="1053" y="0" on="1"/>
        <pt x="888" y="0" on="1"/>
        <pt x="888" y="531" on="1"/>
        <pt x="888" y="618" on="0"/>
        <pt x="873" y="761" on="0"/>
        <pt x="824" y="862" on="0"/>
        <pt x="728" y="917" on="0"/>
        <pt x="647" y="917" on="1"/>
        <pt x="572" y="917" on="0"/>
        <pt x="456" y="859" on="0"/>
        <pt x="376" y="777" on="0"/>
        <pt x="333" y="686" on="0"/>
        <pt x="333" y="652" on="1"/>
      </contour>
    </TTGlyph>
    <TTGlyph name="nine" xMin="88" yMin="-23" xMax="1093" yMax="1453">
      <contour>
        <pt x="237" y="234" on="1"/>
        <pt x="290" y="177" on="0"/>
        <pt x="430" y="119" on="0"/>
        <pt x="517" y="119" on="1"/>
        <pt x="617" y="119" on="0"/>
        <pt x="767" y="215" on="0"/>
        <pt x="868" y="376" on="0"/>
        <pt x="918" y="588" on="0"/>
        <pt x="918" y="705" on="1"/>
        <pt x="918" y="707" on="1"/>
        <pt x="861" y="617" on="0"/>
        <pt x="670" y="533" on="0"/>
        <pt x="545" y="533" on="1"/>
        <pt x="440" y="533" on="0"/>
        <pt x="271" y="600" on="0"/>
        <pt x="152" y="719" on="0"/>
        <pt x="88" y="885" on="0"/>
        <pt x="88" y="984" on="1"/>
        <pt x="88" y="1083" on="0"/>
        <pt x="157" y="1255" on="0"/>
        <pt x="285" y="1381" on="0"/>
        <pt x="468" y="1453" on="0"/>
        <pt x="581" y="1453" on="1"/>
        <pt x="703" y="1453" on="0"/>
        <pt x="894" y="1362" on="0"/>
        <pt x="1025" y="1185" on="0"/>
        <pt x="1093" y="926" on="0"/>
        <pt x="1093" y="758" on="1"/>
        <pt x="1093" y="585" on="0"/>
        <pt x="1017" y="298" on="0"/>
        <pt x="869" y="91" on="0"/>
        <pt x="653" y="-23" on="0"/>
        <pt x="514" y="-23" on="1"/>
        <pt x="405" y="-23" on="0"/>
        <pt x="236" y="52" on="0"/>
        <pt x="183" y="121" on="1"/>
      </contour>
      <contour>
        <pt x="572" y="673" on="1"/>
        <pt x="632" y="673" on="0"/>
        <pt x="737" y="705" on="0"/>
        <pt x="823" y="764" on="0"/>
        <pt x="886" y="845" on="0"/>
        <pt x="903" y="894" on="1"/>
        <pt x="902" y="901" on="0"/>
        <pt x="902" y="921" on="0"/>
        <pt x="902" y="929" on="1"/>
        <pt x="902" y="999" on="0"/>
        <pt x="865" y="1136" on="0"/>
        <pt x="785" y="1245" on="0"/>
        <pt x="660" y="1312" on="0"/>
        <pt x="573" y="1312" on="1"/>
        <pt x="503" y="1312" on="0"/>
        <pt x="389" y="1263" on="0"/>
        <pt x="308" y="1176" on="0"/>
        <pt x="264" y="1058" on="0"/>
        <pt x="264" y="989" on="1"/>
        <pt x="264" y="922" on="0"/>
        <pt x="301" y="806" on="0"/>
        <pt x="377" y="721" on="0"/>
        <pt x="493" y="673" on="0"/>
      </contour>
    </TTGlyph>
    <TTGlyph name="notequal" xMin="160" yMin="46" xMax="1182" yMax="1123">
      <contour>
        <pt x="989" y="1105" on="1"/>
        <pt x="862" y="849" on="1"/>
        <pt x="1172" y="849" on="1"/>
        <pt x="1182" y="728" on="1"/>
        <pt x="804" y="728" on="1"/>
        <pt x="656" y="445" on="1"/>
        <pt x="1173" y="445" on="1"/>
        <pt x="1182" y="325" on="1"/>
        <pt x="597" y="325" on="1"/>
        <pt x="457" y="46" on="1"/>
        <pt x="335" y="64" on="1"/>
        <pt x="463" y="325" on="1"/>
        <pt x="170" y="325" on="1"/>
        <pt x="161" y="445" on="1"/>
        <pt x="524" y="445" on="1"/>
        <pt x="671" y="728" on="1"/>
        <pt x="170" y="728" on="1"/>
        <pt x="160" y="849" on="1"/>
        <pt x="728" y="849" on="1"/>
        <pt x="864" y="1123" on="1"/>
      </contour>
    </TTGlyph>
    <TTGlyph name="ntilde" xMin="162" yMin="0" xMax="1053" yMax="1435">
      <component glyphName="n" x="0" y="0" flags="0x1204"/>
      <component glyphName="tilde" x="272" y="0" flags="0x1004"/>
    </TTGlyph>
    <TTGlyph name="numbersign" xMin="42" yMin="60" xMax="1184" yMax="1420">
      <contour>
        <pt x="1184" y="1010" on="1"/>
        <pt x="1170" y="886" on="1"/>
        <pt x="920" y="886" on="1"/>
        <pt x="869" y="611" on="1"/>
        <pt x="1121" y="611" on="1"/>
        <pt x="1107" y="485" on="1"/>
        <pt x="847" y="485" on="1"/>
        <pt x="764" y="60" on="1"/>
        <pt x="619" y="60" on="1"/>
        <pt x="699" y="485" on="1"/>
        <pt x="438" y="485" on="1"/>
        <pt x="356" y="60" on="1"/>
        <pt x="210" y="60" on="1"/>
        <pt x="294" y="485" on="1"/>
        <pt x="42" y="485" on="1"/>
        <pt x="53" y="611" on="1"/>
        <pt x="318" y="611" on="1"/>
        <pt x="330" y="681" on="0"/>
        <pt x="355" y="816" on="0"/>
        <pt x="368" y="886" on="1"/>
        <pt x="107" y="886" on="1"/>
        <pt x="120" y="1010" on="1"/>
        <pt x="390" y="1010" on="1"/>
        <pt x="469" y="1420" on="1"/>
        <pt x="615" y="1420" on="1"/>
        <pt x="538" y="1010" on="1"/>
        <pt x="799" y="1010" on="1"/>
        <pt x="875" y="1420" on="1"/>
        <pt x="1021" y="1420" on="1"/>
        <pt x="943" y="1010" on="1"/>
      </contour>
      <contour>
        <pt x="775" y="886" on="1"/>
        <pt x="514" y="886" on="1"/>
        <pt x="460" y="611" on="1"/>
        <pt x="724" y="611" on="1"/>
      </contour>
    </TTGlyph>
    <TTGlyph name="o" xMin="90" yMin="-23" xMax="1140" yMax="1051">
      <contour>
        <pt x="620" y="1051" on="1"/>
        <pt x="749" y="1051" on="0"/>
        <pt x="944" y="967" on="0"/>
        <pt x="1074" y="821" on="0"/>
        <pt x="1140" y="625" on="0"/>
        <pt x="1140" y="513" on="1"/>
        <pt x="1140" y="405" on="0"/>
        <pt x="1071" y="210" on="0"/>
        <pt x="938" y="63" on="0"/>
        <pt x="742" y="-23" on="0"/>
        <pt x="616" y="-23" on="1"/>
        <pt x="488" y="-23" on="0"/>
        <pt x="292" y="61" on="0"/>
        <pt x="159" y="205" on="0"/>
        <pt x="90" y="400" on="0"/>
        <pt x="90" y="511" on="1"/>
        <pt x="90" y="622" on="0"/>
        <pt x="160" y="819" on="0"/>
        <pt x="295" y="966" on="0"/>
        <pt x="492" y="1051" on="0"/>
      </contour>
      <contour>
        <pt x="966" y="511" on="1"/>
        <pt x="966" y="593" on="0"/>
        <pt x="924" y="741" on="0"/>
        <pt x="838" y="852" on="0"/>
        <pt x="706" y="917" on="0"/>
        <pt x="616" y="917" on="1"/>
        <pt x="529" y="917" on="0"/>
        <pt x="397" y="850" on="0"/>
        <pt x="308" y="737" on="0"/>
        <pt x="263" y="589" on="0"/>
        <pt x="263" y="509" on="1"/>
        <pt x="263" y="429" on="0"/>
        <pt x="308" y="285" on="0"/>
        <pt x="397" y="174" on="0"/>
        <pt x="531" y="109" on="0"/>
        <pt x="620" y="109" on="1"/>
        <pt x="708" y="109" on="0"/>
        <pt x="838" y="175" on="0"/>
        <pt x="924" y="286" on="0"/>
        <pt x="966" y="431" on="0"/>
      </contour>
    </TTGlyph>
    <TTGlyph name="oacute" xMin="90" yMin="-23" xMax="1140" yMax="1492">
      <component glyphName="o" x="0" y="0" flags="0x1204"/>
      <component glyphName="acute" x="225" y="0" flags="0x1004"/>
    </TTGlyph>
    <TTGlyph name="ocircumflex" xMin="90" yMin="-23" xMax="1140" yMax="1494">
      <component glyphName="o" x="0" y="0" flags="0x1204"/>
      <component glyphName="circumflex" x="277" y="0" flags="0x1004"/>
    </TTGlyph>
    <TTGlyph name="odieresis" xMin="90" yMin="-23" xMax="1140" yMax="1409">
      <component glyphName="o" x="0" y="0" flags="0x1204"/>
      <component glyphName="dieresis" x="249" y="0" flags="0x1004"/>
    </TTGlyph>
    <TTGlyph name="oe" xMin="92" yMin="-28" xMax="1868" yMax="1053">
      <contour>
        <pt x="1113" y="470" on="1"/>
        <pt x="1113" y="393" on="0"/>
        <pt x="1151" y="261" on="0"/>
        <pt x="1228" y="164" on="0"/>
        <pt x="1343" y="109" on="0"/>
        <pt x="1421" y="109" on="1"/>
        <pt x="1524" y="109" on="0"/>
        <pt x="1695" y="208" on="0"/>
        <pt x="1748" y="292" on="1"/>
        <pt x="1836" y="206" on="1"/>
        <pt x="1769" y="85" on="0"/>
        <pt x="1546" y="-28" on="0"/>
        <pt x="1410" y="-28" on="1"/>
        <pt x="1274" y="-28" on="0"/>
        <pt x="1071" y="89" on="0"/>
        <pt x="1022" y="209" on="1"/>
        <pt x="1021" y="206" on="1"/>
        <pt x="997" y="145" on="0"/>
        <pt x="915" y="56" on="0"/>
        <pt x="808" y="-1" on="0"/>
        <pt x="680" y="-28" on="0"/>
        <pt x="610" y="-28" on="1"/>
        <pt x="487" y="-28" on="0"/>
        <pt x="294" y="56" on="0"/>
        <pt x="162" y="202" on="0"/>
        <pt x="92" y="398" on="0"/>
        <pt x="92" y="509" on="1"/>
        <pt x="92" y="620" on="0"/>
        <pt x="162" y="818" on="0"/>
        <pt x="297" y="967" on="0"/>
        <pt x="494" y="1053" on="0"/>
        <pt x="620" y="1053" on="1"/>
        <pt x="768" y="1053" on="0"/>
        <pt x="967" y="936" on="0"/>
        <pt x="1027" y="821" on="1"/>
        <pt x="1082" y="936" on="0"/>
        <pt x="1279" y="1053" on="0"/>
        <pt x="1417" y="1053" on="1"/>
        <pt x="1527" y="1053" on="0"/>
        <pt x="1696" y="977" on="0"/>
        <pt x="1810" y="839" on="0"/>
        <pt x="1868" y="644" on="0"/>
        <pt x="1868" y="525" on="1"/>
        <pt x="1868" y="472" on="1"/>
      </contour>
      <contour>
        <pt x="1695" y="609" on="1"/>
        <pt x="1696" y="675" on="0"/>
        <pt x="1662" y="788" on="0"/>
        <pt x="1594" y="871" on="0"/>
        <pt x="1492" y="917" on="0"/>
        <pt x="1423" y="917" on="1"/>
        <pt x="1354" y="917" on="0"/>
        <pt x="1243" y="866" on="0"/>
        <pt x="1163" y="781" on="0"/>
        <pt x="1117" y="669" on="0"/>
        <pt x="1113" y="609" on="1"/>
      </contour>
      <contour>
        <pt x="945" y="511" on="1"/>
        <pt x="945" y="597" on="0"/>
        <pt x="906" y="746" on="0"/>
        <pt x="825" y="855" on="0"/>
        <pt x="699" y="917" on="0"/>
        <pt x="612" y="917" on="1"/>
        <pt x="527" y="917" on="0"/>
        <pt x="398" y="850" on="0"/>
        <pt x="310" y="737" on="0"/>
        <pt x="265" y="589" on="0"/>
        <pt x="265" y="507" on="1"/>
        <pt x="265" y="426" on="0"/>
        <pt x="308" y="282" on="0"/>
        <pt x="396" y="173" on="0"/>
        <pt x="529" y="109" on="0"/>
        <pt x="620" y="109" on="1"/>
        <pt x="704" y="109" on="0"/>
        <pt x="827" y="175" on="0"/>
        <pt x="907" y="286" on="0"/>
        <pt x="945" y="431" on="0"/>
      </contour>
    </TTGlyph>
    <TTGlyph name="ogonek" xMin="48" yMin="-390" xMax="443" yMax="12">
      <contour>
        <pt x="289" y="-281" on="1"/>
        <pt x="312" y="-281" on="0"/>
        <pt x="350" y="-277" on="0"/>
        <pt x="386" y="-270" on="0"/>
        <pt x="422" y="-258" on="0"/>
        <pt x="443" y="-250" on="1"/>
        <pt x="443" y="-361" on="1"/>
        <pt x="428" y="-367" on="0"/>
        <pt x="386" y="-378" on="0"/>
        <pt x="338" y="-385" on="0"/>
        <pt x="288" y="-390" on="0"/>
        <pt x="266" y="-390" on="1"/>
        <pt x="220" y="-390" on="0"/>
        <pt x="141" y="-368" on="0"/>
        <pt x="82" y="-326" on="0"/>
        <pt x="48" y="-265" on="0"/>
        <pt x="48" y="-225" on="1"/>
        <pt x="48" y="-187" on="0"/>
        <pt x="85" y="-118" on="0"/>
        <pt x="145" y="-59" on="0"/>
        <pt x="222" y="-8" on="0"/>
        <pt x="263" y="12" on="1"/>
        <pt x="392" y="0" on="1"/>
        <pt x="348" y="-27" on="0"/>
        <pt x="274" y="-78" on="0"/>
        <pt x="220" y="-127" on="0"/>
        <pt x="189" y="-175" on="0"/>
        <pt x="189" y="-199" on="1"/>
        <pt x="189" y="-218" on="0"/>
        <pt x="207" y="-248" on="0"/>
        <pt x="235" y="-269" on="0"/>
        <pt x="271" y="-281" on="0"/>
      </contour>
    </TTGlyph>
    <TTGlyph name="ograve" xMin="90" yMin="-23" xMax="1140" yMax="1492">
      <component glyphName="o" x="0" y="0" flags="0x1204"/>
      <component glyphName="grave" x="387" y="0" flags="0x1004"/>
    </TTGlyph>
    <TTGlyph name="one" xMin="273" yMin="0" xMax="941" yMax="1438">
      <contour>
        <pt x="273" y="1269" on="1"/>
        <pt x="350" y="1296" on="0"/>
        <pt x="492" y="1369" on="0"/>
        <pt x="559" y="1411" on="1"/>
        <pt x="724" y="1438" on="1"/>
        <pt x="724" y="143" on="1"/>
        <pt x="941" y="143" on="1"/>
        <pt x="941" y="0" on="1"/>
        <pt x="333" y="0" on="1"/>
        <pt x="333" y="143" on="1"/>
        <pt x="552" y="143" on="1"/>
        <pt x="552" y="1245" on="1"/>
        <pt x="485" y="1207" on="0"/>
        <pt x="350" y="1143" on="0"/>
        <pt x="273" y="1113" on="1"/>
      </contour>
    </TTGlyph>
    <TTGlyph name="onehalf" xMin="239" yMin="-25" xMax="1611" yMax="1436">
      <component glyphName="onesuperior" x="0" y="0" flags="0x1004"/>
      <component glyphName="fraction" x="716" y="0" flags="0x1004"/>
      <component glyphName="twosuperior" x="781" y="-629" flags="0x1004"/>
    </TTGlyph>
    <TTGlyph name="onequarter" xMin="239" yMin="0" xMax="1683" yMax="1436">
      <component glyphName="onesuperior" x="0" y="0" flags="0x1004"/>
      <component glyphName="fraction" x="774" y="0" flags="0x1004"/>
      <component glyphName="foursuperior" x="1086" y="-578" flags="0x1004"/>
    </TTGlyph>
    <TTGlyph name="onesuperior" xMin="239" yMin="604" xMax="635" yMax="1427">
      <contour>
        <pt x="240" y="1333" on="1"/>
        <pt x="293" y="1350" on="0"/>
        <pt x="373" y="1391" on="0"/>
        <pt x="408" y="1412" on="1"/>
        <pt x="513" y="1427" on="1"/>
        <pt x="513" y="720" on="1"/>
        <pt x="635" y="720" on="1"/>
        <pt x="635" y="604" on="1"/>
        <pt x="270" y="604" on="1"/>
        <pt x="270" y="723" on="1"/>
        <pt x="392" y="723" on="1"/>
        <pt x="392" y="1069" on="1"/>
        <pt x="392" y="1102" on="0"/>
        <pt x="391" y="1167" on="0"/>
        <pt x="391" y="1200" on="1"/>
        <pt x="391" y="1271" on="1"/>
        <pt x="359" y="1254" on="0"/>
        <pt x="279" y="1218" on="0"/>
        <pt x="239" y="1203" on="1"/>
      </contour>
    </TTGlyph>
    <TTGlyph name="ordfeminine" xMin="66" yMin="768" xMax="674" yMax="1477">
      <contour>
        <pt x="317" y="768" on="1"/>
        <pt x="263" y="768" on="0"/>
        <pt x="171" y="797" on="0"/>
        <pt x="104" y="851" on="0"/>
        <pt x="66" y="928" on="0"/>
        <pt x="66" y="975" on="1"/>
        <pt x="66" y="1018" on="0"/>
        <pt x="102" y="1091" on="0"/>
        <pt x="167" y="1146" on="0"/>
        <pt x="256" y="1184" on="0"/>
        <pt x="309" y="1192" on="1"/>
        <pt x="366" y="1201" on="0"/>
        <pt x="482" y="1204" on="0"/>
        <pt x="536" y="1211" on="1"/>
        <pt x="536" y="1219" on="1"/>
        <pt x="536" y="1262" on="0"/>
        <pt x="521" y="1320" on="0"/>
        <pt x="486" y="1354" on="0"/>
        <pt x="430" y="1369" on="0"/>
        <pt x="388" y="1369" on="1"/>
        <pt x="358" y="1369" on="0"/>
        <pt x="298" y="1361" on="0"/>
        <pt x="244" y="1340" on="0"/>
        <pt x="197" y="1303" on="0"/>
        <pt x="178" y="1275" on="1"/>
        <pt x="111" y="1350" on="1"/>
        <pt x="151" y="1418" on="0"/>
        <pt x="300" y="1477" on="0"/>
        <pt x="394" y="1477" on="1"/>
        <pt x="523" y="1477" on="0"/>
        <pt x="669" y="1359" on="0"/>
        <pt x="669" y="1244" on="1"/>
        <pt x="669" y="1235" on="1"/>
        <pt x="667" y="914" on="1"/>
        <pt x="666" y="903" on="0"/>
        <pt x="668" y="862" on="0"/>
        <pt x="670" y="840" on="1"/>
        <pt x="674" y="786" on="1"/>
        <pt x="543" y="786" on="1"/>
        <pt x="537" y="860" on="1"/>
        <pt x="503" y="818" on="0"/>
        <pt x="392" y="768" on="0"/>
      </contour>
      <contour>
        <pt x="338" y="871" on="1"/>
        <pt x="389" y="871" on="0"/>
        <pt x="464" y="906" on="0"/>
        <pt x="515" y="966" on="0"/>
        <pt x="541" y="1043" on="0"/>
        <pt x="543" y="1085" on="1"/>
        <pt x="539" y="1110" on="1"/>
        <pt x="504" y="1103" on="0"/>
        <pt x="427" y="1096" on="0"/>
        <pt x="352" y="1088" on="0"/>
        <pt x="284" y="1075" on="0"/>
        <pt x="232" y="1050" on="0"/>
        <pt x="202" y="1009" on="0"/>
        <pt x="202" y="977" on="1"/>
        <pt x="202" y="921" on="0"/>
        <pt x="278" y="871" on="0"/>
      </contour>
    </TTGlyph>
    <TTGlyph name="ordmasculine" xMin="53" yMin="767" xMax="774" yMax="1476">
      <contour>
        <pt x="415" y="1476" on="1"/>
        <pt x="503" y="1476" on="0"/>
        <pt x="637" y="1421" on="0"/>
        <pt x="728" y="1325" on="0"/>
        <pt x="774" y="1196" on="0"/>
        <pt x="774" y="1121" on="1"/>
        <pt x="774" y="1048" on="0"/>
        <pt x="727" y="919" on="0"/>
        <pt x="636" y="823" on="0"/>
        <pt x="503" y="767" on="0"/>
        <pt x="416" y="767" on="1"/>
        <pt x="326" y="767" on="0"/>
        <pt x="191" y="822" on="0"/>
        <pt x="99" y="918" on="0"/>
        <pt x="53" y="1049" on="0"/>
        <pt x="53" y="1124" on="1"/>
        <pt x="53" y="1198" on="0"/>
        <pt x="101" y="1326" on="0"/>
        <pt x="194" y="1421" on="0"/>
        <pt x="328" y="1476" on="0"/>
      </contour>
      <contour>
        <pt x="193" y="1123" on="1"/>
        <pt x="193" y="1072" on="0"/>
        <pt x="220" y="981" on="0"/>
        <pt x="276" y="914" on="0"/>
        <pt x="360" y="875" on="0"/>
        <pt x="416" y="875" on="1"/>
        <pt x="469" y="875" on="0"/>
        <pt x="551" y="914" on="0"/>
        <pt x="607" y="981" on="0"/>
        <pt x="636" y="1070" on="0"/>
        <pt x="636" y="1119" on="1"/>
        <pt x="636" y="1171" on="0"/>
        <pt x="607" y="1262" on="0"/>
        <pt x="551" y="1330" on="0"/>
        <pt x="467" y="1369" on="0"/>
        <pt x="413" y="1369" on="1"/>
        <pt x="360" y="1369" on="0"/>
        <pt x="278" y="1330" on="0"/>
        <pt x="222" y="1262" on="0"/>
        <pt x="193" y="1173" on="0"/>
      </contour>
    </TTGlyph>
    <TTGlyph name="oslash" xMin="90" yMin="-261" xMax="1140" yMax="1277">
      <contour>
        <pt x="620" y="1051" on="1"/>
        <pt x="705" y="1051" on="0"/>
        <pt x="780" y="1031" on="1"/>
        <pt x="884" y="1277" on="1"/>
        <pt x="987" y="1245" on="1"/>
        <pt x="880" y="993" on="1"/>
        <pt x="944" y="960" on="0"/>
        <pt x="1042" y="861" on="0"/>
        <pt x="1107" y="737" on="0"/>
        <pt x="1140" y="592" on="0"/>
        <pt x="1140" y="513" on="1"/>
        <pt x="1140" y="405" on="0"/>
        <pt x="1071" y="210" on="0"/>
        <pt x="938" y="63" on="0"/>
        <pt x="742" y="-23" on="0"/>
        <pt x="616" y="-23" on="1"/>
        <pt x="531" y="-23" on="0"/>
        <pt x="456" y="-3" on="1"/>
        <pt x="346" y="-261" on="1"/>
        <pt x="247" y="-229" on="1"/>
        <pt x="358" y="34" on="1"/>
        <pt x="292" y="67" on="0"/>
        <pt x="192" y="165" on="0"/>
        <pt x="125" y="288" on="0"/>
        <pt x="90" y="432" on="0"/>
        <pt x="90" y="511" on="1"/>
        <pt x="90" y="622" on="0"/>
        <pt x="160" y="819" on="0"/>
        <pt x="295" y="966" on="0"/>
        <pt x="492" y="1051" on="0"/>
      </contour>
      <contour>
        <pt x="263" y="509" on="1"/>
        <pt x="263" y="457" on="0"/>
        <pt x="282" y="358" on="0"/>
        <pt x="320" y="271" on="0"/>
        <pt x="377" y="197" on="0"/>
        <pt x="415" y="170" on="1"/>
        <pt x="725" y="902" on="1"/>
        <pt x="700" y="909" on="0"/>
        <pt x="646" y="917" on="0"/>
        <pt x="616" y="917" on="1"/>
        <pt x="529" y="917" on="0"/>
        <pt x="397" y="850" on="0"/>
        <pt x="308" y="737" on="0"/>
        <pt x="263" y="589" on="0"/>
      </contour>
      <contour>
        <pt x="966" y="511" on="1"/>
        <pt x="966" y="619" on="0"/>
        <pt x="895" y="800" on="0"/>
        <pt x="821" y="855" on="1"/>
        <pt x="510" y="124" on="1"/>
        <pt x="559" y="109" on="0"/>
        <pt x="620" y="109" on="1"/>
        <pt x="708" y="109" on="0"/>
        <pt x="838" y="175" on="0"/>
        <pt x="924" y="286" on="0"/>
        <pt x="966" y="431" on="0"/>
      </contour>
    </TTGlyph>
    <TTGlyph name="otilde" xMin="90" yMin="-23" xMax="1140" yMax="1435">
      <component glyphName="o" x="0" y="0" flags="0x1204"/>
      <component glyphName="tilde" x="283" y="0" flags="0x1004"/>
    </TTGlyph>
    <TTGlyph name="p" xMin="151" yMin="-427" xMax="1139" yMax="1051">
      <contour>
        <pt x="323" y="-427" on="1"/>
        <pt x="159" y="-427" on="1"/>
        <pt x="159" y="758" on="1"/>
        <pt x="159" y="779" on="0"/>
        <pt x="158" y="840" on="0"/>
        <pt x="156" y="912" on="0"/>
        <pt x="153" y="989" on="0"/>
        <pt x="151" y="1026" on="1"/>
        <pt x="318" y="1026" on="1"/>
        <pt x="323" y="880" on="1"/>
        <pt x="386" y="965" on="0"/>
        <pt x="563" y="1051" on="0"/>
        <pt x="668" y="1051" on="1"/>
        <pt x="789" y="1051" on="0"/>
        <pt x="966" y="967" on="0"/>
        <pt x="1082" y="824" on="0"/>
        <pt x="1139" y="634" on="0"/>
        <pt x="1139" y="527" on="1"/>
        <pt x="1139" y="419" on="0"/>
        <pt x="1080" y="220" on="0"/>
        <pt x="963" y="68" on="0"/>
        <pt x="786" y="-23" on="0"/>
        <pt x="668" y="-23" on="1"/>
        <pt x="452" y="-23" on="0"/>
        <pt x="323" y="135" on="1"/>
      </contour>
      <contour>
        <pt x="323" y="494" on="1"/>
        <pt x="323" y="411" on="0"/>
        <pt x="365" y="270" on="0"/>
        <pt x="446" y="167" on="0"/>
        <pt x="566" y="109" on="0"/>
        <pt x="644" y="109" on="1"/>
        <pt x="728" y="109" on="0"/>
        <pt x="849" y="177" on="0"/>
        <pt x="926" y="291" on="0"/>
        <pt x="963" y="440" on="0"/>
        <pt x="963" y="521" on="1"/>
        <pt x="963" y="597" on="0"/>
        <pt x="931" y="740" on="0"/>
        <pt x="858" y="851" on="0"/>
        <pt x="738" y="917" on="0"/>
        <pt x="650" y="917" on="1"/>
        <pt x="558" y="917" on="0"/>
        <pt x="433" y="847" on="0"/>
        <pt x="356" y="730" on="0"/>
        <pt x="323" y="577" on="0"/>
      </contour>
    </TTGlyph>
    <TTGlyph name="paragraph" xMin="107" yMin="-148" xMax="1009" yMax="1451">
      <contour>
        <pt x="442" y="-148" on="1"/>
        <pt x="442" y="786" on="1"/>
        <pt x="374" y="787" on="0"/>
        <pt x="252" y="837" on="0"/>
        <pt x="161" y="927" on="0"/>
        <pt x="107" y="1053" on="0"/>
        <pt x="107" y="1130" on="1"/>
        <pt x="107" y="1224" on="0"/>
        <pt x="190" y="1348" on="0"/>
        <pt x="332" y="1421" on="0"/>
        <pt x="519" y="1451" on="0"/>
        <pt x="623" y="1451" on="1"/>
        <pt x="1009" y="1451" on="1"/>
        <pt x="1009" y="1327" on="1"/>
        <pt x="922" y="1327" on="1"/>
        <pt x="922" y="-148" on="1"/>
        <pt x="793" y="-148" on="1"/>
        <pt x="793" y="1327" on="1"/>
        <pt x="585" y="1327" on="1"/>
        <pt x="585" y="-148" on="1"/>
      </contour>
    </TTGlyph>
    <TTGlyph name="parenleft" xMin="153" yMin="-259" xMax="579" yMax="1451">
      <contour>
        <pt x="433" y="-259" on="1"/>
        <pt x="375" y="-170" on="0"/>
        <pt x="273" y="30" on="0"/>
        <pt x="197" y="246" on="0"/>
        <pt x="153" y="472" on="0"/>
        <pt x="153" y="587" on="1"/>
        <pt x="153" y="707" on="0"/>
        <pt x="193" y="932" on="0"/>
        <pt x="265" y="1147" on="0"/>
        <pt x="367" y="1352" on="0"/>
        <pt x="430" y="1451" on="1"/>
        <pt x="578" y="1451" on="1"/>
        <pt x="452" y="1250" on="0"/>
        <pt x="316" y="818" on="0"/>
        <pt x="316" y="590" on="1"/>
        <pt x="316" y="485" on="0"/>
        <pt x="353" y="264" on="0"/>
        <pt x="422" y="45" on="0"/>
        <pt x="519" y="-165" on="0"/>
        <pt x="579" y="-259" on="1"/>
      </contour>
    </TTGlyph>
    <TTGlyph name="parenright" xMin="52" yMin="-259" xMax="479" yMax="1451">
      <contour>
        <pt x="56" y="-259" on="1"/>
        <pt x="113" y="-168" on="0"/>
        <pt x="208" y="35" on="0"/>
        <pt x="277" y="252" on="0"/>
        <pt x="315" y="484" on="0"/>
        <pt x="315" y="604" on="1"/>
        <pt x="315" y="704" on="0"/>
        <pt x="280" y="920" on="0"/>
        <pt x="213" y="1138" on="0"/>
        <pt x="115" y="1352" on="0"/>
        <pt x="52" y="1451" on="1"/>
        <pt x="199" y="1451" on="1"/>
        <pt x="258" y="1359" on="0"/>
        <pt x="361" y="1156" on="0"/>
        <pt x="436" y="939" on="0"/>
        <pt x="479" y="713" on="0"/>
        <pt x="479" y="598" on="1"/>
        <pt x="479" y="477" on="0"/>
        <pt x="439" y="252" on="0"/>
        <pt x="367" y="39" on="0"/>
        <pt x="266" y="-163" on="0"/>
        <pt x="205" y="-259" on="1"/>
      </contour>
    </TTGlyph>
    <TTGlyph name="partialdiff" xMin="83" yMin="-24" xMax="1074" yMax="1533">
      <contour>
        <pt x="495" y="111" on="1"/>
        <pt x="573" y="111" on="0"/>
        <pt x="705" y="197" on="0"/>
        <pt x="805" y="345" on="0"/>
        <pt x="872" y="543" on="0"/>
        <pt x="885" y="655" on="1"/>
        <pt x="870" y="697" on="0"/>
        <pt x="819" y="775" on="0"/>
        <pt x="749" y="834" on="0"/>
        <pt x="661" y="869" on="0"/>
        <pt x="609" y="869" on="1"/>
        <pt x="534" y="869" on="0"/>
        <pt x="403" y="796" on="0"/>
        <pt x="307" y="672" on="0"/>
        <pt x="252" y="508" on="0"/>
        <pt x="252" y="417" on="1"/>
        <pt x="252" y="348" on="0"/>
        <pt x="286" y="235" on="0"/>
        <pt x="349" y="155" on="0"/>
        <pt x="439" y="111" on="0"/>
      </contour>
      <contour>
        <pt x="280" y="1442" on="1"/>
        <pt x="340" y="1482" on="0"/>
        <pt x="500" y="1533" on="0"/>
        <pt x="588" y="1533" on="1"/>
        <pt x="700" y="1533" on="0"/>
        <pt x="880" y="1452" on="0"/>
        <pt x="1006" y="1285" on="0"/>
        <pt x="1074" y="1028" on="0"/>
        <pt x="1074" y="852" on="1"/>
        <pt x="1074" y="744" on="0"/>
        <pt x="1043" y="530" on="0"/>
        <pt x="979" y="335" on="0"/>
        <pt x="883" y="168" on="0"/>
        <pt x="753" y="46" on="0"/>
        <pt x="590" y="-24" on="0"/>
        <pt x="492" y="-24" on="1"/>
        <pt x="391" y="-24" on="0"/>
        <pt x="238" y="44" on="0"/>
        <pt x="135" y="164" on="0"/>
        <pt x="83" y="326" on="0"/>
        <pt x="83" y="420" on="1"/>
        <pt x="83" y="543" on="0"/>
        <pt x="162" y="756" on="0"/>
        <pt x="298" y="912" on="0"/>
        <pt x="481" y="1002" on="0"/>
        <pt x="586" y="1002" on="1"/>
        <pt x="643" y="1002" on="0"/>
        <pt x="738" y="975" on="0"/>
        <pt x="815" y="931" on="0"/>
        <pt x="875" y="875" on="0"/>
        <pt x="896" y="845" on="1"/>
        <pt x="897" y="842" on="0"/>
        <pt x="902" y="836" on="1"/>
        <pt x="902" y="850" on="0"/>
        <pt x="903" y="893" on="0"/>
        <pt x="903" y="911" on="1"/>
        <pt x="903" y="1025" on="0"/>
        <pt x="856" y="1206" on="0"/>
        <pt x="769" y="1332" on="0"/>
        <pt x="644" y="1399" on="0"/>
        <pt x="565" y="1399" on="1"/>
        <pt x="529" y="1399" on="0"/>
        <pt x="456" y="1384" on="0"/>
        <pt x="385" y="1358" on="0"/>
        <pt x="319" y="1323" on="0"/>
        <pt x="291" y="1304" on="1"/>
      </contour>
    </TTGlyph>
    <TTGlyph name="percent" xMin="168" yMin="-27" xMax="1806" yMax="1447">
      <contour>
        <pt x="1454" y="622" on="1"/>
        <pt x="1398" y="622" on="0"/>
        <pt x="1318" y="576" on="0"/>
        <pt x="1266" y="500" on="0"/>
        <pt x="1241" y="402" on="0"/>
        <pt x="1241" y="350" on="1"/>
        <pt x="1241" y="296" on="0"/>
        <pt x="1266" y="200" on="0"/>
        <pt x="1319" y="128" on="0"/>
        <pt x="1398" y="86" on="0"/>
        <pt x="1452" y="86" on="1"/>
        <pt x="1506" y="86" on="0"/>
        <pt x="1586" y="131" on="0"/>
        <pt x="1637" y="207" on="0"/>
        <pt x="1662" y="304" on="0"/>
        <pt x="1662" y="357" on="1"/>
        <pt x="1662" y="412" on="0"/>
        <pt x="1637" y="508" on="0"/>
        <pt x="1586" y="580" on="0"/>
        <pt x="1508" y="622" on="0"/>
      </contour>
      <contour>
        <pt x="1455" y="735" on="1"/>
        <pt x="1539" y="735" on="0"/>
        <pt x="1670" y="678" on="0"/>
        <pt x="1760" y="577" on="0"/>
        <pt x="1806" y="438" on="0"/>
        <pt x="1806" y="356" on="1"/>
        <pt x="1806" y="276" on="0"/>
        <pt x="1756" y="137" on="0"/>
        <pt x="1663" y="33" on="0"/>
        <pt x="1531" y="-27" on="0"/>
        <pt x="1449" y="-27" on="1"/>
        <pt x="1366" y="-27" on="0"/>
        <pt x="1235" y="31" on="0"/>
        <pt x="1145" y="133" on="0"/>
        <pt x="1097" y="271" on="0"/>
        <pt x="1097" y="351" on="1"/>
        <pt x="1097" y="432" on="0"/>
        <pt x="1147" y="572" on="0"/>
        <pt x="1240" y="675" on="0"/>
        <pt x="1372" y="735" on="0"/>
      </contour>
      <contour>
        <pt x="526" y="1447" on="1"/>
        <pt x="610" y="1447" on="0"/>
        <pt x="741" y="1390" on="0"/>
        <pt x="831" y="1289" on="0"/>
        <pt x="877" y="1150" on="0"/>
        <pt x="877" y="1068" on="1"/>
        <pt x="877" y="988" on="0"/>
        <pt x="827" y="849" on="0"/>
        <pt x="734" y="746" on="0"/>
        <pt x="602" y="686" on="0"/>
        <pt x="520" y="686" on="1"/>
        <pt x="436" y="686" on="0"/>
        <pt x="305" y="744" on="0"/>
        <pt x="215" y="846" on="0"/>
        <pt x="168" y="984" on="0"/>
        <pt x="168" y="1064" on="1"/>
        <pt x="168" y="1145" on="0"/>
        <pt x="218" y="1284" on="0"/>
        <pt x="311" y="1388" on="0"/>
        <pt x="443" y="1447" on="0"/>
      </contour>
      <contour>
        <pt x="1344" y="1436" on="1"/>
        <pt x="1499" y="1436" on="1"/>
        <pt x="594" y="-5" on="1"/>
        <pt x="440" y="-5" on="1"/>
      </contour>
      <contour>
        <pt x="525" y="1335" on="1"/>
        <pt x="470" y="1335" on="0"/>
        <pt x="390" y="1290" on="0"/>
        <pt x="337" y="1215" on="0"/>
        <pt x="312" y="1117" on="0"/>
        <pt x="312" y="1065" on="1"/>
        <pt x="312" y="1010" on="0"/>
        <pt x="338" y="913" on="0"/>
        <pt x="390" y="841" on="0"/>
        <pt x="470" y="799" on="0"/>
        <pt x="524" y="799" on="1"/>
        <pt x="578" y="799" on="0"/>
        <pt x="657" y="844" on="0"/>
        <pt x="709" y="919" on="0"/>
        <pt x="734" y="1016" on="0"/>
        <pt x="734" y="1069" on="1"/>
        <pt x="734" y="1124" on="0"/>
        <pt x="709" y="1221" on="0"/>
        <pt x="657" y="1293" on="0"/>
        <pt x="578" y="1335" on="0"/>
      </contour>
    </TTGlyph>
    <TTGlyph name="period" xMin="159" yMin="-11" xMax="376" yMax="199">
      <contour>
        <pt x="376" y="-11" on="1"/>
        <pt x="159" y="-11" on="1"/>
        <pt x="159" y="199" on="1"/>
        <pt x="376" y="199" on="1"/>
      </contour>
    </TTGlyph>
    <TTGlyph name="periodcentered" xMin="76" yMin="513" xMax="293" yMax="723">
      <contour>
        <pt x="293" y="513" on="1"/>
        <pt x="76" y="513" on="1"/>
        <pt x="76" y="723" on="1"/>
        <pt x="293" y="723" on="1"/>
      </contour>
    </TTGlyph>
    <TTGlyph name="periodcentered#1" xMin="76" yMin="513" xMax="293" yMax="723">
      <contour>
        <pt x="293" y="513" on="1"/>
        <pt x="76" y="513" on="1"/>
        <pt x="76" y="723" on="1"/>
        <pt x="293" y="723" on="1"/>
      </contour>
    </TTGlyph>
    <TTGlyph name="perthousand" xMin="73" yMin="-27" xMax="2299" yMax="1447">
      <contour>
        <pt x="1962" y="567" on="1"/>
        <pt x="1913" y="567" on="0"/>
        <pt x="1840" y="529" on="0"/>
        <pt x="1792" y="463" on="0"/>
        <pt x="1768" y="376" on="0"/>
        <pt x="1768" y="328" on="1"/>
        <pt x="1768" y="277" on="0"/>
        <pt x="1792" y="189" on="0"/>
        <pt x="1841" y="123" on="0"/>
        <pt x="1914" y="86" on="0"/>
        <pt x="1963" y="86" on="1"/>
        <pt x="2011" y="86" on="0"/>
        <pt x="2084" y="125" on="0"/>
        <pt x="2132" y="191" on="0"/>
        <pt x="2156" y="279" on="0"/>
        <pt x="2156" y="327" on="1"/>
        <pt x="2156" y="377" on="0"/>
        <pt x="2132" y="465" on="0"/>
        <pt x="2083" y="530" on="0"/>
        <pt x="2010" y="567" on="0"/>
      </contour>
      <contour>
        <pt x="1959" y="-27" on="1"/>
        <pt x="1879" y="-27" on="0"/>
        <pt x="1754" y="24" on="0"/>
        <pt x="1668" y="117" on="0"/>
        <pt x="1623" y="248" on="0"/>
        <pt x="1623" y="328" on="1"/>
        <pt x="1623" y="404" on="0"/>
        <pt x="1668" y="533" on="0"/>
        <pt x="1755" y="628" on="0"/>
        <pt x="1882" y="681" on="0"/>
        <pt x="1964" y="681" on="1"/>
        <pt x="2045" y="681" on="0"/>
        <pt x="2169" y="632" on="0"/>
        <pt x="2255" y="539" on="0"/>
        <pt x="2299" y="407" on="0"/>
        <pt x="2299" y="325" on="1"/>
        <pt x="2299" y="250" on="0"/>
        <pt x="2253" y="121" on="0"/>
        <pt x="2166" y="26" on="0"/>
        <pt x="2040" y="-27" on="0"/>
      </contour>
      <contour>
        <pt x="410" y="740" on="1"/>
        <pt x="329" y="740" on="0"/>
        <pt x="204" y="791" on="0"/>
        <pt x="118" y="884" on="0"/>
        <pt x="73" y="1015" on="0"/>
        <pt x="73" y="1095" on="1"/>
        <pt x="73" y="1171" on="0"/>
        <pt x="118" y="1300" on="0"/>
        <pt x="204" y="1394" on="0"/>
        <pt x="331" y="1447" on="0"/>
        <pt x="412" y="1447" on="1"/>
        <pt x="494" y="1447" on="0"/>
        <pt x="620" y="1397" on="0"/>
        <pt x="705" y="1305" on="0"/>
        <pt x="749" y="1174" on="0"/>
        <pt x="749" y="1092" on="1"/>
        <pt x="749" y="1017" on="0"/>
        <pt x="703" y="888" on="0"/>
        <pt x="616" y="793" on="0"/>
        <pt x="490" y="740" on="0"/>
      </contour>
      <contour>
        <pt x="1172" y="-27" on="1"/>
        <pt x="1091" y="-27" on="0"/>
        <pt x="966" y="24" on="0"/>
        <pt x="880" y="117" on="0"/>
        <pt x="835" y="248" on="0"/>
        <pt x="835" y="328" on="1"/>
        <pt x="835" y="404" on="0"/>
        <pt x="880" y="533" on="0"/>
        <pt x="967" y="628" on="0"/>
        <pt x="1094" y="681" on="0"/>
        <pt x="1176" y="681" on="1"/>
        <pt x="1258" y="681" on="0"/>
        <pt x="1383" y="630" on="0"/>
        <pt x="1468" y="537" on="0"/>
        <pt x="1511" y="406" on="0"/>
        <pt x="1511" y="325" on="1"/>
        <pt x="1511" y="250" on="0"/>
        <pt x="1466" y="121" on="0"/>
        <pt x="1379" y="26" on="0"/>
        <pt x="1253" y="-27" on="0"/>
      </contour>
      <contour>
        <pt x="1174" y="567" on="1"/>
        <pt x="1125" y="567" on="0"/>
        <pt x="1052" y="529" on="0"/>
        <pt x="1004" y="463" on="0"/>
        <pt x="980" y="376" on="0"/>
        <pt x="980" y="328" on="1"/>
        <pt x="980" y="277" on="0"/>
        <pt x="1004" y="189" on="0"/>
        <pt x="1053" y="123" on="0"/>
        <pt x="1126" y="86" on="0"/>
        <pt x="1175" y="86" on="1"/>
        <pt x="1223" y="86" on="0"/>
        <pt x="1295" y="125" on="0"/>
        <pt x="1343" y="192" on="0"/>
        <pt x="1367" y="279" on="0"/>
        <pt x="1367" y="327" on="1"/>
        <pt x="1367" y="378" on="0"/>
        <pt x="1344" y="465" on="0"/>
        <pt x="1296" y="530" on="0"/>
        <pt x="1223" y="567" on="0"/>
      </contour>
      <contour>
        <pt x="411" y="1335" on="1"/>
        <pt x="363" y="1335" on="0"/>
        <pt x="291" y="1297" on="0"/>
        <pt x="243" y="1231" on="0"/>
        <pt x="219" y="1144" on="0"/>
        <pt x="219" y="1096" on="1"/>
        <pt x="219" y="1045" on="0"/>
        <pt x="243" y="957" on="0"/>
        <pt x="291" y="891" on="0"/>
        <pt x="364" y="853" on="0"/>
        <pt x="414" y="853" on="1"/>
        <pt x="462" y="853" on="0"/>
        <pt x="533" y="892" on="0"/>
        <pt x="580" y="958" on="0"/>
        <pt x="604" y="1045" on="0"/>
        <pt x="604" y="1093" on="1"/>
        <pt x="604" y="1144" on="0"/>
        <pt x="580" y="1232" on="0"/>
        <pt x="532" y="1297" on="0"/>
        <pt x="460" y="1335" on="0"/>
      </contour>
      <contour>
        <pt x="245" y="-21" on="1"/>
        <pt x="1183" y="1436" on="1"/>
        <pt x="1332" y="1436" on="1"/>
        <pt x="398" y="-21" on="1"/>
      </contour>
    </TTGlyph>
    <TTGlyph name="pi" xMin="17" yMin="-8" xMax="1214" yMax="1040">
      <contour>
        <pt x="1214" y="907" on="1"/>
        <pt x="1010" y="907" on="1"/>
        <pt x="1010" y="288" on="1"/>
        <pt x="1010" y="265" on="0"/>
        <pt x="1013" y="216" on="0"/>
        <pt x="1032" y="174" on="0"/>
        <pt x="1072" y="147" on="0"/>
        <pt x="1108" y="147" on="1"/>
        <pt x="1142" y="147" on="0"/>
        <pt x="1188" y="160" on="1"/>
        <pt x="1187" y="145" on="0"/>
        <pt x="1185" y="115" on="0"/>
        <pt x="1185" y="100" on="1"/>
        <pt x="1185" y="77" on="0"/>
        <pt x="1190" y="30" on="0"/>
        <pt x="1198" y="6" on="1"/>
        <pt x="1159" y="-1" on="0"/>
        <pt x="1090" y="-8" on="0"/>
        <pt x="1061" y="-8" on="1"/>
        <pt x="1002" y="-8" on="0"/>
        <pt x="922" y="24" on="0"/>
        <pt x="873" y="93" on="0"/>
        <pt x="851" y="202" on="0"/>
        <pt x="851" y="279" on="1"/>
        <pt x="851" y="907" on="1"/>
        <pt x="480" y="907" on="1"/>
        <pt x="465" y="698" on="0"/>
        <pt x="445" y="517" on="1"/>
        <pt x="436" y="440" on="0"/>
        <pt x="415" y="282" on="0"/>
        <pt x="389" y="143" on="0"/>
        <pt x="358" y="31" on="0"/>
        <pt x="341" y="0" on="1"/>
        <pt x="172" y="0" on="1"/>
        <pt x="197" y="44" on="0"/>
        <pt x="236" y="173" on="0"/>
        <pt x="265" y="326" on="0"/>
        <pt x="286" y="496" on="0"/>
        <pt x="300" y="668" on="0"/>
        <pt x="309" y="834" on="0"/>
        <pt x="311" y="907" on="1"/>
        <pt x="221" y="905" on="0"/>
        <pt x="89" y="875" on="0"/>
        <pt x="34" y="846" on="1"/>
        <pt x="17" y="977" on="1"/>
        <pt x="42" y="996" on="0"/>
        <pt x="108" y="1021" on="0"/>
        <pt x="193" y="1035" on="0"/>
        <pt x="301" y="1040" on="0"/>
        <pt x="369" y="1040" on="1"/>
        <pt x="1214" y="1040" on="1"/>
      </contour>
    </TTGlyph>
    <TTGlyph name="plus" xMin="198" yMin="62" xMax="1246" yMax="1047">
      <contour>
        <pt x="646" y="624" on="1"/>
        <pt x="649" y="1047" on="1"/>
        <pt x="799" y="1047" on="1"/>
        <pt x="797" y="624" on="1"/>
        <pt x="1245" y="624" on="1"/>
        <pt x="1246" y="485" on="1"/>
        <pt x="798" y="485" on="1"/>
        <pt x="795" y="62" on="1"/>
        <pt x="644" y="62" on="1"/>
        <pt x="646" y="485" on="1"/>
        <pt x="200" y="485" on="1"/>
        <pt x="198" y="624" on="1"/>
      </contour>
    </TTGlyph>
    <TTGlyph name="plusminus" xMin="188" yMin="0" xMax="1249" yMax="1107">
      <contour>
        <pt x="200" y="0" on="1"/>
        <pt x="200" y="138" on="1"/>
        <pt x="1249" y="138" on="1"/>
        <pt x="1249" y="0" on="1"/>
      </contour>
      <contour>
        <pt x="645" y="733" on="1"/>
        <pt x="645" y="1107" on="1"/>
        <pt x="794" y="1107" on="1"/>
        <pt x="794" y="733" on="1"/>
        <pt x="1245" y="733" on="1"/>
        <pt x="1245" y="595" on="1"/>
        <pt x="798" y="595" on="1"/>
        <pt x="798" y="223" on="1"/>
        <pt x="647" y="223" on="1"/>
        <pt x="647" y="595" on="1"/>
        <pt x="188" y="595" on="1"/>
        <pt x="188" y="733" on="1"/>
      </contour>
    </TTGlyph>
    <TTGlyph name="product" xMin="110" yMin="-329" xMax="1456" yMax="1423">
      <contour>
        <pt x="1440" y="1278" on="1"/>
        <pt x="1327" y="1278" on="1"/>
        <pt x="1327" y="-329" on="1"/>
        <pt x="1149" y="-329" on="1"/>
        <pt x="1149" y="1278" on="1"/>
        <pt x="426" y="1278" on="1"/>
        <pt x="426" y="-329" on="1"/>
        <pt x="251" y="-329" on="1"/>
        <pt x="251" y="1278" on="1"/>
        <pt x="126" y="1278" on="1"/>
        <pt x="110" y="1423" on="1"/>
        <pt x="1456" y="1423" on="1"/>
      </contour>
    </TTGlyph>
    <TTGlyph name="q" xMin="93" yMin="-426" xMax="1085" yMax="1051">
      <contour>
        <pt x="913" y="148" on="1"/>
        <pt x="847" y="60" on="0"/>
        <pt x="660" y="-23" on="0"/>
        <pt x="545" y="-23" on="1"/>
        <pt x="433" y="-23" on="0"/>
        <pt x="264" y="59" on="0"/>
        <pt x="150" y="202" on="0"/>
        <pt x="93" y="395" on="0"/>
        <pt x="93" y="506" on="1"/>
        <pt x="93" y="615" on="0"/>
        <pt x="153" y="812" on="0"/>
        <pt x="271" y="962" on="0"/>
        <pt x="449" y="1051" on="0"/>
        <pt x="567" y="1051" on="1"/>
        <pt x="679" y="1051" on="0"/>
        <pt x="856" y="971" on="0"/>
        <pt x="913" y="898" on="1"/>
        <pt x="918" y="1026" on="1"/>
        <pt x="1085" y="1026" on="1"/>
        <pt x="1081" y="968" on="0"/>
        <pt x="1078" y="852" on="0"/>
        <pt x="1078" y="813" on="1"/>
        <pt x="1078" y="-426" on="1"/>
        <pt x="913" y="-426" on="1"/>
      </contour>
      <contour>
        <pt x="913" y="543" on="1"/>
        <pt x="913" y="625" on="0"/>
        <pt x="870" y="763" on="0"/>
        <pt x="789" y="862" on="0"/>
        <pt x="669" y="917" on="0"/>
        <pt x="593" y="917" on="1"/>
        <pt x="509" y="917" on="0"/>
        <pt x="385" y="852" on="0"/>
        <pt x="305" y="741" on="0"/>
        <pt x="266" y="591" on="0"/>
        <pt x="266" y="507" on="1"/>
        <pt x="266" y="427" on="0"/>
        <pt x="302" y="282" on="0"/>
        <pt x="378" y="173" on="0"/>
        <pt x="498" y="109" on="0"/>
        <pt x="582" y="109" on="1"/>
        <pt x="678" y="109" on="0"/>
        <pt x="805" y="184" on="0"/>
        <pt x="882" y="307" on="0"/>
        <pt x="913" y="462" on="0"/>
      </contour>
    </TTGlyph>
    <TTGlyph name="question" xMin="183" yMin="-11" xMax="899" yMax="1478">
      <contour>
        <pt x="356" y="368" on="1"/>
        <pt x="353" y="398" on="0"/>
        <pt x="351" y="428" on="1"/>
        <pt x="349" y="454" on="0"/>
        <pt x="346" y="509" on="0"/>
        <pt x="346" y="530" on="1"/>
        <pt x="346" y="591" on="0"/>
        <pt x="403" y="693" on="0"/>
        <pt x="488" y="785" on="0"/>
        <pt x="588" y="872" on="0"/>
        <pt x="673" y="964" on="0"/>
        <pt x="730" y="1065" on="0"/>
        <pt x="730" y="1125" on="1"/>
        <pt x="730" y="1182" on="0"/>
        <pt x="682" y="1262" on="0"/>
        <pt x="602" y="1313" on="0"/>
        <pt x="499" y="1336" on="0"/>
        <pt x="444" y="1336" on="1"/>
        <pt x="375" y="1336" on="0"/>
        <pt x="243" y="1301" on="0"/>
        <pt x="183" y="1267" on="1"/>
        <pt x="183" y="1413" on="1"/>
        <pt x="255" y="1448" on="0"/>
        <pt x="401" y="1478" on="0"/>
        <pt x="464" y="1478" on="1"/>
        <pt x="556" y="1478" on="0"/>
        <pt x="715" y="1435" on="0"/>
        <pt x="832" y="1349" on="0"/>
        <pt x="899" y="1220" on="0"/>
        <pt x="899" y="1133" on="1"/>
        <pt x="899" y="1069" on="0"/>
        <pt x="840" y="955" on="0"/>
        <pt x="752" y="848" on="0"/>
        <pt x="650" y="749" on="0"/>
        <pt x="562" y="654" on="0"/>
        <pt x="503" y="560" on="0"/>
        <pt x="503" y="513" on="1"/>
        <pt x="503" y="490" on="0"/>
        <pt x="508" y="440" on="0"/>
        <pt x="511" y="418" on="1"/>
        <pt x="515" y="392" on="0"/>
        <pt x="520" y="368" on="1"/>
      </contour>
      <contour>
        <pt x="546" y="-11" on="1"/>
        <pt x="329" y="-11" on="1"/>
        <pt x="329" y="199" on="1"/>
        <pt x="546" y="199" on="1"/>
      </contour>
    </TTGlyph>
    <TTGlyph name="questiondown" xMin="146" yMin="-408" xMax="862" yMax="1081">
      <contour>
        <pt x="689" y="702" on="1"/>
        <pt x="691" y="672" on="0"/>
        <pt x="694" y="642" on="1"/>
        <pt x="696" y="616" on="0"/>
        <pt x="699" y="560" on="0"/>
        <pt x="699" y="540" on="1"/>
        <pt x="699" y="479" on="0"/>
        <pt x="642" y="377" on="0"/>
        <pt x="557" y="285" on="0"/>
        <pt x="457" y="198" on="0"/>
        <pt x="372" y="106" on="0"/>
        <pt x="315" y="5" on="0"/>
        <pt x="315" y="-55" on="1"/>
        <pt x="315" y="-112" on="0"/>
        <pt x="363" y="-192" on="0"/>
        <pt x="443" y="-243" on="0"/>
        <pt x="546" y="-266" on="0"/>
        <pt x="601" y="-266" on="1"/>
        <pt x="670" y="-266" on="0"/>
        <pt x="802" y="-231" on="0"/>
        <pt x="862" y="-197" on="1"/>
        <pt x="862" y="-343" on="1"/>
        <pt x="790" y="-378" on="0"/>
        <pt x="644" y="-408" on="0"/>
        <pt x="581" y="-408" on="1"/>
        <pt x="489" y="-408" on="0"/>
        <pt x="330" y="-365" on="0"/>
        <pt x="213" y="-279" on="0"/>
        <pt x="146" y="-150" on="0"/>
        <pt x="146" y="-63" on="1"/>
        <pt x="146" y="0" on="0"/>
        <pt x="205" y="115" on="0"/>
        <pt x="293" y="222" on="0"/>
        <pt x="395" y="321" on="0"/>
        <pt x="483" y="416" on="0"/>
        <pt x="542" y="510" on="0"/>
        <pt x="542" y="557" on="1"/>
        <pt x="542" y="580" on="0"/>
        <pt x="536" y="630" on="0"/>
        <pt x="533" y="652" on="1"/>
        <pt x="529" y="678" on="0"/>
        <pt x="525" y="702" on="1"/>
      </contour>
      <contour>
        <pt x="499" y="1081" on="1"/>
        <pt x="716" y="1081" on="1"/>
        <pt x="716" y="871" on="1"/>
        <pt x="499" y="871" on="1"/>
      </contour>
    </TTGlyph>
    <TTGlyph name="quotedbl" xMin="114" yMin="989" xMax="587" yMax="1451">
      <contour>
        <pt x="439" y="989" on="1"/>
        <pt x="403" y="1451" on="1"/>
        <pt x="587" y="1451" on="1"/>
        <pt x="569" y="989" on="1"/>
      </contour>
      <contour>
        <pt x="150" y="989" on="1"/>
        <pt x="114" y="1451" on="1"/>
        <pt x="297" y="1451" on="1"/>
        <pt x="281" y="989" on="1"/>
      </contour>
    </TTGlyph>
    <TTGlyph name="quotedblbase" xMin="178" yMin="-238" xMax="824" yMax="201">
      <contour>
        <pt x="283" y="201" on="1"/>
        <pt x="465" y="201" on="1"/>
        <pt x="312" y="-238" on="1"/>
        <pt x="178" y="-238" on="1"/>
      </contour>
      <contour>
        <pt x="641" y="201" on="1"/>
        <pt x="824" y="201" on="1"/>
        <pt x="670" y="-238" on="1"/>
        <pt x="537" y="-238" on="1"/>
      </contour>
    </TTGlyph>
    <TTGlyph name="quotedblleft" xMin="179" yMin="1023" xMax="815" yMax="1463">
      <contour>
        <pt x="361" y="1023" on="1"/>
        <pt x="179" y="1023" on="1"/>
        <pt x="333" y="1463" on="1"/>
        <pt x="466" y="1463" on="1"/>
      </contour>
      <contour>
        <pt x="711" y="1023" on="1"/>
        <pt x="528" y="1023" on="1"/>
        <pt x="682" y="1463" on="1"/>
        <pt x="815" y="1463" on="1"/>
      </contour>
    </TTGlyph>
    <TTGlyph name="quotedblright" xMin="208" yMin="1023" xMax="821" yMax="1463">
      <contour>
        <pt x="312" y="1463" on="1"/>
        <pt x="494" y="1463" on="1"/>
        <pt x="341" y="1023" on="1"/>
        <pt x="208" y="1023" on="1"/>
      </contour>
      <contour>
        <pt x="639" y="1463" on="1"/>
        <pt x="821" y="1463" on="1"/>
        <pt x="667" y="1023" on="1"/>
        <pt x="534" y="1023" on="1"/>
      </contour>
    </TTGlyph>
    <TTGlyph name="quoteleft" xMin="130" yMin="1023" xMax="416" yMax="1463">
      <contour>
        <pt x="312" y="1023" on="1"/>
        <pt x="130" y="1023" on="1"/>
        <pt x="284" y="1463" on="1"/>
        <pt x="416" y="1463" on="1"/>
      </contour>
    </TTGlyph>
    <TTGlyph name="quoteright" xMin="140" yMin="1023" xMax="426" yMax="1463">
      <contour>
        <pt x="245" y="1463" on="1"/>
        <pt x="426" y="1463" on="1"/>
        <pt x="272" y="1023" on="1"/>
        <pt x="140" y="1023" on="1"/>
      </contour>
    </TTGlyph>
    <TTGlyph name="quotesinglbase" xMin="125" yMin="-238" xMax="412" yMax="201">
      <contour>
        <pt x="231" y="201" on="1"/>
        <pt x="412" y="201" on="1"/>
        <pt x="258" y="-238" on="1"/>
        <pt x="125" y="-238" on="1"/>
      </contour>
    </TTGlyph>
    <TTGlyph name="quotesingle" xMin="176" yMin="989" xMax="360" yMax="1451">
      <contour>
        <pt x="212" y="989" on="1"/>
        <pt x="176" y="1451" on="1"/>
        <pt x="360" y="1451" on="1"/>
        <pt x="342" y="989" on="1"/>
      </contour>
    </TTGlyph>
    <TTGlyph name="r" xMin="161" yMin="0" xMax="716" yMax="1050">
      <contour>
        <pt x="332" y="0" on="1"/>
        <pt x="167" y="0" on="1"/>
        <pt x="167" y="779" on="1"/>
        <pt x="167" y="842" on="0"/>
        <pt x="163" y="968" on="0"/>
        <pt x="161" y="1026" on="1"/>
        <pt x="326" y="1026" on="1"/>
        <pt x="332" y="871" on="1"/>
        <pt x="374" y="956" on="0"/>
        <pt x="518" y="1050" on="0"/>
        <pt x="606" y="1050" on="1"/>
        <pt x="664" y="1050" on="0"/>
        <pt x="714" y="1038" on="1"/>
        <pt x="716" y="883" on="1"/>
        <pt x="695" y="894" on="0"/>
        <pt x="635" y="907" on="0"/>
        <pt x="601" y="907" on="1"/>
        <pt x="541" y="907" on="0"/>
        <pt x="441" y="860" on="0"/>
        <pt x="371" y="772" on="0"/>
        <pt x="332" y="646" on="0"/>
        <pt x="332" y="568" on="1"/>
      </contour>
    </TTGlyph>
    <TTGlyph name="radical" xMin="87" yMin="-153" xMax="1212" yMax="1596">
      <contour>
        <pt x="1212" y="1596" on="1"/>
        <pt x="746" y="-153" on="1"/>
        <pt x="611" y="-153" on="1"/>
        <pt x="279" y="690" on="1"/>
        <pt x="107" y="662" on="1"/>
        <pt x="87" y="774" on="1"/>
        <pt x="382" y="825" on="1"/>
        <pt x="611" y="214" on="1"/>
        <pt x="669" y="41" on="1"/>
        <pt x="709" y="217" on="1"/>
        <pt x="1082" y="1596" on="1"/>
      </contour>
    </TTGlyph>
    <TTGlyph name="registered" xMin="103" yMin="-32" xMax="1717" yMax="1483">
      <contour>
        <pt x="745" y="664" on="1"/>
        <pt x="745" y="273" on="1"/>
        <pt x="597" y="273" on="1"/>
        <pt x="597" y="1192" on="1"/>
        <pt x="870" y="1192" on="1"/>
        <pt x="1089" y="1192" on="0"/>
        <pt x="1301" y="1059" on="0"/>
        <pt x="1301" y="935" on="1"/>
        <pt x="1301" y="889" on="0"/>
        <pt x="1270" y="805" on="0"/>
        <pt x="1206" y="737" on="0"/>
        <pt x="1105" y="690" on="0"/>
        <pt x="1036" y="681" on="1"/>
        <pt x="1064" y="655" on="0"/>
        <pt x="1121" y="584" on="0"/>
        <pt x="1180" y="500" on="0"/>
        <pt x="1239" y="406" on="0"/>
        <pt x="1269" y="357" on="1"/>
        <pt x="1320" y="273" on="1"/>
        <pt x="1152" y="273" on="1"/>
        <pt x="1029" y="485" on="1"/>
        <pt x="991" y="551" on="0"/>
        <pt x="918" y="641" on="0"/>
        <pt x="882" y="664" on="1"/>
      </contour>
      <contour>
        <pt x="743" y="783" on="1"/>
        <pt x="868" y="783" on="1"/>
        <pt x="932" y="783" on="0"/>
        <pt x="1035" y="791" on="0"/>
        <pt x="1107" y="820" on="0"/>
        <pt x="1146" y="874" on="0"/>
        <pt x="1146" y="920" on="1"/>
        <pt x="1146" y="970" on="0"/>
        <pt x="1115" y="1030" on="0"/>
        <pt x="1047" y="1062" on="0"/>
        <pt x="938" y="1072" on="0"/>
        <pt x="860" y="1072" on="1"/>
        <pt x="742" y="1072" on="1"/>
      </contour>
      <contour>
        <pt x="913" y="85" on="1"/>
        <pt x="1009" y="85" on="0"/>
        <pt x="1184" y="130" on="0"/>
        <pt x="1334" y="212" on="0"/>
        <pt x="1457" y="328" on="0"/>
        <pt x="1543" y="470" on="0"/>
        <pt x="1590" y="634" on="0"/>
        <pt x="1590" y="724" on="1"/>
        <pt x="1590" y="815" on="0"/>
        <pt x="1543" y="980" on="0"/>
        <pt x="1455" y="1123" on="0"/>
        <pt x="1332" y="1239" on="0"/>
        <pt x="1181" y="1321" on="0"/>
        <pt x="1005" y="1366" on="0"/>
        <pt x="909" y="1366" on="1"/>
        <pt x="766" y="1366" on="0"/>
        <pt x="518" y="1268" on="0"/>
        <pt x="335" y="1095" on="0"/>
        <pt x="230" y="862" on="0"/>
        <pt x="230" y="727" on="1"/>
        <pt x="230" y="636" on="0"/>
        <pt x="277" y="471" on="0"/>
        <pt x="365" y="328" on="0"/>
        <pt x="488" y="212" on="0"/>
        <pt x="640" y="130" on="0"/>
        <pt x="816" y="85" on="0"/>
      </contour>
      <contour>
        <pt x="914" y="-32" on="1"/>
        <pt x="802" y="-32" on="0"/>
        <pt x="594" y="23" on="0"/>
        <pt x="414" y="122" on="0"/>
        <pt x="266" y="261" on="0"/>
        <pt x="161" y="429" on="0"/>
        <pt x="103" y="622" on="0"/>
        <pt x="103" y="726" on="1"/>
        <pt x="103" y="830" on="0"/>
        <pt x="161" y="1022" on="0"/>
        <pt x="267" y="1190" on="0"/>
        <pt x="415" y="1329" on="0"/>
        <pt x="594" y="1428" on="0"/>
        <pt x="798" y="1483" on="0"/>
        <pt x="908" y="1483" on="1"/>
        <pt x="1020" y="1483" on="0"/>
        <pt x="1227" y="1428" on="0"/>
        <pt x="1406" y="1328" on="0"/>
        <pt x="1554" y="1189" on="0"/>
        <pt x="1659" y="1020" on="0"/>
        <pt x="1717" y="828" on="0"/>
        <pt x="1717" y="725" on="1"/>
        <pt x="1717" y="621" on="0"/>
        <pt x="1659" y="429" on="0"/>
        <pt x="1554" y="261" on="0"/>
        <pt x="1407" y="122" on="0"/>
        <pt x="1229" y="23" on="0"/>
        <pt x="1024" y="-32" on="0"/>
      </contour>
    </TTGlyph>
    <TTGlyph name="ring" xMin="90" yMin="1149" xMax="510" yMax="1530">
      <contour>
        <pt x="410" y="1340" on="1"/>
        <pt x="410" y="1362" on="0"/>
        <pt x="393" y="1400" on="0"/>
        <pt x="363" y="1428" on="0"/>
        <pt x="322" y="1445" on="0"/>
        <pt x="299" y="1445" on="1"/>
        <pt x="277" y="1445" on="0"/>
        <pt x="237" y="1428" on="0"/>
        <pt x="207" y="1400" on="0"/>
        <pt x="189" y="1361" on="0"/>
        <pt x="189" y="1340" on="1"/>
        <pt x="189" y="1294" on="0"/>
        <pt x="248" y="1235" on="0"/>
        <pt x="299" y="1235" on="1"/>
        <pt x="321" y="1235" on="0"/>
        <pt x="361" y="1252" on="0"/>
        <pt x="392" y="1280" on="0"/>
        <pt x="410" y="1319" on="0"/>
      </contour>
      <contour>
        <pt x="90" y="1339" on="1"/>
        <pt x="90" y="1380" on="0"/>
        <pt x="123" y="1450" on="0"/>
        <pt x="180" y="1501" on="0"/>
        <pt x="257" y="1530" on="0"/>
        <pt x="300" y="1530" on="1"/>
        <pt x="344" y="1530" on="0"/>
        <pt x="421" y="1500" on="0"/>
        <pt x="478" y="1449" on="0"/>
        <pt x="510" y="1379" on="0"/>
        <pt x="510" y="1340" on="1"/>
        <pt x="510" y="1300" on="0"/>
        <pt x="476" y="1231" on="0"/>
        <pt x="419" y="1179" on="0"/>
        <pt x="343" y="1149" on="0"/>
        <pt x="301" y="1149" on="1"/>
        <pt x="257" y="1149" on="0"/>
        <pt x="180" y="1178" on="0"/>
        <pt x="123" y="1229" on="0"/>
        <pt x="90" y="1299" on="0"/>
      </contour>
    </TTGlyph>
    <TTGlyph name="s" xMin="117" yMin="-23" xMax="905" yMax="1051">
      <contour>
        <pt x="790" y="847" on="1"/>
        <pt x="736" y="884" on="0"/>
        <pt x="584" y="917" on="0"/>
        <pt x="502" y="917" on="1"/>
        <pt x="456" y="917" on="0"/>
        <pt x="378" y="897" on="0"/>
        <pt x="321" y="860" on="0"/>
        <pt x="288" y="807" on="0"/>
        <pt x="288" y="774" on="1"/>
        <pt x="288" y="739" on="0"/>
        <pt x="322" y="689" on="0"/>
        <pt x="380" y="652" on="0"/>
        <pt x="458" y="623" on="0"/>
        <pt x="502" y="610" on="1"/>
        <pt x="542" y="598" on="0"/>
        <pt x="633" y="572" on="0"/>
        <pt x="723" y="537" on="0"/>
        <pt x="805" y="490" on="0"/>
        <pt x="868" y="426" on="0"/>
        <pt x="905" y="340" on="0"/>
        <pt x="905" y="284" on="1"/>
        <pt x="905" y="206" on="0"/>
        <pt x="833" y="91" on="0"/>
        <pt x="715" y="15" on="0"/>
        <pt x="563" y="-23" on="0"/>
        <pt x="483" y="-23" on="1"/>
        <pt x="430" y="-23" on="0"/>
        <pt x="326" y="-11" on="0"/>
        <pt x="231" y="17" on="0"/>
        <pt x="150" y="61" on="0"/>
        <pt x="121" y="94" on="1"/>
        <pt x="165" y="229" on="1"/>
        <pt x="192" y="197" on="0"/>
        <pt x="264" y="151" on="0"/>
        <pt x="347" y="122" on="0"/>
        <pt x="435" y="109" on="0"/>
        <pt x="477" y="109" on="1"/>
        <pt x="533" y="109" on="0"/>
        <pt x="627" y="130" on="0"/>
        <pt x="696" y="171" on="0"/>
        <pt x="735" y="232" on="0"/>
        <pt x="735" y="272" on="1"/>
        <pt x="735" y="318" on="0"/>
        <pt x="691" y="375" on="0"/>
        <pt x="613" y="416" on="0"/>
        <pt x="505" y="447" on="0"/>
        <pt x="442" y="467" on="1"/>
        <pt x="367" y="491" on="0"/>
        <pt x="246" y="544" on="0"/>
        <pt x="162" y="614" on="0"/>
        <pt x="117" y="707" on="0"/>
        <pt x="117" y="771" on="1"/>
        <pt x="117" y="842" on="0"/>
        <pt x="182" y="948" on="0"/>
        <pt x="288" y="1017" on="0"/>
        <pt x="423" y="1051" on="0"/>
        <pt x="493" y="1051" on="1"/>
        <pt x="596" y="1051" on="0"/>
        <pt x="771" y="1012" on="0"/>
        <pt x="832" y="964" on="1"/>
      </contour>
    </TTGlyph>
    <TTGlyph name="scaron" xMin="117" yMin="-23" xMax="905" yMax="1493">
      <component glyphName="s" x="0" y="0" flags="0x1204"/>
      <component glyphName="caron" x="158" y="0" flags="0x1004"/>
    </TTGlyph>
</ttFont>
